<svg width="50" height="50" viewBox="0 0 50 50" fill="none" xmlns="http://www.w3.org/2000/svg">
<path d="M47.5 22.5H47.4667C47.1506 13.2613 41.1901 5.16625 32.4617 2.12167C32.2754 0.904792 31.231 0.0046875 30 0H20C18.769 0.0046875 17.7246 0.904792 17.5383 2.12167C8.80989 5.16625 2.84938 13.2613 2.53333 22.5H2.5C1.11927 22.5 0 23.6193 0 25V26.6667C0 28.0474 1.11927 29.1667 2.5 29.1667H47.5C48.8807 29.1667 50 28.0474 50 26.6667V25C50 23.6193 48.8807 22.5 47.5 22.5ZM17.5 3.90917V18.3333C17.5 18.7935 17.8731 19.1667 18.3333 19.1667C18.7935 19.1667 19.1667 18.7935 19.1667 18.3333V2.5C19.1667 2.03979 19.5398 1.66667 20 1.66667H24.1667V20C24.1667 20.4602 24.5398 20.8333 25 20.8333C25.4602 20.8333 25.8333 20.4602 25.8333 20V1.66667H30C30.4602 1.66667 30.8333 2.03979 30.8333 2.5V18.3333C30.8333 18.7935 31.2065 19.1667 31.6667 19.1667C32.1269 19.1667 32.5 18.7935 32.5 18.3333V3.90917C40.2575 6.88188 45.4916 14.1981 45.8 22.5H4.2C4.50844 14.1981 9.7425 6.88188 17.5 3.90917ZM48.3333 26.6667C48.3333 27.1269 47.9602 27.5 47.5 27.5H2.5C2.03979 27.5 1.66667 27.1269 1.66667 26.6667V25C1.66667 24.5398 2.03979 24.1667 2.5 24.1667H47.5C47.9602 24.1667 48.3333 24.5398 48.3333 25V26.6667Z" fill="#C84141"/>
<path d="M20.8333 36.6667H10C8.61927 36.6667 7.5 37.786 7.5 39.1667V42.5001C7.5 42.9603 7.87312 43.3334 8.33333 43.3334C8.79354 43.3334 9.16667 42.9603 9.16667 42.5001V39.1667C9.16667 38.7065 9.53979 38.3334 10 38.3334H20.8333C21.2935 38.3334 21.6667 37.9603 21.6667 37.5001C21.6667 37.0399 21.2935 36.6667 20.8333 36.6667Z" fill="#C84141"/>
<path d="M49.1667 36.6666H45.75C45.3514 34.7279 43.6459 33.3358 41.6667 33.3333H8.33333C6.03333 33.336 4.16937 35.1999 4.16667 37.4999H0.833333C0.373125 37.4999 0 37.873 0 38.3333V44.9999C0 45.4601 0.373125 45.8333 0.833333 45.8333H4.41667C5.1551 48.3015 7.42365 49.9944 10 49.9999H15C18.8133 49.9891 22.3432 47.9848 24.3067 44.7158C24.5458 44.3328 25.0502 44.2164 25.4331 44.4555C25.5385 44.5214 25.6275 44.6103 25.6933 44.7158C27.6568 47.9848 31.1867 49.9891 35 49.9999H40C42.8972 49.9965 45.3528 47.8673 45.7667 44.9999H49.1667C49.6269 44.9999 50 44.6268 50 44.1666V37.4999C50 37.0397 49.6269 36.6666 49.1667 36.6666ZM4.16667 44.1666H1.66667V41.6666H4.16667V44.1666ZM4.16667 39.9999H1.66667V39.1666H4.16667V39.9999ZM44.1667 44.1666C44.164 46.4666 42.3 48.3305 40 48.3332H35C31.7726 48.3238 28.7851 46.6274 27.1233 43.8607C26.4136 42.6871 24.8869 42.3111 23.7133 43.0208C23.3695 43.2287 23.0812 43.5169 22.8733 43.8607C21.2122 46.6264 18.2261 48.3226 15 48.3332H10C7.7 48.3305 5.83604 46.4666 5.83333 44.1666V37.4999C5.83333 36.1192 6.9526 34.9999 8.33333 34.9999H41.6667C43.0474 34.9999 44.1667 36.1192 44.1667 37.4999V44.1666ZM48.3333 43.3333H45.8333V40.8333H48.3333V43.3333ZM48.3333 39.1666H45.8333V38.3333H48.3333V39.1666Z" fill="#303030"/>
<path d="M25.8334 36.6667H24.1667C23.7065 36.6667 23.3334 37.0399 23.3334 37.5001C23.3334 37.9603 23.7065 38.3334 24.1667 38.3334H25.8334C26.2936 38.3334 26.6667 37.9603 26.6667 37.5001C26.6667 37.0399 26.2936 36.6667 25.8334 36.6667Z" fill="#C84141"/>
</svg>
