<svg width="166" height="30" viewBox="0 0 166 30" fill="none" xmlns="http://www.w3.org/2000/svg">
<g clip-path="url(#clip0)">
<path fill-rule="evenodd" clip-rule="evenodd" d="M28.566 16.9577C27.9385 17.253 27.2925 17.7025 26.6778 17.9128C26.5861 17.9442 28.3355 18.4246 28.6071 19.149C29.4137 21.3021 32.4505 21.7141 33.903 22.5206C35.9593 23.6621 35.6284 23.5382 34.3135 21.6215C33.7404 20.7858 33.8211 19.7835 33.8211 18.5873C33.8211 17.2157 36.3719 18.2668 36.284 17.126C36.2784 17.053 35.4333 16.6766 35.34 16.6766C35.1655 16.6766 39.2112 14.3813 37.1872 14.4291C34.7701 14.4862 36.1851 15.2061 37.2284 12.35C37.9357 10.4143 34.0397 13.3269 33.4309 13.9516C32.5188 14.888 32.7661 15.4125 32.3842 16.3679C31.435 18.7418 32.078 16.3394 28.566 16.9577Z" fill="#1B1918"/>
<path fill-rule="evenodd" clip-rule="evenodd" d="M10.2033 0.703204C10.2033 0.703204 10.1108 0.547588 9.80168 0.594508C9.49259 0.641066 8.84343 0.641066 8.67358 0.641066C8.50372 0.641066 8.11718 0.547588 8.44176 0.43853C8.76652 0.329835 9.5079 0.251936 9.6936 0.220595C9.87913 0.189436 12.2589 -0.0906365 12.599 -0.012738C12.9389 0.0649794 13.1242 0.236356 13.1242 0.236356C13.1242 0.236356 15.1486 0.205016 15.3959 0.205016C15.6432 0.205016 16.1221 0.158458 16.3541 0.111537C16.586 0.0649794 16.9723 0.00247942 17.2965 0.00247942C17.6217 0.00247942 20.3566 0.0493997 21.1603 0.282914C21.9638 0.516791 22.5669 1.27965 22.7519 1.57531C22.9374 1.87132 23.4938 2.57168 23.5093 2.93002C23.5248 3.28817 23.5862 3.36607 23.8956 3.91118C24.2047 4.45592 25.8514 8.02205 26.1299 8.61371C26.4078 9.20538 27.3974 11.2918 27.7677 11.4474C28.1388 11.6036 28.9117 12.3509 28.9117 12.3509C28.9117 12.3509 28.2627 11.2608 28.5096 11.1362C28.7568 11.0117 29.1278 11.8213 29.4369 12.3195C29.7464 12.8181 30.6113 13.7523 30.6731 14.0637C30.7349 14.3749 30.6731 14.6867 30.364 14.6867C30.0549 14.6867 28.7573 14.998 28.2935 14.998C27.83 14.998 26.1299 14.7489 26.1299 14.7489C26.1299 14.7489 25.5117 16.399 25.5117 17.5202C25.5117 18.6414 25.2026 19.7318 25.1097 20.1673C25.0171 20.6034 24.9861 21.7559 24.9861 21.7559C24.9861 21.7559 25.2952 21.5068 25.6046 21.6624C25.9134 21.8181 26.0991 22.0985 25.6661 22.223C25.2334 22.3476 24.77 23.4066 24.4915 23.8427C24.2136 24.2784 23.8733 24.3719 23.8427 24.2162C23.8115 24.0605 24.0282 23.5309 23.7809 23.5623C23.5336 23.5932 21.1229 25.1817 21.0299 25.3996C20.9375 25.6173 20.6279 25.9289 20.3193 26.4273C20.0102 26.9255 19.4845 27.5485 19.2991 27.455C19.1136 27.3615 19.1448 26.7077 19.1448 26.7077L18.1246 27.1124C18.1246 27.1124 17.4758 27.5172 17.1355 27.5172C16.7958 27.5172 14.6529 26.5097 14.0659 26.5719C13.4282 26.6391 14.8615 29.853 12.9376 29.853C12.35 29.853 11.7888 30.1643 11.5415 29.9465C11.2942 29.7286 10.5524 28.607 10.676 27.8597C10.7997 27.1124 10.5524 25.8978 10.4906 25.6173C10.4289 25.3373 10.6142 25.244 10.1198 24.9326C9.62516 24.621 8.79047 24.3409 8.2964 24.0605C7.80143 23.7802 6.99827 23.6554 6.62685 23.3753C6.25598 23.0949 5.2981 23.1884 5.48344 22.9393C5.66897 22.6902 6.34893 22.5967 6.62685 22.5967C6.90532 22.5967 7.33797 22.192 7.09067 22.0673C6.84336 21.9429 6.47249 21.0396 6.47249 21.0396C6.47249 21.0396 6.81274 17.9255 6.62685 17.1155C6.44151 16.3061 6.44187 15.4653 6.07046 15.0601C5.69959 14.6554 4.18549 14.624 3.78346 14.2815C3.38178 13.9389 1.40369 13.9079 0.847474 13.6588C0.291079 13.4094 -0.141573 13.223 0.0437721 13.0981C0.229297 12.9737 0.909256 12.8181 1.21834 12.8804C1.52743 12.9425 1.34191 12.2574 1.61984 11.9148C1.8983 11.5722 3.25822 10.1706 3.44375 9.98364C3.62909 9.79705 5.05079 9.04976 4.64876 9.0186C4.24727 8.98726 3.69087 9.0494 3.9688 8.83165C4.24727 8.61371 5.11257 8.55157 5.2981 8.02205C5.48344 7.49252 6.78158 6.06009 7.18361 5.62368C7.58528 5.18799 8.07971 4.31589 7.89437 4.22241C7.70884 4.12893 7.24503 4.06679 7.49234 3.91118C7.73965 3.75556 8.35782 3.7552 8.54353 3.28817C8.72869 2.82132 9.09956 2.29179 9.03778 2.13618C8.97582 1.98002 9.50159 1.45103 9.56338 1.23273C9.62516 1.01444 10.2033 0.703204 10.2033 0.703204ZM10.5742 0.874581C10.5742 0.874581 12.9077 0.43853 13.1554 0.45411C13.4027 0.46969 15.4733 0.609726 15.4733 0.609726C15.4733 0.609726 17.0649 0.516791 17.1885 0.516791C17.3122 0.516791 18.8575 0.50103 18.9655 0.50103C19.0736 0.50103 20.8975 0.532008 21.2376 0.781103C21.5775 1.0302 21.8246 1.13925 21.979 1.59089C22.1337 2.0427 23.4412 5.53056 24.1518 6.12223C24.8629 6.71389 25.4188 8.02205 25.6972 8.36462C25.9751 8.70719 26.5315 10.3266 26.6551 10.5757C26.7787 10.8248 27.3044 11.6657 27.3044 11.9148C27.3044 12.1639 27.5824 12.8177 27.8607 13.1916C28.1388 13.5653 27.6135 13.7833 27.3968 13.7833C27.1807 13.7833 26.3154 14.0014 26.3154 14.0014C26.3154 14.0014 26.0373 13.3162 26.0681 13.0981C26.0987 12.8804 26.4078 11.7592 26.1299 11.4787C25.8514 11.1983 25.3573 11.0117 25.0171 10.4822C24.677 9.95284 23.5642 7.08744 23.1627 6.40266C22.7612 5.71752 22.2663 4.87676 22.0807 4.50284C21.8954 4.12893 21.4319 3.07005 21.2158 2.72784C20.9993 2.38527 20.659 1.91788 20.4429 1.88708C20.2267 1.85574 19.9794 1.91788 19.9794 2.16697C19.9794 2.41607 19.6086 2.57223 19.2065 2.75864C18.8045 2.9456 18.2175 4.09813 18.0939 4.37802C17.9702 4.65846 16.5796 8.2398 16.363 8.76951C16.1465 9.29886 15.3433 10.8561 14.9106 11.4474C14.4775 12.0391 14.1069 13.4097 13.6431 13.7211C13.1793 14.0324 11.6033 14.2815 11.1706 14.188C10.7379 14.0945 9.25429 13.7211 9.03778 13.5653C8.82164 13.4094 7.86357 13.1295 7.86357 13.1295C7.86357 13.1295 6.68864 12.6624 6.00868 12.6624C5.32872 12.6624 4.03112 12.4751 3.66025 12.226C3.28884 11.9769 2.82557 11.8213 2.94913 11.4787C3.0727 11.1362 4.95785 8.89378 5.39104 8.55157C5.82333 8.20864 6.7506 6.55828 7.09067 6.30918C7.43056 6.06009 8.66691 4.06679 8.88342 3.94252C9.951 3.32657 8.61089 3.31009 9.8413 1.45049C9.96505 1.26353 10.5742 0.874581 10.5742 0.874581ZM19.985 4.56878C19.985 4.56878 21.654 7.73907 21.9012 8.42259C22.1485 9.10647 23.3225 10.5987 23.3225 10.5987L24.6206 11.8416C24.6206 11.8416 25.1765 13.2094 25.0529 13.7066C24.9297 14.2036 24.3733 15.7579 24.4971 16.1931C24.6206 16.6284 23.6934 21.6634 23.5698 21.9742C23.4462 22.2851 22.3037 23.2193 22.1337 23.3597C21.9638 23.4998 21.2221 23.8266 21.114 23.998C21.006 24.1697 20.7426 24.4809 20.5728 24.5275C20.4029 24.5744 19.043 25.4152 18.7802 25.4152C18.5178 25.4152 17.2965 25.213 17.0961 24.7458C16.895 24.2784 16.0607 23.0485 15.9215 22.6124C15.7823 22.1764 15.4577 20.8838 15.4114 20.5726C15.3653 20.2608 15.3496 19.9182 15.0562 20.0275C14.7626 20.1365 14.6079 20.3077 14.6079 20.4791C14.6079 20.6505 15.1023 22.3941 15.1331 22.6902C15.1643 22.9858 15.4114 23.7802 15.4271 23.9048C15.4422 24.0293 15.4577 24.4967 15.3341 24.5744C15.2104 24.6523 14.6234 24.6679 14.237 24.6679C13.8504 24.6679 10.8527 23.7175 10.698 23.6088C10.5436 23.4998 9.84797 23.3128 9.7244 23.1884C9.60084 23.0637 9.40019 22.955 9.2143 22.7523C9.02878 22.5498 8.85892 20.7282 8.84343 20.4478C8.8283 20.1673 8.58099 19.0467 8.41114 18.9063C8.24074 18.7663 8.03991 18.7193 8.07089 18.9219C8.10169 19.1244 8.2719 20.557 8.3027 20.8682C8.33369 21.18 8.5347 22.1143 8.37998 22.192C8.22525 22.2699 7.73118 21.7248 7.73118 21.4603C7.73118 21.1952 7.3686 19.171 7.55412 18.6106C7.73965 18.0498 7.6159 15.9322 7.5235 15.6831C7.43056 15.434 7.39976 14.8423 7.39976 14.8423C7.39976 14.8423 7.95615 15.7766 8.01793 16.057C8.07971 16.3369 7.77063 17.1463 8.04873 17.1155C8.32702 17.0847 8.51255 16.5239 8.54353 16.057C8.57433 15.5896 8.3888 14.998 8.45058 14.8423C8.51255 14.6867 8.97582 14.7802 9.16135 14.9045C9.34723 15.0293 11.3561 14.9672 11.665 15.2157C11.9741 15.4648 13.0869 15.8387 13.2723 15.8387C13.4578 15.8387 13.8287 15.434 13.8904 14.9672C13.9522 14.4998 15.9921 11.2297 16.3323 10.6378C16.6721 10.0461 17.6611 7.67911 18.0939 7.14994C18.5266 6.62041 19.2065 5.3436 19.3921 5.15665C19.5774 4.96969 19.985 4.56878 19.985 4.56878ZM22.1737 16.5552C22.1737 16.5552 22.0501 17.0847 22.0501 17.7072C22.0501 18.3302 21.8958 19.1402 21.5555 19.6384C21.2158 20.1365 21.2464 20.4791 20.2574 20.4791C19.2683 20.4791 18.6501 20.2608 18.434 19.8561C18.2175 19.4514 17.9396 17.8628 18.1557 17.3333C18.3719 16.8043 19.1754 15.4648 19.7936 15.4027C20.4117 15.3405 21.2158 15.2784 21.4008 15.4648C21.5863 15.6518 22.1737 16.5552 22.1737 16.5552ZM11.665 24.5588C11.665 24.5588 13.334 24.7769 13.7669 24.9014C14.1995 25.026 15.003 25.5552 15.003 25.5552L15.4977 25.8043C15.4977 25.8043 15.6212 26.2715 14.6322 26.0224C13.6431 25.773 12.8084 25.1505 12.5611 25.1191C12.314 25.0882 11.665 24.5588 11.665 24.5588ZM24.677 22.3789C24.677 22.3789 24.09 23.0014 23.9353 22.8458C23.7809 22.6902 24.1829 22.1295 24.1829 22.1295L24.677 22.3789ZM29.097 13.7211C29.097 13.7211 29.7464 14.2815 29.9313 14.2815C30.1169 14.2815 30.0861 13.7211 29.9313 13.6588C29.777 13.5963 29.097 13.7211 29.097 13.7211ZM3.57397 13.5811C3.69772 13.5811 5.72192 13.8302 5.83 13.8768C5.93807 13.9237 6.52563 14.1101 6.52563 14.2036C6.52563 14.297 6.52563 14.6554 6.26283 14.5306C6.00003 14.4063 5.28927 14.1259 4.93389 14.1259C4.57815 14.1259 3.91386 14.0324 3.83677 13.9389C3.7595 13.8454 3.57397 13.5811 3.57397 13.5811Z" fill="#1B1918"/>
<path fill-rule="evenodd" clip-rule="evenodd" d="M10.5742 0.875695C10.5742 0.875695 9.96501 1.26519 9.84127 1.4516C8.6105 3.31211 9.95222 3.32769 8.88338 3.94309C8.66688 4.06791 7.43052 6.0612 7.09063 6.3103C6.75056 6.55939 5.8233 8.20975 5.39065 8.55233C4.95781 8.8949 3.07266 11.1373 2.9491 11.4799C2.82554 11.8224 3.28881 11.9781 3.66022 12.2271C4.03109 12.4762 5.32868 12.6632 6.00864 12.6632C6.6886 12.6632 7.86353 13.1306 7.86353 13.1306C7.86353 13.1306 8.8216 13.4105 9.03775 13.5665C9.25425 13.7223 10.7379 14.0956 11.1706 14.1891C11.6032 14.2826 13.1793 14.0335 13.6431 13.7223C14.1069 13.4108 14.4774 12.0407 14.9106 11.4485C15.3433 10.8569 16.1464 9.29997 16.3629 8.77062C16.5796 8.24091 17.9702 4.65957 18.0939 4.37914C18.2175 4.09925 18.8045 2.94671 19.2065 2.75975C19.6085 2.57334 19.979 2.41718 19.979 2.16809C19.979 1.91899 20.2264 1.85685 20.4429 1.88765C20.659 1.91899 20.9993 2.38638 21.2154 2.72896C21.4319 3.07117 21.8954 4.13004 22.0807 4.50396C22.2666 4.87787 22.7612 5.71863 23.1627 6.40378C23.5642 7.08856 24.677 9.95396 25.017 10.4833C25.3573 11.0128 25.8514 11.1994 26.1298 11.4799C26.4078 11.7603 26.0987 12.8815 26.0681 13.0992C26.0369 13.3174 26.3154 14.0025 26.3154 14.0025C26.3154 14.0025 27.1807 13.7844 27.3968 13.7844C27.6135 13.7844 28.1387 13.5665 27.8606 13.1927C27.5827 12.8188 27.3044 12.165 27.3044 11.9159C27.3044 11.6668 26.7786 10.8259 26.6551 10.5768C26.5315 10.3277 25.9751 8.7083 25.6972 8.36573C25.4191 8.02316 24.8629 6.71501 24.1517 6.12334C23.4412 5.53167 22.1337 2.04381 21.9795 1.592C21.8246 1.14037 21.5774 1.03131 21.2376 0.782216C20.8975 0.533122 19.0741 0.502144 18.9655 0.502144L17.1884 0.517905C17.0649 0.517905 15.4733 0.610839 15.4733 0.610839C15.4733 0.610839 13.4026 0.470803 13.155 0.455224C12.9077 0.440006 10.5742 0.875695 10.5742 0.875695Z" fill="#303030" fill-opacity="0.2"/>
<path fill-rule="evenodd" clip-rule="evenodd" d="M16.3324 10.6391C15.9921 11.2309 13.9522 14.501 13.8905 14.9679C13.8287 15.4353 13.4578 15.84 13.2723 15.84C13.0869 15.84 11.9741 15.4661 11.6651 15.217C11.3561 14.9684 9.34725 15.0306 9.16137 14.9058C8.97584 14.7815 8.51257 14.688 8.45061 14.8436C8.38883 14.9992 8.57435 15.5909 8.54319 16.0583C8.51257 16.5251 8.32705 17.086 8.04876 17.1168C7.77065 17.1476 8.07974 16.3382 8.01796 16.0583C7.95618 15.7779 7.39978 14.8436 7.39978 14.8436C7.39978 14.8436 7.43058 15.4353 7.52352 15.6844C7.61593 15.9335 7.73967 18.051 7.55414 18.6119C7.36862 19.1722 7.7312 21.1965 7.7312 21.4612C7.7312 21.726 8.22528 22.2712 8.38 22.1933C8.53473 22.1155 8.33371 21.1813 8.30273 20.8695C8.27193 20.5583 8.10171 19.1257 8.07091 18.9231C8.03993 18.7206 8.24077 18.7675 8.41116 18.9076C8.58102 19.048 8.82832 20.1686 8.84345 20.4491C8.85894 20.7295 9.0288 22.551 9.21432 22.7536C9.40021 22.9563 9.60087 23.0654 9.72443 23.1896C9.84799 23.3141 10.5436 23.501 10.698 23.6101C10.8527 23.7192 13.8505 24.6692 14.237 24.6692C14.6234 24.6692 15.2104 24.6536 15.3341 24.5757C15.4577 24.498 15.4426 24.0306 15.4271 23.9061C15.4114 23.7815 15.1643 22.9871 15.1331 22.6914C15.1023 22.3954 14.6079 20.6518 14.6079 20.4804C14.6079 20.309 14.7626 20.1378 15.0562 20.0288C15.3496 19.9195 15.3653 20.2621 15.4114 20.5739C15.4577 20.8851 15.7823 22.1777 15.9215 22.6137C16.0607 23.0498 16.8951 24.2797 17.0961 24.7471C17.2966 25.2143 18.5178 25.4164 18.7802 25.4164C19.043 25.4164 20.4029 24.5757 20.5728 24.5288C20.7426 24.4822 21.0056 24.171 21.1141 23.9992C21.2221 23.8279 21.9639 23.501 22.1337 23.361C22.3038 23.221 23.4463 22.2864 23.5698 21.9755C23.6934 21.6646 24.6207 16.6297 24.4971 16.1943C24.3734 15.7592 24.9297 14.2049 25.0533 13.7079C25.1771 13.2106 24.6207 11.8429 24.6207 11.8429L23.3225 10.6C23.3225 10.6 22.1485 9.10775 21.9012 8.42442C21.6541 7.74036 19.9851 4.57007 19.9851 4.57007C19.9851 4.57007 19.5774 4.97097 19.3921 5.15793C19.2066 5.34489 18.5266 6.6217 18.094 7.15123C17.6611 7.68039 16.6721 10.0474 16.3324 10.6391ZM18.1557 17.3346C18.3719 16.8056 19.1754 15.4661 19.7936 15.4039C20.4118 15.3418 21.2158 15.2797 21.4008 15.4661C21.5863 15.653 22.1737 16.5565 22.1737 16.5565C22.1737 16.5565 22.0501 17.086 22.0501 17.7085C22.0501 18.3315 21.8958 19.1414 21.5555 19.6396C21.2155 20.1378 21.2464 20.4804 20.2574 20.4804C19.2683 20.4804 18.6502 20.2621 18.434 19.8574C18.2175 19.4527 17.9392 17.8641 18.1557 17.3346Z" fill="white"/>
<path fill-rule="evenodd" clip-rule="evenodd" d="M51.0327 7.30985H48.9763H48.7165L48.6524 7.0564C48.5847 6.78756 48.4973 6.55658 48.3945 6.36637C48.2972 6.18793 48.1835 6.04119 48.0553 5.9285C47.9197 5.8189 47.7626 5.73702 47.5848 5.68213C47.3977 5.6247 47.1812 5.59571 46.9362 5.59571C46.5754 5.59571 46.2571 5.66039 45.9828 5.78865L45.9823 5.78774C45.7116 5.91474 45.4783 6.10622 45.2834 6.36111V6.36238C45.0829 6.62416 44.9313 6.94952 44.8284 7.33575C44.7222 7.73521 44.6687 8.20043 44.6687 8.73014C44.6687 9.39825 44.7621 9.95278 44.9489 10.3946L44.9531 10.4028C45.0399 10.6236 45.1458 10.8171 45.2692 10.9818C45.3897 11.1428 45.5295 11.2785 45.6858 11.3877L45.6854 11.3885C45.8421 11.4973 46.0136 11.58 46.1981 11.6352C46.3852 11.6906 46.59 11.7189 46.8126 11.7189C47.275 11.7189 47.6553 11.5894 47.9517 11.3319C48.2612 11.0631 48.4961 10.647 48.6551 10.0852L48.7239 9.84082H48.9763H51.0327H51.4176L51.3629 10.2243C51.329 10.4602 51.2883 10.679 51.2406 10.8772H51.2402C51.1921 11.0789 51.1368 11.2571 51.0761 11.41H51.0765C51.0169 11.5662 50.9405 11.7289 50.8475 11.8966C50.7586 12.0579 50.6545 12.2216 50.5358 12.3867L50.5345 12.3894C50.0903 12.9975 49.5523 13.4564 48.9224 13.7622C48.2959 14.0669 47.5825 14.22 46.7845 14.22C46.0379 14.22 45.3664 14.0935 44.7699 13.8421C44.1677 13.5881 43.6441 13.2062 43.1999 12.6988L43.201 12.6981C42.7576 12.1984 42.4242 11.6146 42.2032 10.9483C41.9839 10.2877 41.8741 9.54916 41.8741 8.73249C41.8741 7.60749 42.0769 6.62289 42.4816 5.77633C42.6871 5.34608 42.9344 4.96673 43.2217 4.63829C43.5114 4.30767 43.8457 4.0247 44.2225 3.79046L44.2236 3.78901C44.5979 3.55821 45.0051 3.38376 45.4439 3.26782C45.88 3.15242 46.3454 3.09463 46.8384 3.09463C47.4548 3.09463 48.0232 3.18032 48.5425 3.35042C49.0658 3.5218 49.5382 3.78068 49.9579 4.12506L49.9633 4.12887C50.381 4.48303 50.7072 4.89771 50.941 5.36999C51.1737 5.83883 51.3153 6.36474 51.3654 6.94481L51.3969 7.30985H51.0327ZM52.2285 3.29173H60.2533H60.5874V3.62778V5.44264V5.77869H60.2533H57.6243V13.701V14.037H57.2901H55.234H54.8999V13.701V5.77869H52.2285H51.8944V5.44264V3.62778V3.29173H52.2285ZM62.2305 3.29173H66.3548C66.878 3.29173 67.3361 3.33774 67.726 3.42941C68.1358 3.52561 68.4753 3.67452 68.7415 3.87434L68.7408 3.87506C69.1951 4.20405 69.5368 4.61981 69.7657 5.1209C69.9914 5.61528 70.1045 6.18756 70.1045 6.83521C70.1045 7.47923 69.997 8.05188 69.7821 8.55097C69.5633 9.0584 69.2362 9.48521 68.8013 9.82869L68.7943 9.83448L68.7767 9.8459C68.6079 9.9564 68.4352 10.0495 68.2604 10.1251H68.259C68.0789 10.2028 67.8944 10.2642 67.7071 10.3089V10.3086C67.5176 10.3593 67.3007 10.3984 67.0585 10.4245C66.8166 10.4504 66.5536 10.4637 66.2731 10.4637H64.6211V13.701V14.037H64.287H62.2305H61.8964V13.701V3.62778V3.29173H62.2305ZM64.6211 5.77869V7.97651H65.898C66.4529 7.97651 66.8346 7.89354 67.0401 7.72796V7.72651C67.1293 7.65532 67.1977 7.55822 67.2442 7.43684C67.297 7.29934 67.3238 7.12633 67.3238 6.91999C67.3238 6.70006 67.2961 6.51528 67.2422 6.36582H67.2418C67.1934 6.23195 67.1226 6.12542 67.0311 6.0468L67.0297 6.04553C66.9351 5.96347 66.8007 5.89934 66.6284 5.85423C66.4362 5.80423 66.1966 5.77869 65.912 5.77869H64.6211ZM70.9587 8.70658C70.9587 7.59481 71.1716 6.61546 71.5966 5.7651L71.5972 5.76546C71.8061 5.34481 72.0637 4.96836 72.3672 4.63829C72.6705 4.30858 73.0214 4.02488 73.4171 3.78811L73.4211 3.78539C73.819 3.55441 74.2444 3.38068 74.6953 3.26637C75.1458 3.15224 75.6238 3.09463 76.1281 3.09463C76.496 3.09463 76.8535 3.1276 77.1988 3.19245C77.5407 3.25695 77.8701 3.35441 78.1862 3.4843H78.1875C78.5039 3.61564 78.7966 3.77361 79.0636 3.95749C79.3311 4.14119 79.5769 4.35459 79.8005 4.59735C80.022 4.83557 80.2194 5.09771 80.3913 5.38104C80.5631 5.6651 80.7124 5.97452 80.8374 6.30658L80.8387 6.31202C80.9574 6.64535 81.0469 6.99716 81.1056 7.36655C81.1649 7.73738 81.195 8.12144 81.195 8.51908C81.195 9.60695 80.9875 10.5754 80.5734 11.4285L80.5726 11.4281C80.3642 11.8617 80.1103 12.2502 79.8125 12.591C79.5137 12.933 79.1699 13.2281 78.7837 13.4734C78.3934 13.7213 77.9744 13.9088 77.5291 14.033C77.0851 14.1571 76.6177 14.22 76.1281 14.22C75.6245 14.22 75.1467 14.16 74.6962 14.0414H74.6949C74.2425 13.9222 73.8201 13.743 73.4285 13.5055L73.4288 13.5051C73.0369 13.2749 72.6866 12.997 72.3809 12.6723L72.3802 12.6729C72.0745 12.3483 71.8132 11.9769 71.5979 11.5591C71.385 11.1461 71.2247 10.6984 71.1181 10.2189C71.0121 9.74227 70.9587 9.23756 70.9587 8.70658ZM73.7532 8.54481C73.7532 9.00532 73.803 9.42814 73.902 9.81184C74.0005 10.1946 74.1479 10.5435 74.3421 10.8555H74.3433C74.5215 11.1434 74.7504 11.3586 75.0287 11.5001C75.3151 11.6455 75.6625 11.7189 76.0696 11.7189C76.4311 11.7189 76.7515 11.6502 77.0304 11.5142C77.3079 11.3787 77.552 11.1727 77.7608 10.8975L77.7611 10.8977C77.9713 10.6147 78.1304 10.2827 78.2366 9.90296C78.3456 9.51419 78.4004 9.0718 78.4004 8.57742C78.4004 8.08774 78.3469 7.65369 78.2399 7.27615C78.1367 6.91148 77.9836 6.59934 77.7829 6.34191L77.7826 6.34227C77.5794 6.09318 77.3398 5.9064 77.0644 5.7834C76.7861 5.6584 76.4635 5.59571 76.0977 5.59571C75.8668 5.59571 75.653 5.62434 75.4572 5.68122V5.68249C75.2583 5.73956 75.0728 5.82542 74.9028 5.93792L74.9013 5.93919C74.73 6.05079 74.5769 6.18792 74.4445 6.34753V6.34898C74.3096 6.51166 74.1936 6.70006 74.0984 6.9122C73.9968 7.13901 73.917 7.38919 73.8595 7.66075C73.8017 7.93521 73.766 8.23032 73.7525 8.54481H73.7532ZM90.8787 14.037H88.9342H88.6001V13.701V7.89318L85.0377 13.8731L84.9399 14.037H84.752H82.8216H82.4873V13.701V3.62778V3.29173H82.8216H84.752H85.0861V3.62778V9.41528L88.5587 3.4584L88.6556 3.29173H88.8458H90.8787H91.213V3.62778V13.701V14.037H90.8787ZM92.3384 3.29173H100.363H100.697V3.62778V5.44264V5.77869H100.363H97.7339V13.701V14.037H97.3998H95.3437H95.0096V13.701V5.77869H92.3384H92.0042V5.44264V3.62778V3.29173H92.3384ZM102.34 3.29173H109.547H109.881V3.62778V5.44264V5.77869H109.547H104.731V7.25912H109.111H109.445V7.59517V9.29735V9.6334H109.111H104.731V11.5501H109.759H110.093V11.8861V13.701V14.037H109.759H102.34H102.006V13.701V3.62778V3.29173H102.34ZM111.74 6.24445C111.74 5.82705 111.83 5.43792 112.01 5.07923C112.187 4.72669 112.451 4.40713 112.799 4.12271L112.801 4.11999C113.148 3.84245 113.545 3.63376 113.992 3.49571C114.432 3.35948 114.917 3.29173 115.448 3.29173H120.159H120.493V3.62778V13.701V14.037H120.159H118.103H117.769V13.701V5.75042H115.625C115.2 5.75042 114.893 5.82271 114.705 5.96582V5.96709C114.545 6.08956 114.464 6.28539 114.464 6.55405V13.701V14.037H114.13H112.074H111.74V13.701V6.24445ZM122.607 3.29173H124.664H124.998V3.62778V7.2872H126.734C127.21 7.2872 127.654 7.32524 128.062 7.40061C128.473 7.47651 128.846 7.59173 129.178 7.74463L129.179 7.74408C129.511 7.89499 129.802 8.07108 130.048 8.27072C130.301 8.47561 130.508 8.70622 130.669 8.96202L130.675 8.97108C130.822 9.22379 130.934 9.48992 131.01 9.76655H131.01C131.086 10.0444 131.124 10.3285 131.124 10.6175C131.124 11.1727 131.021 11.6734 130.815 12.1175C130.609 12.5613 130.3 12.9428 129.892 13.2608C129.711 13.4086 129.519 13.5327 129.321 13.6321L129.32 13.631C129.115 13.7339 128.901 13.8137 128.681 13.8694V13.8698C128.464 13.9252 128.203 13.9675 127.9 13.9954C127.601 14.0233 127.273 14.037 126.918 14.037H122.607H122.273V13.701V3.62778V3.29173H122.607ZM129.893 13.2597L129.892 13.2608L129.893 13.2597ZM124.998 9.6334V11.5501H126.678C127.378 11.5501 127.845 11.4745 128.081 11.3233L128.081 11.3225C128.161 11.2711 128.223 11.1925 128.265 11.0887C128.318 10.9613 128.344 10.7939 128.344 10.5872C128.344 10.3718 128.319 10.1961 128.268 10.0626C128.231 9.96148 128.178 9.88521 128.112 9.83575C128.012 9.77452 127.853 9.72579 127.636 9.69155C127.395 9.65296 127.084 9.6334 126.706 9.6334H124.998ZM132.989 3.29173H135.046H135.38V3.62778V7.2026H138.684V3.62778V3.29173H139.018H141.074H141.409V3.62778V13.701V14.037H141.074H139.018H138.684V13.701V9.68992H135.38V13.701V14.037H135.046H132.989H132.655V13.701V3.62778V3.29173H132.989ZM143.201 3.29173H145.257H145.591V3.62778V7.2872H147.327C147.804 7.2872 148.247 7.32524 148.655 7.40061C149.066 7.47651 149.439 7.59173 149.772 7.74463L149.772 7.74408C150.105 7.89499 150.396 8.07108 150.642 8.27072C150.894 8.47561 151.102 8.70622 151.262 8.96202L151.269 8.97108C151.416 9.22379 151.528 9.48992 151.603 9.76655H151.604C151.679 10.0444 151.718 10.3285 151.718 10.6175C151.718 11.1727 151.615 11.6734 151.408 12.1175C151.202 12.5613 150.894 12.9428 150.485 13.2608C150.304 13.4086 150.113 13.5327 149.914 13.6321L149.913 13.631C149.709 13.7339 149.494 13.8137 149.274 13.8694V13.8698C149.058 13.9252 148.797 13.9675 148.494 13.9954C148.194 14.0233 147.866 14.037 147.511 14.037H143.201H142.866V13.701V3.62778V3.29173H143.201ZM150.486 13.2597L150.485 13.2608L150.486 13.2597ZM145.591 9.6334V11.5501H147.271C147.971 11.5501 148.438 11.4745 148.674 11.3233L148.674 11.3225C148.754 11.2711 148.816 11.1925 148.859 11.0887C148.911 10.9613 148.937 10.7939 148.937 10.5872C148.937 10.3718 148.912 10.1961 148.862 10.0626C148.824 9.96148 148.771 9.88521 148.705 9.83575C148.605 9.77452 148.446 9.72579 148.23 9.69155C147.988 9.65296 147.677 9.6334 147.299 9.6334H145.591ZM152.7 13.701V3.62778V3.29173H153.034H155.091H155.425V3.62778V13.701V14.037H155.091H153.034H152.7V13.701ZM161.47 3.27216C160.679 3.27216 160.031 3.04191 159.529 2.58213L159.528 2.58321C159.27 2.35459 159.074 2.09318 158.943 1.80042C158.812 1.50767 158.746 1.18774 158.746 0.84191V0.505859H159.08H160.672H161.006V0.84191C161.006 0.882309 161.014 0.918178 161.03 0.948794C161.05 0.987562 161.084 1.02579 161.13 1.06238L161.133 1.06383C161.187 1.10713 161.244 1.14046 161.304 1.16166C161.362 1.18213 161.427 1.19282 161.497 1.19282C161.571 1.19282 161.637 1.18267 161.695 1.16329C161.754 1.14372 161.813 1.11111 161.871 1.06745C161.913 1.03321 161.943 0.997526 161.962 0.961294L161.962 0.960932C161.979 0.926693 161.988 0.886656 161.988 0.84191V0.505859H162.323H163.913H164.247V0.84191C164.247 1.18503 164.179 1.50369 164.045 1.79716C163.913 2.0872 163.713 2.34934 163.449 2.58321C163.188 2.81437 162.889 2.98774 162.556 3.10242C162.226 3.21528 161.863 3.27216 161.47 3.27216ZM165.666 14.037H163.721H163.387V13.701V7.89318L159.825 13.8731L159.727 14.037H159.539H157.609H157.275V13.701V3.62778V3.29173H157.609H159.539H159.873V3.62778V9.41528L163.346 3.4584L163.443 3.29173H163.633H165.666H166V3.62778V13.701V14.037H165.666ZM42.5313 25.4365V20.1309C42.5313 19.6403 42.6243 19.1986 42.8084 18.8084C42.9946 18.4131 43.2729 18.0751 43.6411 17.7948L43.6477 17.7908C43.8165 17.6687 43.9934 17.5656 44.1764 17.4829L44.176 17.4823C44.3585 17.3999 44.5487 17.337 44.7445 17.2961C44.934 17.2564 45.1649 17.2262 45.4358 17.2069C45.7029 17.1881 46.0079 17.1781 46.3488 17.1781H50.4893H50.8234V17.5142V25.4365H51.5012H51.8353V25.7727V27.5874V27.9234H51.5012H41.9423H41.608V27.5874V25.7727V25.4365H41.9423H42.5313ZM45.2701 25.4365H48.0987V19.6934H46.5353C46.2653 19.6934 46.0379 19.7111 45.8549 19.7468C45.6932 19.778 45.5671 19.822 45.481 19.8778L45.4814 19.8781C45.4169 19.9211 45.3666 19.9827 45.3333 20.0613V20.0626C45.2915 20.1604 45.2701 20.2876 45.2701 20.4428V25.4365ZM53.1191 17.1781H57.4953C57.842 17.1781 58.1535 17.1881 58.4276 17.2069C58.7035 17.2262 58.9399 17.2564 59.133 17.2961H59.1342C59.3295 17.337 59.5179 17.4012 59.698 17.4859C59.8765 17.5693 60.0455 17.6734 60.2045 17.7952L60.2049 17.7948C60.5682 18.0711 60.8428 18.4082 61.0269 18.8041C61.2094 19.1959 61.3005 19.6388 61.3005 20.1332C61.3005 20.9684 61.0179 21.6483 60.4525 22.1725C60.7686 22.3729 61.0232 22.6216 61.2144 22.918C61.4954 23.3528 61.6365 23.8821 61.6365 24.5039C61.6365 25.0591 61.5331 25.5598 61.3267 26.0039C61.1204 26.4479 60.8124 26.8292 60.4037 27.1472C60.2225 27.295 60.031 27.4191 59.8327 27.5185L59.832 27.5175C59.6272 27.6204 59.4129 27.7001 59.1931 27.7559V27.7562C58.9762 27.8117 58.7153 27.8539 58.4121 27.8818C58.1127 27.9097 57.7849 27.9234 57.4297 27.9234H53.1191H52.7849V27.5874V17.5142V17.1781H53.1191ZM60.405 27.1463L60.4037 27.1472L60.405 27.1463ZM55.5096 19.6651V21.1738H57.2433C57.5416 21.1738 57.7869 21.1555 57.9777 21.1204C58.1455 21.089 58.2684 21.0461 58.3456 20.9926L58.3519 20.9872C58.4035 20.9533 58.4445 20.8981 58.4739 20.8229C58.5137 20.7207 58.5341 20.5843 58.5341 20.4146C58.5341 20.2546 58.5133 20.1245 58.473 20.0263V20.0251C58.4418 19.949 58.3952 19.8903 58.3356 19.8502L58.3343 19.8475C58.2545 19.7932 58.1331 19.7497 57.9714 19.7185H57.9705C57.7884 19.6829 57.5594 19.6651 57.2854 19.6651H55.5096ZM55.5096 23.5198V25.4365H57.1898C57.8896 25.4365 58.357 25.3609 58.593 25.2097L58.5926 25.2089C58.6724 25.1577 58.7349 25.0789 58.7774 24.9751C58.8294 24.8477 58.8559 24.6803 58.8559 24.4736C58.8559 24.2582 58.8305 24.0825 58.7805 23.949C58.7426 23.8479 58.6899 23.7716 58.6239 23.7222C58.5238 23.6611 58.3647 23.612 58.1491 23.578H58.1479C57.9061 23.5394 57.5945 23.5198 57.2152 23.5198H55.5096ZM62.4488 22.593C62.4488 21.4812 62.6615 20.5019 63.0866 19.6517L63.0873 19.6519C63.2961 19.2312 63.5539 18.8548 63.8572 18.5247C64.1607 18.195 64.5116 17.9115 64.9071 17.6745L64.9111 17.6718C65.3091 17.4408 65.7346 17.2671 66.1853 17.153C66.6357 17.0387 67.114 16.9812 67.6181 16.9812C67.9861 16.9812 68.3437 17.014 68.6888 17.0789C69.0306 17.1435 69.3601 17.241 69.6762 17.3707H69.6776C69.9939 17.5021 70.2866 17.66 70.5537 17.8439C70.821 18.0276 71.0669 18.241 71.2904 18.4838C71.512 18.722 71.7096 18.9841 71.8812 19.2675C72.0531 19.5515 72.2024 19.8609 72.3274 20.193L72.3287 20.1984C72.4474 20.5318 72.5369 20.8838 72.5958 21.253C72.6549 21.6238 72.6849 22.0079 72.6849 22.4055C72.6849 23.4934 72.4774 24.4618 72.0633 25.3149L72.0628 25.3146C71.8542 25.7481 71.6002 26.1367 71.3025 26.4774C71.0039 26.8194 70.66 27.1146 70.2737 27.3598C69.8833 27.6077 69.4644 27.7952 69.0193 27.9194C68.5751 28.0435 68.1077 28.1064 67.6181 28.1064C67.1145 28.1064 66.6366 28.0464 66.1863 27.928H66.1849C65.7324 27.8086 65.31 27.6294 64.9185 27.3919L64.9188 27.3916C64.5269 27.1613 64.1767 26.8834 63.8709 26.5588L63.8703 26.5593C63.5645 26.2347 63.3031 25.8633 63.0881 25.4455C62.8752 25.0325 62.7147 24.5848 62.6082 24.1053C62.5021 23.6287 62.4488 23.124 62.4488 22.593ZM65.2432 22.4314C65.2432 22.8917 65.2931 23.3146 65.392 23.6983C65.4905 24.0812 65.6379 24.43 65.832 24.7419H65.8335C66.0114 25.03 66.2404 25.245 66.5188 25.3865C66.8051 25.5319 67.1527 25.6053 67.5596 25.6053C67.9213 25.6053 68.2417 25.5367 68.5203 25.4006C68.7981 25.2651 69.042 25.0591 69.2507 24.7839L69.2511 24.7841C69.4613 24.5012 69.6203 24.1693 69.7266 23.7894C69.8356 23.4006 69.8904 22.9582 69.8904 22.464C69.8904 21.9743 69.8369 21.5401 69.73 21.1626C69.6268 20.7981 69.4737 20.4858 69.2729 20.2283L69.2725 20.2287C69.0694 19.9796 68.8298 19.7928 68.5544 19.6698C68.2761 19.5448 67.9537 19.4823 67.5877 19.4823C67.3568 19.4823 67.143 19.5108 66.9472 19.5676V19.5689C66.7483 19.6262 66.5628 19.7118 66.3928 19.8243L66.3915 19.8258C66.22 19.9372 66.0669 20.0743 65.9347 20.2341V20.2354C65.7996 20.3981 65.6838 20.5867 65.5885 20.7986C65.4869 21.0254 65.4069 21.2756 65.3495 21.5472C65.2917 21.8216 65.256 22.1167 65.2427 22.4314H65.2432ZM74.1857 17.1781H78.3098C78.833 17.1781 79.2913 17.2242 79.6812 17.3158C80.0908 17.412 80.4303 17.5609 80.6967 17.7608L80.696 17.7615C81.1501 18.0905 81.492 18.5062 81.7209 19.0073C81.9464 19.5017 82.0597 20.0742 82.0597 20.7216C82.0597 21.3656 81.952 21.9383 81.7373 22.4374C81.5183 22.9448 81.1912 23.3716 80.7565 23.7151L80.7495 23.7209L80.7317 23.7323C80.5631 23.8428 80.3902 23.9359 80.2155 24.0115H80.2142C80.0341 24.0892 79.8496 24.1508 79.6621 24.1954V24.195C79.4726 24.2459 79.2558 24.2848 79.0135 24.3109C78.7716 24.3368 78.5086 24.3501 78.2282 24.3501H76.5761V27.5874V27.9234H76.242H74.1857H73.8514V27.5874V17.5142V17.1781H74.1857ZM76.5761 19.6651V21.8629H77.853C78.4081 21.8629 78.7896 21.78 78.9951 21.6144V21.6129C79.0843 21.5417 79.1529 21.4446 79.1994 21.3233C79.2522 21.1858 79.2788 21.0127 79.2788 20.8064C79.2788 20.5867 79.2511 20.4017 79.1972 20.2522H79.1971C79.1486 20.1184 79.0776 20.0118 78.9861 19.9332L78.9849 19.9319C78.8903 19.8499 78.7559 19.7858 78.5834 19.7406C78.3914 19.6906 78.1518 19.6651 77.867 19.6651H76.5761Z" fill="#1B1918" fill-opacity="0.6"/>
</g>
<defs>
<clipPath id="clip0">
<rect width="166" height="30" fill="white"/>
</clipPath>
</defs>
</svg>
