<?xml version="1.0" encoding="UTF-8" standalone="no"?>
<svg
   xmlns:dc="http://purl.org/dc/elements/1.1/"
   xmlns:cc="http://creativecommons.org/ns#"
   xmlns:rdf="http://www.w3.org/1999/02/22-rdf-syntax-ns#"
   xmlns:svg="http://www.w3.org/2000/svg"
   xmlns="http://www.w3.org/2000/svg"
   xmlns:sodipodi="http://sodipodi.sourceforge.net/DTD/sodipodi-0.dtd"
   xmlns:inkscape="http://www.inkscape.org/namespaces/inkscape"
   width="25"
   height="25"
   viewBox="0 0 25 25"
   fill="none"
   version="1.1"
   id="svg11"
   sodipodi:docname="telegram-logo-red.svg"
   inkscape:version="0.92.4 (5da689c313, 2019-01-14)">
  <metadata
     id="metadata15">
    <rdf:RDF>
      <cc:Work
         rdf:about="">
        <dc:format>image/svg+xml</dc:format>
        <dc:type
           rdf:resource="http://purl.org/dc/dcmitype/StillImage" />
        <dc:title></dc:title>
      </cc:Work>
    </rdf:RDF>
  </metadata>
  <sodipodi:namedview
     pagecolor="#ffffff"
     bordercolor="#666666"
     borderopacity="1"
     objecttolerance="10"
     gridtolerance="10"
     guidetolerance="10"
     inkscape:pageopacity="0"
     inkscape:pageshadow="2"
     inkscape:window-width="1161"
     inkscape:window-height="760"
     id="namedview13"
     showgrid="false"
     inkscape:zoom="13.350176"
     inkscape:cx="4.2160081"
     inkscape:cy="10.446417"
     inkscape:window-x="0"
     inkscape:window-y="0"
     inkscape:window-maximized="0"
     inkscape:current-layer="g4" />
  <g
     clip-path="url(#clip0)"
     id="g4">
    <path
       d="M20.1257 23.6812C19.9304 23.6812 19.7365 23.6234 19.5701 23.5106L13.2841 19.2466L9.91265 21.6726C9.64823 21.8627 9.30742 21.9106 9.00038 21.8008C8.69374 21.6908 8.46086 21.4368 8.37773 21.1218L6.68488 14.7064L0.636129 12.3936C0.255336 12.2479 0.00279387 11.8836 2.30254e-05 11.4759C-0.00274782 11.0682 0.244781 10.7004 0.623727 10.5496L23.6233 1.39793C23.7277 1.35359 23.8381 1.328 23.9495 1.32113C23.9893 1.31876 24.0293 1.31876 24.069 1.321C24.2997 1.33472 24.5262 1.42867 24.703 1.60204C24.7214 1.61999 24.7388 1.63833 24.7553 1.65746C24.9017 1.82477 24.9822 2.02875 24.9974 2.23657C25.0011 2.28882 25.0008 2.34173 24.9962 2.39464C24.993 2.43237 24.9876 2.46998 24.98 2.50732L21.0977 22.8768C21.0353 23.2041 20.8126 23.478 20.5049 23.6056C20.3829 23.6562 20.254 23.6812 20.1257 23.6812ZM13.836 17.2295L19.4354 21.0275L22.4561 5.17775L11.546 15.6761L13.8096 17.2117C13.8187 17.2173 13.8275 17.2234 13.836 17.2295ZM9.17481 16.3849L9.92452 19.2257L11.5398 18.0634L9.42472 16.6286C9.32642 16.5621 9.24224 16.4792 9.17481 16.3849ZM3.71242 11.4507L7.86579 13.0386C8.16332 13.1524 8.38789 13.4025 8.46917 13.7105L8.9959 15.7067C9.02004 15.4764 9.12441 15.2598 9.29396 15.0966L19.6898 5.09331L3.71242 11.4507Z"
       id="path2"
       fill="#D6D6D6"
       style="fill:#c84141;fill-opacity:1" />
  </g>
  <defs
     id="defs9">
    <clipPath
       id="clip0">
      <rect
         width="25"
         height="25"
         fill="white"
         id="rect6" />
    </clipPath>
  </defs>
</svg>
