<svg width="25" height="25" viewBox="0 0 25 25" fill="none" xmlns="http://www.w3.org/2000/svg">
<g clip-path="url(#clip0)">
<path d="M21.9811 2.79682C20.0049 0.859403 16.81 -0.0793438 12.4835 0.00524592C8.12096 0.0910472 5.20482 0.85676 3.30629 2.41506C1.47065 3.92159 0.615723 6.1261 0.615723 9.35274V12.6458C0.615723 16.455 2.65689 20.6427 6.55804 21.2764C7.00841 21.35 7.43268 21.0438 7.50582 20.5934C7.57895 20.1431 7.2732 19.7187 6.82282 19.6456C3.86427 19.165 2.26786 15.6804 2.26786 12.6458V9.35274C2.26786 4.72608 3.98224 1.82481 12.5159 1.65695C16.3847 1.58029 19.177 2.36131 20.8243 3.97645C22.108 5.23527 22.7321 6.99381 22.7321 9.35274V12.6458C22.7321 17.6324 20.4939 19.8318 14.7532 20.4795H10.6826C10.4635 20.4795 10.2533 20.5665 10.0985 20.7215L7.23024 23.5897C6.90763 23.9123 6.90763 24.4354 7.23024 24.758C7.39149 24.9192 7.60296 25 7.81433 25C8.02569 25 8.23717 24.9193 8.39841 24.758L11.0248 22.1316H14.7994C14.8298 22.1316 14.8603 22.13 14.8906 22.1266C18.1759 21.7616 20.4257 20.9066 21.9704 19.4355C23.5947 17.8887 24.3843 15.6678 24.3843 12.6457V9.35274C24.3843 6.56623 23.5758 4.36051 21.9811 2.79682Z" fill="#D6D6D6"/>
<path d="M13.0156 5.39568C13.0157 5.39568 13.0157 5.39568 13.016 5.39568C14.347 5.39568 15.5985 5.91413 16.5398 6.85541C17.4812 7.7968 17.9996 9.04846 17.9995 10.3798C17.9995 10.836 18.3692 11.2058 18.8254 11.2058C18.8256 11.2058 18.8256 11.2058 18.8256 11.2058C19.2818 11.2058 19.6516 10.8361 19.6516 10.3799C19.6517 8.60723 18.9615 6.94066 17.708 5.68723C16.4547 4.43381 14.7885 3.74365 13.016 3.74365C13.0159 3.74365 13.0155 3.74365 13.0154 3.74365C12.5592 3.74365 12.1895 4.11351 12.1895 4.56972C12.1896 5.02582 12.5594 5.39568 13.0156 5.39568Z" fill="#D6D6D6"/>
<path d="M13.0154 8.30058C14.1618 8.3008 15.0946 9.23349 15.0947 10.3797C15.0948 10.836 15.4645 11.2058 15.9209 11.2057C16.3772 11.2057 16.7469 10.8357 16.7468 10.3795C16.7465 8.3225 15.0728 6.64877 13.0156 6.64844H13.0155C12.5593 6.64844 12.1896 7.01819 12.1895 7.4744C12.1895 7.93061 12.5592 8.30058 13.0154 8.30058Z" fill="#D6D6D6"/>
<path d="M9.31131 9.71606C8.93473 9.97357 8.83814 10.4876 9.09554 10.8642C9.35295 11.2408 9.86709 11.3372 10.2437 11.0798C10.5398 10.8774 11.2335 10.4031 11.1848 9.45502C11.154 8.88756 10.6422 8.07735 10.2182 7.49756C9.59812 6.64924 9.06371 6.13829 8.63316 5.9799C8.23114 5.83022 7.81072 5.82702 7.38271 5.97065C6.49617 6.26936 5.8525 6.80917 5.52141 7.5317C5.19902 8.23508 5.20618 9.04341 5.54222 9.86982C6.33591 11.8169 7.44703 13.5216 8.85213 14.9438C10.2669 16.3414 11.9715 17.4525 13.9194 18.2466C14.3409 18.4181 14.7579 18.5039 15.1587 18.5039C15.5431 18.5039 15.9126 18.4251 16.2569 18.2672C16.9795 17.936 17.5192 17.2925 17.8182 16.4048C17.9614 15.9778 17.9582 15.5576 17.8097 15.1583C17.6502 14.7247 17.1392 14.1904 16.291 13.5703C15.7111 13.1463 14.9008 12.6345 14.3312 12.6036C13.3851 12.556 12.9112 13.2484 12.7088 13.5446C12.4513 13.9212 12.5476 14.4352 12.9242 14.6929C13.3009 14.9505 13.8148 14.854 14.0725 14.4774C14.1623 14.346 14.2137 14.2863 14.2431 14.2602C14.7068 14.4088 16.029 15.3803 16.2671 15.7525C16.2729 15.7763 16.2742 15.8126 16.2522 15.8785C16.148 16.1879 15.9448 16.5929 15.5686 16.7654C15.2163 16.9267 14.8159 16.8278 14.5425 16.7166C12.7971 16.005 11.2733 15.0132 10.0203 13.7755C8.77558 12.5156 7.78374 10.9917 7.07255 9.24696C6.96108 8.97292 6.86206 8.57233 7.02342 8.22032C7.1958 7.84418 7.6009 7.64086 7.9093 7.53688C7.97517 7.51485 8.0114 7.51606 8.03652 7.52212C8.40891 7.76058 9.37982 9.08207 9.52851 9.54589C9.5023 9.57485 9.44271 9.62629 9.31131 9.71606Z" fill="#D6D6D6"/>
</g>
<defs>
<clipPath id="clip0">
<rect width="25" height="25" fill="white"/>
</clipPath>
</defs>
</svg>
