<svg width="25" height="25" viewBox="0 0 25 25" fill="none" xmlns="http://www.w3.org/2000/svg">
<path d="M12.4996 0C5.74388 0 0.247925 5.49618 0.247925 12.2518C0.247925 14.8958 1.32108 17.2698 1.78257 18.1678C1.99743 18.586 2.5108 18.7506 2.92882 18.5359C3.34696 18.321 3.51177 17.8078 3.29691 17.3896C2.89216 16.6018 1.95056 14.5241 1.95056 12.2517C1.95044 6.43495 6.68276 1.70252 12.4996 1.70252C18.317 1.70252 23.0496 6.43495 23.0496 12.2518C23.0496 18.0688 18.317 22.8013 12.4996 22.8013C10.2246 22.8013 8.41683 22.0136 7.74513 21.6748C7.54594 21.5742 7.31519 21.556 7.10272 21.624L1.74069 23.3375C1.29293 23.4807 1.04584 23.9596 1.18896 24.4075C1.30451 24.7693 1.63934 24.9999 1.99959 24.9999C2.08551 24.9999 2.17279 24.9868 2.25894 24.9593L7.29737 23.3491C8.35146 23.8384 10.2067 24.5038 12.4996 24.5038C19.2556 24.5038 24.7522 19.0076 24.7522 12.2518C24.7522 5.49618 19.2556 0 12.4996 0Z" fill="#D6D6D6"/>
<path d="M10.0842 10.1628C9.7113 10.4491 9.64127 10.9835 9.92752 11.3565C10.2139 11.7293 10.7481 11.7995 11.1212 11.5131C11.3822 11.3126 12.0753 10.7803 11.9738 9.82816C11.9113 9.26213 11.359 8.48544 10.9067 7.93371C10.2449 7.12626 9.68463 6.64808 9.2447 6.51347C8.83246 6.38567 8.41001 6.40587 7.9887 6.57362C7.122 6.92003 6.51034 7.49389 6.21978 8.23324C5.93682 8.95329 5.98824 9.75904 6.36881 10.5642C7.25718 12.4395 8.44452 14.059 9.8979 15.3781C9.90357 15.3835 9.90936 15.3887 9.91515 15.3939C11.3892 16.6969 13.1331 17.7008 15.0993 18.3782C15.4724 18.5064 15.8386 18.5703 16.1902 18.5703C16.6319 18.5703 17.0509 18.4695 17.4319 18.2686C18.1346 17.8981 18.6374 17.227 18.8863 16.326C19.0061 15.8892 18.9794 15.4675 18.8081 15.0748C18.6243 14.6497 18.0873 14.1459 17.2118 13.5773C16.6138 13.1889 15.7816 12.7261 15.2096 12.7261C15.2093 12.7261 15.2088 12.7261 15.2084 12.7261C14.2543 12.7299 13.8013 13.4776 13.6308 13.7592C13.3873 14.1613 13.5157 14.6848 13.9179 14.9283C14.3198 15.1719 14.8434 15.0435 15.0871 14.6413C15.1544 14.5301 15.197 14.471 15.2238 14.4402C15.7046 14.5798 16.9907 15.421 17.2543 15.7751C17.2586 15.7939 17.2591 15.8224 17.2449 15.8743C17.1611 16.1779 16.9875 16.5784 16.6378 16.7627C16.3111 16.9348 15.9214 16.8607 15.653 16.7685C13.9036 16.1658 12.3554 15.2769 11.0513 14.1263C11.051 14.126 11.0505 14.1257 11.0502 14.1252C9.75886 12.9552 8.70148 11.5121 7.90754 9.83622C7.78598 9.5788 7.66919 9.19982 7.80426 8.85625C7.94886 8.48828 8.32784 8.27172 8.61953 8.15515C8.66959 8.13517 8.69785 8.13211 8.71839 8.13483C9.09953 8.35786 10.0769 9.54248 10.2688 10.005C10.2411 10.0348 10.1871 10.0837 10.0842 10.1628Z" fill="#D6D6D6"/>
</svg>
