<svg width="50" height="50" viewBox="0 0 50 50" fill="none" xmlns="http://www.w3.org/2000/svg">
<g clip-path="url(#clip0)">
<path d="M47.2881 2.24609H2.71187C1.21651 2.24609 0 3.4626 0 4.95796V14.777C0 15.1852 0.331116 15.5167 0.73967 15.5167C1.14822 15.5167 1.47934 15.1852 1.47934 14.777V4.95796C1.47934 4.27856 2.03247 3.72543 2.71187 3.72543H47.2881C47.9679 3.72543 48.5207 4.27856 48.5207 4.95796V34.544C48.5207 35.2238 47.9675 35.7765 47.2881 35.7765H31.9748C32.0248 35.4385 32.0511 35.0929 32.0511 34.7408C32.0511 34.3891 32.0248 34.0435 31.9748 33.7055H41.568C41.9765 33.7055 42.3077 33.3744 42.3077 32.9659C42.3077 31.0898 43.8339 29.5635 45.71 29.5635C46.1185 29.5635 46.4497 29.2324 46.4497 28.8239V16.2418C46.4497 15.8333 46.1185 15.5022 45.71 15.5022C45.3014 15.5022 44.9703 15.8333 44.9703 16.2418V28.1403C42.8696 28.4611 41.2048 30.1254 40.8844 32.2262H31.5861C30.571 29.5769 28.0022 27.6897 25 27.6897C21.9978 27.6897 19.429 29.5769 18.4139 32.2262H9.1156C8.79517 30.1254 7.13043 28.4611 5.02968 28.1403V11.3617C7.13043 11.0409 8.79517 9.37653 9.1156 7.27577H40.8844C41.2052 9.37653 42.8696 11.0409 44.9703 11.3617V12.7922C44.9703 13.2008 45.3018 13.5319 45.71 13.5319C46.1185 13.5319 46.4497 13.2008 46.4497 12.7922V10.6781C46.4497 10.2695 46.1185 9.93843 45.71 9.93843C43.8339 9.93843 42.3077 8.41217 42.3077 6.5361C42.3077 6.12755 41.9765 5.79643 41.568 5.79643H8.43201C8.02345 5.79643 7.69234 6.12755 7.69234 6.5361C7.69234 8.41217 6.16608 9.93843 4.29001 9.93843C3.88145 9.93843 3.55034 10.2695 3.55034 10.6781V28.8239C3.55034 29.2324 3.88145 29.5635 4.29001 29.5635C6.16608 29.5635 7.69234 31.0898 7.69234 32.9659C7.69234 33.3744 8.02345 33.7055 8.43201 33.7055H18.0252C17.9752 34.0439 17.9489 34.3895 17.9489 34.7412C17.9489 35.0929 17.9752 35.4385 18.0252 35.7769H2.71187C2.03209 35.7769 1.47934 35.2238 1.47934 34.544V18.2163C1.47934 17.8078 1.14822 17.4767 0.73967 17.4767C0.331116 17.4767 0 17.8078 0 18.2163V34.544C0 36.0394 1.21651 37.2559 2.71187 37.2559H18.4139C18.6634 37.9074 19.0071 38.5124 19.4279 39.0549V46.97C19.4279 47.2164 19.5507 47.4464 19.7552 47.5838C19.9596 47.7211 20.219 47.7478 20.4472 47.6547L25 45.7962L29.5528 47.6547C29.6429 47.6913 29.7379 47.7097 29.8321 47.7097C29.977 47.7097 30.1212 47.6669 30.2448 47.5838C30.4493 47.4464 30.5721 47.2164 30.5721 46.97V44.8544C30.5721 44.4458 30.2406 44.1147 29.8325 44.1147C29.4239 44.1147 29.0928 44.4458 29.0928 44.8544V45.8691L25.2796 44.3127C25.1003 44.2398 24.8997 44.2398 24.7204 44.3127L20.9072 45.8691V40.4778C22.0623 41.304 23.4749 41.7923 25 41.7923C26.5251 41.7923 27.9377 41.304 29.0928 40.4778V41.3979C29.0928 41.8064 29.4239 42.1375 29.8325 42.1375C30.2406 42.1375 30.5721 41.8064 30.5721 41.3979V39.0549C30.9929 38.5124 31.3366 37.9074 31.5861 37.2559H47.2881C48.7835 37.2559 50 36.0394 50 34.544V4.95796C50 3.4626 48.7835 2.24609 47.2881 2.24609V2.24609ZM25 40.313C21.9276 40.313 19.4279 37.8136 19.4279 34.7412C19.4279 31.6689 21.9276 29.1691 25 29.1691C28.0724 29.1691 30.5721 31.6689 30.5721 34.7412C30.5721 37.8136 28.0724 40.313 25 40.313Z" fill="#303030"/>
<path d="M31.509 12.0094C31.9176 12.0094 32.2487 11.6783 32.2487 11.2697C32.2487 10.8611 31.9176 10.53 31.509 10.53H18.491C18.0825 10.53 17.7513 10.8611 17.7513 11.2697C17.7513 11.6783 18.0825 12.0094 18.491 12.0094H31.509Z" fill="#C84141"/>
<path d="M36.4399 14.4749H13.5601C13.1516 14.4749 12.8204 14.806 12.8204 15.2145C12.8204 15.6231 13.1516 15.9542 13.5601 15.9542H36.4399C36.8484 15.9542 37.1796 15.6231 37.1796 15.2145C37.1796 14.806 36.8484 14.4749 36.4399 14.4749Z" fill="#C84141"/>
<path d="M36.4399 18.4197H13.5601C13.1516 18.4197 12.8204 18.7508 12.8204 19.1593C12.8204 19.5679 13.1516 19.899 13.5601 19.899H36.4399C36.8484 19.899 37.1796 19.5679 37.1796 19.1593C37.1796 18.7508 36.8484 18.4197 36.4399 18.4197Z" fill="#C84141"/>
<path d="M36.4399 22.9561H32.8896C32.481 22.9561 32.1499 23.2872 32.1499 23.6957C32.1499 24.1043 32.481 24.4354 32.8896 24.4354H36.4399C36.8485 24.4354 37.1796 24.1043 37.1796 23.6957C37.1796 23.2872 36.8485 22.9561 36.4399 22.9561Z" fill="#C84141"/>
<path d="M13.5601 22.9561C13.1516 22.9561 12.8204 23.2872 12.8204 23.6957C12.8204 24.1043 13.1516 24.4354 13.5601 24.4354H17.1104C17.519 24.4354 17.8501 24.1043 17.8501 23.6957C17.8501 23.2872 17.519 22.9561 17.1104 22.9561H13.5601Z" fill="#C84141"/>
<path d="M25.0001 30.8457C22.852 30.8457 21.1045 32.5932 21.1045 34.7413C21.1045 36.8893 22.852 38.6368 25.0001 38.6368C27.1481 38.6368 28.8956 36.8893 28.8956 34.7413C28.8956 32.5932 27.1481 30.8457 25.0001 30.8457ZM25.0001 37.1575C23.6676 37.1575 22.5838 36.0734 22.5838 34.7413C22.5838 33.4088 23.6676 32.325 25.0001 32.325C26.3325 32.325 27.4163 33.4088 27.4163 34.7413C27.4163 36.0734 26.3325 37.1575 25.0001 37.1575Z" fill="#C84141"/>
<path d="M22.4854 23.6958C22.4854 25.0824 23.6134 26.2104 25 26.2104C26.3866 26.2104 27.5146 25.0824 27.5146 23.6958C27.5146 22.3092 26.3866 21.1812 25 21.1812C23.6134 21.1812 22.4854 22.3092 22.4854 23.6958ZM26.0357 23.6958C26.0357 24.2669 25.5711 24.7315 25 24.7315C24.4289 24.7315 23.9643 24.2669 23.9643 23.6958C23.9643 23.1247 24.4289 22.6601 25 22.6601C25.5711 22.6601 26.0357 23.1247 26.0357 23.6958Z" fill="#C84141"/>
</g>
<defs>
<clipPath id="clip0">
<rect width="50" height="50" fill="white"/>
</clipPath>
</defs>
</svg>
