<svg width="144" height="87" viewBox="0 0 144 87" fill="none" xmlns="http://www.w3.org/2000/svg">
<path fill-rule="evenodd" clip-rule="evenodd" d="M8.67487 45.3387C8.5814 45.3387 8.5814 45.0455 8.61735 44.6329C8.6533 44.2203 8.7264 43.6858 8.82107 43.1851C8.90251 42.7235 9.01787 42.2687 9.16619 41.8243C9.30041 41.437 9.45619 41.1342 9.56045 40.8458C9.66471 40.5575 9.71624 40.286 9.82049 40.1919C9.92475 40.0978 10.0805 40.1823 10.1369 40.3126C10.1606 40.3828 10.1664 40.458 10.1539 40.5311C10.1413 40.6042 10.1107 40.673 10.065 40.7312C9.90439 40.8964 9.79741 41.1067 9.75818 41.3344C9.67429 41.7326 9.63834 42.4432 9.54967 43.0657C9.47263 43.6036 9.3314 44.1302 9.12904 44.6341C8.95528 45.0455 8.76834 45.3387 8.67487 45.3387Z" fill="white"/>
<path fill-rule="evenodd" clip-rule="evenodd" d="M11.6552 37.8455C11.0164 37.4679 11.6911 36.0358 12.2735 34.8547C12.5288 34.3395 13.968 31.9362 15.376 29.5366C19.7404 22.0976 30.4825 13.2832 30.9474 12.9249C33.2856 11.1213 35.7316 9.46408 38.2718 7.96269C40.125 6.87877 42.0492 5.92267 44.0311 5.10097C45.3049 4.57012 45.6488 4.48688 45.9137 4.52307C46.0201 4.53161 46.1226 4.56734 46.2115 4.62687C46.3004 4.6864 46.3728 4.76777 46.4218 4.86329C46.4793 5.00928 46.4062 5.14561 46.375 5.3133C46.3439 5.481 46.3547 5.67524 46.4745 5.69937C46.5943 5.7235 46.822 5.56425 47.0737 5.41706C47.3682 5.26659 47.6489 5.09016 47.9125 4.88984C48.2133 4.64854 48.5357 4.28661 48.8712 4.02601C49.2109 3.75569 49.612 3.57452 50.0384 3.49879C50.4929 3.41886 50.9528 3.37369 51.4141 3.36367C51.6538 3.35763 51.4872 3.37935 51.3734 3.54102C51.2595 3.70268 51.196 4.00671 51.0666 4.3409C50.926 4.71541 50.7162 5.05969 50.4482 5.35553C50.1406 5.67601 49.7744 5.93368 49.3697 6.11439C49.0154 6.28309 48.633 6.38413 48.2421 6.41239C48.0085 6.41046 47.7769 6.3697 47.5566 6.29174C47.39 6.24952 47.2654 6.24952 47.2031 6.37016C47.1694 6.45455 47.1556 6.54567 47.1629 6.63634C47.1701 6.72701 47.1983 6.81473 47.245 6.89256C47.3059 6.97152 47.3826 7.0367 47.4702 7.08388C47.5577 7.13106 47.6541 7.15918 47.7531 7.16643C47.9472 7.17962 48.1422 7.17071 48.3343 7.13988C48.5632 7.11817 48.8544 7.10852 49.1732 7.09283C49.4919 7.07715 49.8335 7.05543 50.1031 6.92031C50.3727 6.78518 50.5705 6.53303 50.8149 6.22418C51.0594 5.91533 51.3482 5.54977 51.649 5.18783C51.9498 4.82589 52.2769 4.47723 52.7131 4.31194C53.1493 4.14666 53.7006 4.16717 54.2254 4.26127C54.6878 4.35271 55.1429 4.47853 55.5868 4.63769C55.8267 4.72945 56.073 4.80325 56.3238 4.85847C56.5478 4.89949 56.8175 4.9212 57.0775 5.0877C57.3376 5.25419 57.5868 5.57028 57.8313 5.87793C58.0415 6.16129 58.2722 6.42864 58.5215 6.67781C58.7288 6.86602 58.9062 6.93961 58.9062 7.00717C58.9062 7.07473 58.7288 7.13868 58.5838 7.20624C58.4467 7.25903 58.3303 7.35511 58.2519 7.4801C58.2125 7.54817 58.1874 7.62371 58.1783 7.70198C58.1693 7.78025 58.1764 7.85956 58.1992 7.93494C58.2519 8.08695 58.3861 8.21243 58.6258 8.35841C58.8655 8.50439 59.207 8.67209 59.4203 8.81445C59.5803 8.91183 59.7114 9.05055 59.8002 9.2162C59.8765 9.33446 59.9309 9.46567 59.9608 9.60347C59.9608 9.66621 59.8613 9.61433 59.7211 9.65052C59.5239 9.72302 59.3397 9.82734 59.1758 9.95938C58.9733 10.1054 58.766 10.2731 58.5419 10.3358C58.434 10.3654 58.3211 10.3724 58.2104 10.3562C58.0997 10.34 57.9935 10.301 57.8984 10.2417C57.7268 10.1151 57.5818 9.95564 57.4718 9.77238C57.3519 9.61071 57.2537 9.47438 57.2021 9.47921C57.1506 9.48403 57.1506 9.63122 57.1602 9.80978C57.1718 10.0122 57.1962 10.2137 57.2333 10.413C57.2914 10.628 57.3192 10.8502 57.316 11.0729C57.3019 11.1894 57.2623 11.3014 57.2002 11.4006C57.138 11.4999 57.0548 11.5841 56.9565 11.6472C56.6487 11.8548 56.3101 12.012 55.9535 12.1129C55.564 12.2336 55.159 12.3071 54.8426 12.2492C54.5393 12.1822 54.2711 12.0053 54.0888 11.7522C53.8815 11.5012 53.6946 11.1876 53.5064 10.9571C53.3484 10.7589 53.1524 10.5948 52.93 10.4745C52.7272 10.3655 52.5108 10.2844 52.2865 10.2332C52.0624 10.1814 51.8347 10.15 51.6622 10.1126C51.4896 10.0752 51.377 10.0342 51.486 10.0088C51.5951 9.98351 51.9282 9.97144 52.3332 9.92439C52.7865 9.87859 53.2342 9.78725 53.6694 9.65173C54.0907 9.51596 54.49 9.31883 54.8546 9.0666C55.105 8.89642 55.2928 8.64797 55.389 8.35961C55.4925 8.07385 55.5298 7.76809 55.4981 7.46563C55.4853 7.35458 55.4421 7.2493 55.3733 7.16152C55.3046 7.07375 55.2129 7.00695 55.1086 6.96857C54.5741 6.82852 54.0089 6.86705 53.498 7.07835C53.2353 7.23877 52.9899 7.42638 52.7658 7.63815C52.5166 7.84807 52.2458 8.04593 52.0277 8.21363C51.8448 8.37287 51.6402 8.50491 51.4201 8.60573C51.1563 8.70325 50.8743 8.74075 50.5944 8.71552C50.2721 8.69501 49.909 8.61056 49.7316 8.6745C49.5543 8.73844 49.5662 8.94595 49.5914 9.19207C49.6152 9.44535 49.6552 9.69682 49.7112 9.9449C49.7688 10.1693 49.8419 10.337 49.8778 10.4516C49.9138 10.5662 49.9138 10.6302 49.7951 10.6555C49.5789 10.6783 49.3606 10.673 49.1456 10.6398C48.8405 10.6136 48.5392 10.5541 48.2469 10.4625C47.982 10.3684 47.7951 10.232 47.5758 10.1536C47.3264 10.0734 47.0627 10.0487 46.8028 10.0812C46.4274 10.12 46.0566 10.1952 45.6956 10.3056C45.2594 10.4263 44.9262 11.1393 44.4589 11.3275C43.9915 11.5157 43.5649 11.7136 43.1646 11.8921C42.7644 12.0707 42.2155 11.6967 41.7949 11.9742C41.3526 12.258 40.9595 12.613 40.6313 13.025C40.3557 13.4014 43.0796 13.7573 43.1095 14.0348C43.1395 14.3123 43.2869 14.5101 43.4163 14.714C43.5457 14.9179 43.656 15.1278 43.7758 15.3269C43.8887 15.5339 44.0229 15.7284 44.1761 15.9072C44.3535 16.1075 44.558 16.2817 44.7836 16.4248C44.9702 16.5261 45.1671 16.607 45.3708 16.6661C45.5523 16.7151 45.7198 16.8065 45.8597 16.9327C45.9059 16.9802 45.9338 17.0427 45.9385 17.109C45.9431 17.1753 45.9241 17.2411 45.8849 17.2947C45.813 17.3888 45.6668 17.4298 45.4751 17.6445C45.231 17.9396 45.0316 18.2693 44.8831 18.623C44.7423 18.9368 44.656 19.2727 44.6278 19.6159C44.6182 19.8668 44.6806 20.0032 44.8519 20.0767C45.0771 20.1542 45.3208 20.158 45.5482 20.0876C45.7895 20.0185 45.9943 19.857 46.1186 19.6376C46.2384 19.418 46.2696 19.1357 46.405 18.7931C46.5404 18.4504 47.1803 18.5337 47.4715 18.2465C47.7627 17.9594 47.9041 17.928 48.3619 17.7241C48.8197 17.5203 49.6381 17.2235 50.0336 16.9617C50.4291 16.6999 50.1966 15.8481 50.3536 15.4512C50.5105 15.0543 50.6028 14.5512 50.7322 14.1482C50.8617 13.7452 48.2217 13.4424 48.4446 13.1336C48.6675 12.8247 48.9491 13.218 49.2715 12.9719C49.5938 12.7258 49.9569 11.8415 50.32 11.7268C50.6621 11.6087 51.0257 11.5675 51.3853 11.6062C51.7197 11.6601 52.0367 11.7928 52.3105 11.9935C52.569 12.1671 52.7882 12.3936 52.954 12.6582C53.0769 12.8754 53.1141 13.1313 53.0582 13.3749C53.0115 13.6415 55.7042 13.9552 55.6623 14.2532C55.6203 14.5512 55.6515 14.8335 55.7821 14.9481C55.9127 15.0627 56.1248 15.0108 56.3693 14.9481C56.6273 14.8921 56.8822 14.8221 57.1326 14.7382C57.3752 14.657 57.6022 14.5346 57.8037 14.3762C57.9955 14.2194 58.1512 14.0215 58.2831 13.9117C58.4149 13.802 58.5323 13.7802 58.5994 13.8176C58.6665 13.855 58.6881 13.9479 58.7612 14.141C58.8343 14.334 58.9577 14.6235 59.062 14.8998C59.1694 15.1309 59.2277 15.3819 59.2334 15.637C59.2178 15.8517 59.1039 16.0291 59.0308 16.2402C58.9521 16.4591 58.9307 16.6946 58.9685 16.9243C59.009 17.1633 59.1235 17.3833 59.2957 17.5528C59.467 17.7145 59.6959 17.8086 59.95 17.9654C60.2364 18.1506 60.5094 18.3558 60.7672 18.5795C61.0477 18.8148 61.3281 19.0621 61.5198 19.2395C61.7115 19.4168 61.817 19.5061 61.8577 19.6569C61.8916 19.8446 61.8863 20.0372 61.8422 20.2227C61.8055 20.4329 61.7497 20.6393 61.6756 20.8392C61.594 21.0621 61.4971 21.279 61.3856 21.4883C61.2697 21.6771 61.1722 21.8767 61.0944 22.0843C61.0262 22.2898 61.0101 22.5092 61.0477 22.7225C61.0701 22.8021 61.1097 22.8758 61.1635 22.9383C61.2174 23.0008 61.2842 23.0507 61.3592 23.0844C61.5258 23.1834 61.503 23.2051 61.7056 23.2558C62.5228 23.4669 62.2364 23.3137 62.4749 24.1196C62.6618 24.7518 62.1777 24.5925 62.5264 24.864C62.8752 25.1354 62.7829 25.6216 62.663 25.6892C62.5432 25.7568 62.3563 25.6421 62.1286 25.501C61.9009 25.3598 62.0675 24.8386 61.7307 24.7192C61.3397 24.5886 60.9321 24.5147 60.5204 24.4996C60.0518 24.4731 60.3083 24.5057 59.9128 24.4839C59.5174 24.4622 59.2585 24.4007 59.1938 24.3488C59.1291 24.2969 59.2669 24.2547 59.5162 23.9869C59.7654 23.719 58.905 23.5694 59.1698 23.2039C59.4347 22.8383 59.6012 22.6007 59.7462 22.3594C59.8912 22.1181 59.9859 22.445 60.0926 22.2315C60.5336 21.3218 60.2196 21.5595 59.0033 21.925C58.6185 22.0619 58.2222 22.1636 57.8193 22.2291C57.3771 22.2809 56.3046 21.1722 55.7953 21.1517C54.9001 21.1143 56.3154 22.1507 53.8084 22.0348C53.4717 22.0191 53.1277 22.0614 52.8941 22.1977C52.6954 22.3191 52.5492 22.5111 52.4842 22.7358C52.4327 22.9083 52.4531 23.0229 52.5777 23.0543C52.7023 23.0857 52.9372 23.0338 53.1769 23.0181C53.4173 22.9975 53.6594 23.0258 53.8887 23.1013C54.0972 23.1798 54.2482 23.3161 54.2734 23.4259C54.2985 23.5357 54.1799 23.6201 54.0601 23.719C53.908 23.8458 53.7691 23.9876 53.6454 24.1425C53.4463 24.3695 53.2878 24.6295 53.1769 24.911C53.1406 25.0253 53.1345 25.1471 53.1591 25.2645C53.1837 25.3819 53.2381 25.4908 53.3171 25.5806C53.5117 25.8099 53.7362 26.0116 53.9846 26.1802C54.2446 26.3684 54.5154 26.5422 54.7803 26.594C55.0365 26.6283 55.2967 26.5729 55.5173 26.4372C55.719 26.3156 55.9026 26.1657 56.0625 25.992C56.2291 25.8243 56.3957 25.647 56.5143 25.6627C56.6329 25.6783 56.7072 25.8871 56.7432 26.0753C56.7769 26.1726 56.7727 26.2792 56.7313 26.3735C56.6899 26.4678 56.6145 26.5427 56.5203 26.5832C56.2602 26.7352 55.7414 26.8703 55.2632 27.0115C54.7851 27.1526 54.3489 27.2998 53.8504 27.4675C53.3518 27.6352 52.7898 27.8222 52.4051 28.0575C52.0205 28.2927 51.8132 28.5763 51.6526 28.633C51.492 28.6897 51.377 28.5232 51.2931 28.3301C51.1949 28.1453 51.1532 27.9355 51.1732 27.7269C51.2092 27.5339 51.3446 27.365 51.365 27.2443C51.3853 27.1237 51.2931 27.0344 51.1061 27.0501C50.8417 27.102 50.585 27.1884 50.3428 27.3071C50.0331 27.4468 49.7154 27.5677 49.3913 27.669C49.0486 27.7679 48.6723 27.8307 48.29 27.9718C47.9027 28.1121 47.5411 28.3159 47.2199 28.575C46.9618 28.7826 46.7629 29.0553 46.6435 29.3653C46.5452 29.6367 46.5344 29.9094 46.4457 30.0445C46.3571 30.1796 46.1917 30.1808 45.9736 30.1652C45.7201 30.1389 45.4641 30.1532 45.215 30.2074C44.9442 30.281 44.6746 30.4487 44.3211 30.7093C43.9675 30.9699 43.5313 31.327 43.2042 31.6093C42.877 31.8916 42.6589 32.1003 42.4253 32.3332C42.1916 32.566 41.9459 32.8302 41.7063 32.9509C41.4666 33.0715 41.2389 33.0498 41.0052 33.1596C40.7433 33.308 40.5165 33.5118 40.3401 33.7568C40.149 33.9813 40.0139 34.2485 39.9459 34.5362C39.8883 34.8185 39.9195 35.1321 39.8991 35.4084C39.8875 35.6799 39.7929 35.9411 39.6283 36.1564C39.3897 36.4331 39.106 36.6669 38.7895 36.8477C38.4108 37.089 37.9326 37.3496 37.5012 37.5897C37.0698 37.8298 36.6863 38.0506 36.2178 38.3136C35.7068 38.5924 35.2126 38.9014 34.7378 39.2389C34.3175 39.5369 33.9525 39.9069 33.6593 40.332C33.4664 40.6449 33.3259 40.9877 33.2435 41.3466C33.1704 41.6241 33.1296 41.8123 33.0769 42.0838C33.0058 42.4301 32.9657 42.7822 32.9571 43.1358C32.9571 43.5593 33.0038 44.0503 33.0254 44.4629C33.047 44.8755 32.7246 44.6342 32.6886 44.9322C32.6527 45.2302 32.9008 46.0639 32.7809 46.38C32.665 46.695 32.5095 46.9938 32.3184 47.2691C32.153 47.4887 31.9972 47.5719 31.8091 47.5406C31.6209 47.5092 31.0481 46.4705 30.9187 46.304C30.6131 45.9107 31.126 45.7128 31.1811 45.2399C31.2362 44.7669 31.3213 44.2252 31.3633 43.7499C31.4079 43.339 31.4027 42.9241 31.3477 42.5145C31.2902 42.1851 31.1763 41.9559 31.0145 41.8352C30.8528 41.7146 30.6455 41.7037 30.4274 41.6989C30.2082 41.7077 29.9891 41.6821 29.7778 41.6229C29.5705 41.5505 29.3836 41.4033 29.0588 41.2465C28.7007 41.0832 28.3324 40.9434 27.9564 40.8278C27.6975 40.7482 27.6472 40.7506 27.6412 40.6457C27.6112 40.1631 27.6951 40.3428 27.9899 40.104C28.6658 39.5574 28.1157 38.5452 28.4477 38.275C29.1044 38.0494 30.8851 37.7924 29.99 37.3484C28.9114 36.8164 29.0504 37.8539 28.4165 37.0251C28.0858 36.5908 27.1499 37.305 26.933 37.6223C26.8227 37.7839 25.8257 38.8468 24.9808 39.7372C24.6377 40.1108 24.2588 40.4495 23.8496 40.7482C23.5141 40.782 23.1414 41.0836 22.7831 41.1681C22.4288 41.2425 22.0886 41.3732 21.7753 41.5553C21.4793 41.7387 18.3707 41.9993 18.0855 42.418C17.8003 42.8366 17.5295 43.4121 17.2599 43.9562C16.9902 44.5003 16.7158 45.007 16.4761 45.4619C16.2365 45.9167 15.811 45.9288 15.6181 46.3136C15.4252 46.6985 15.4659 47.105 15.3041 47.2908C15.1424 47.4766 14.9938 47.4778 14.1837 47.4778C13.3736 47.4778 11.9068 47.4778 11.2178 47.4115C10.5287 47.3451 10.6378 47.2136 10.7384 46.906C10.8953 46.5444 10.9917 46.1592 11.0236 45.7659C11.1015 45.0601 11.1531 44.1287 11.1842 43.4012C11.2154 42.6737 11.2262 42.1513 11.2621 41.6181C11.2981 41.0848 12.3298 40.081 12.5803 40.3501C13.3185 41.1512 12.633 38.0457 13.0297 37.0468C13.1495 36.7331 13.207 36.4822 13.1759 36.2831C13.1637 36.1992 13.1343 36.1187 13.0895 36.0468C13.0448 35.9749 12.9856 35.9132 12.9158 35.8657C12.796 35.7921 12.6869 35.7921 12.6354 35.8753C12.5839 35.9586 12.5935 36.1263 12.5419 36.3579C12.4733 36.6226 12.3794 36.88 12.2615 37.1264C12.1417 37.3677 12.0326 37.5716 11.9392 37.7393C11.8457 37.907 11.757 37.9058 11.6552 37.8455Z" fill="white"/>
<path fill-rule="evenodd" clip-rule="evenodd" d="M55.7737 1.97731C56.4028 1.20879 56.4232 1.76497 57.5473 1.53454C58.0434 1.4332 56.6461 -0.0338592 58.9853 0.441486C59.5473 0.558512 61.1447 -7.83361e-05 62.373 -7.83361e-05C63.5486 -7.83361e-05 64.5708 -0.0217946 65.623 0.431834C66.0472 0.614009 68.2246 0.311188 68.5613 0.0698963C68.801 -0.099008 70.813 0.375131 71.3583 0.375131C71.8376 0.375131 73.308 0.190542 73.1115 0.749133C72.6022 2.19688 74.2655 1.68293 74.504 2.85682C74.504 2.85682 75.0732 3.53967 75.1654 3.80389C75.374 4.40712 76.3854 5.97551 75.7646 6.25179C75.1439 6.52807 75.6927 6.40984 74.8754 6.52325C71.8089 6.94792 71.8089 8.65265 69.8076 8.81552C68.7926 8.89635 67.7848 10.2705 67.7093 11.2972C67.6925 11.5156 67.2599 12.7088 66.7746 12.7088C65.6074 12.7088 67.224 12.05 64.711 12.05C63.3041 12.05 62.8715 10.431 62.2832 9.42237C61.9236 8.8119 62.1633 7.08546 63.2826 6.77781C63.9045 6.6077 64.4426 6.28075 63.4024 6.37003C62.7937 6.42311 62.5288 5.8428 62.8727 5.22148C63.0022 4.98742 63.3772 3.72426 63.2047 3.3575C62.7481 2.38509 61.7882 2.88215 60.7385 2.37665C60.4748 2.24997 60.0974 2.22825 60.5743 1.62864C60.9014 1.21845 61.3832 1.36925 60.0626 1.40907C59.3436 1.43199 57.4909 2.52987 56.452 2.20533C56.3645 2.17758 55.3734 1.85666 55.8911 1.67087C55.9423 1.65991 55.9949 1.65746 56.0469 1.66363L55.7737 1.97731Z" fill="white"/>
<path fill-rule="evenodd" clip-rule="evenodd" d="M73.3655 8.14849C74.2235 7.85653 73.9359 7.28467 75.9611 7.28467C76.9749 7.28467 77.809 8.37048 76.9869 8.71794C76.0654 9.10883 74.7556 9.48404 73.7789 8.9713C73.7789 8.9713 73.6591 8.7481 73.0743 8.43804C72.8442 8.3174 73.1198 8.23174 73.3655 8.14849Z" fill="white"/>
<path fill-rule="evenodd" clip-rule="evenodd" d="M101.475 15.5379C97.3853 15.5379 102.305 12.6014 98.4314 12.763C97.3122 12.8113 98.3116 14.8719 94.556 11.3937C94.5294 11.3698 94.5046 11.344 94.4817 11.3165C94.8807 10.7772 94.2552 10.0123 94.5092 9.48027C94.6758 9.12919 94.8004 9.38738 94.7872 9.23898C94.3978 9.13643 94.1641 9.25949 93.8945 8.86498C93.4535 8.22314 93.4751 9.03509 92.949 8.30277C92.5798 7.7582 92.1262 7.27675 91.6056 6.87673C91.1035 6.49187 90.9729 5.9743 90.9429 5.41692C91.0196 5.30472 91.1586 5.33367 91.3204 5.65821C91.5026 6.02739 92.0155 5.97913 91.8321 5.80781C91.8249 5.80781 91.6296 5.49655 91.9184 5.49655C91.9028 5.30593 92.2336 5.41571 92.2647 4.87281C92.2743 4.70631 92.3953 4.64599 92.5595 4.63151C94.4996 4.92468 96.3056 5.47604 95.5422 4.47709C95.2642 4.11515 95.9125 3.94504 96.6099 4.10429C98.2972 4.48795 101.553 6.13718 104.505 7.79123C108.989 10.3079 113.822 14.1155 114.111 14.3652C116.733 16.6394 117.655 17.4441 119.863 19.6905C127.332 27.2912 133.601 38.2784 135.972 47.4837C135.972 47.4837 135.874 47.1495 131.888 47.2424C131.495 47.2509 131.066 47.2642 130.595 47.2823C129.876 46.6006 129.125 45.7139 129.003 45.7139C127.621 45.7139 126.669 44.9417 126.494 46.0143C126.448 46.3038 124.974 46.6103 124.503 45.0394C124.369 44.5919 122.396 44.3083 122.396 44.9043C122.396 46.2049 120.635 45.7139 119.114 45.7139C117.998 45.7139 115.399 45.5799 114.911 46.5584C112.314 46.0758 110.254 45.4484 109.346 44.7825C108.078 43.8535 99.915 48.2872 99.915 46.79C99.915 44.067 102.749 47.3932 102.409 39.3848C102.361 38.264 105.022 35.7654 103.367 34.5372C103.65 34.045 101.038 31.7032 100.751 31.1591C99.9761 31.3787 99.5531 30.6271 99.3134 30.2278C98.6567 28.4736 98.1966 26.7182 98.9024 26.5734C99.661 26.4178 105.872 28.1997 102.198 24.0193C101.246 22.9335 95.5614 22.7984 100.221 19.8993C101.642 19.0149 99.0618 15.4028 105.055 15.2978C105.768 15.2858 108.395 14.5317 106.013 14.0431C103.426 13.5123 106.048 12.6243 103.146 11.898C101.846 11.5723 100.406 10.7784 99.8359 9.73604C99.5985 9.33355 99.2992 8.97153 98.9491 8.6635C98.6795 8.00839 98.3368 7.39189 98.2301 7.38948C97.0198 7.36173 97.6849 6.47136 97.3913 6.32659C96.6986 5.97792 96.6159 6.84175 96.2576 7.30503C96.1479 7.28948 96.0376 7.27942 95.9269 7.27487C95.6177 7.26521 95.4595 7.1699 95.8849 7.5053C96.7825 8.21349 96.568 10.2415 99.7341 11.3032C100.669 11.6169 105.06 14.3881 101.481 15.5379H101.475ZM103.741 39.357C103.741 39.5657 103.707 39.4921 103.808 39.7684C104.585 41.8809 108.181 37.8755 109.84 37.9467C111.289 38.0094 112.549 36.4289 112.985 37.8393C113.585 39.7841 113.168 38.3146 113.981 39.6671C115.495 42.1838 115.6 40.5213 116.868 41.2355C117.947 41.8387 116.68 41.2524 117.885 41.9895C121.131 43.9741 118.717 41.782 119.324 40.6419C120.267 38.8781 119.923 40.1316 120.813 40.1593C122.277 40.2076 121.187 40.9061 123.165 40.5816C124.351 40.3861 121.821 35.3938 121.349 35.4107C119.115 35.4988 119.926 35.2128 118.832 34.9607C118.529 34.8907 116.869 32.888 116.864 32.8771C116.493 32.0037 115.595 32.8976 116.815 33.9412C117.503 34.5288 118.474 37.4339 118.155 36.9791C117.062 35.4203 115.914 35.5145 115.182 33.7217C114.681 32.4983 112.003 30.9468 110.868 30.6814C110.369 30.5607 108.897 29.7741 108.931 30.0118C109.128 31.3473 110.929 32.0459 111.8 32.5586C112.498 32.97 113.858 33.3283 113.902 33.6324C114.012 34.3816 113.355 34.1234 113.332 34.1041C112.334 33.2403 111.414 33.5708 110.336 32.9857C110.132 32.8747 109.299 30.8865 107.762 31.7949C106.846 32.3354 105.517 32.064 105.725 32.6576C106.39 34.5384 106.234 33.0448 105.622 34.3876C105.149 35.4252 105.35 35.9681 105.885 37.0105C106.771 38.7272 103.836 37.7995 103.741 39.357Z" fill="white"/>
<path fill-rule="evenodd" clip-rule="evenodd" d="M12.3697 80.2668H10.9928L7.86507 85.3171L4.7206 80.2668H3.34369V86.1857H3.992V80.7434H4.3515L7.69371 86.1857H8.02446L11.3655 80.7434H11.725V86.1857H12.3685V80.2668H12.3697ZM13.3284 84.6016C13.3219 84.4664 13.3478 84.3316 13.4039 84.2086C13.46 84.0855 13.5446 83.9779 13.6507 83.8947C13.8904 83.7077 14.2427 83.6136 14.7089 83.6136H17.2937C17.6053 83.6136 17.8318 83.6679 17.9756 83.7752C18.0317 83.8198 18.0751 83.8784 18.1014 83.9453V83.3662C18.1063 83.2543 18.0874 83.1426 18.0461 83.0386C18.0048 82.9346 17.9419 82.8407 17.8617 82.763C17.6716 82.5877 17.392 82.5 17.0229 82.5H15.3128C14.8587 82.5 14.5387 82.5917 14.3542 82.7727C14.2846 82.8489 14.2381 82.9435 14.2199 83.0453V83.1985H13.5584V83.0453C13.4937 82.804 13.6244 82.5567 13.9515 82.313C14.2383 82.0974 14.6378 81.9897 15.1499 81.9897H17.0888C17.6664 81.9897 18.0922 82.1196 18.3662 82.3794C18.6227 82.6206 18.7509 82.9826 18.7509 83.4652V86.1845H18.1074V85.8431C18.052 85.9079 17.9888 85.9654 17.9193 86.0144C17.7405 86.1292 17.5321 86.1883 17.3201 86.1845H14.8179C14.329 86.1845 13.9595 86.0977 13.7094 85.9239C13.4594 85.7502 13.336 85.4795 13.3392 85.112V84.6016H13.3284ZM14.9413 84.1191C14.5519 84.1191 14.293 84.1649 14.1648 84.259C14.0965 84.3158 14.0431 84.3886 14.0094 84.4711C13.9758 84.5536 13.9629 84.6432 13.9719 84.7319V85.0384C13.9642 85.1222 13.9775 85.2067 14.0106 85.284C14.0437 85.3614 14.0955 85.4291 14.1612 85.4812C14.3162 85.5946 14.5762 85.6513 14.9413 85.6513H17.1307C17.7771 85.6513 18.1002 85.3959 18.1002 84.8852C18.1094 84.7764 18.0925 84.6669 18.0508 84.5661C18.009 84.4653 17.9438 84.3761 17.8605 84.3061C17.7 84.1854 17.4567 84.1191 17.1343 84.1191H14.9413ZM21.6521 81.9812H23.3861C24.0404 81.9812 24.5286 82.1453 24.8505 82.4735C25.1253 82.7566 25.2624 83.1422 25.2616 83.6305V84.5474C25.2616 85.0637 25.1166 85.4594 24.8242 85.7381C24.509 86.0434 24.0285 86.1966 23.3861 86.1966H21.6533C21.3012 86.2089 20.9522 86.1256 20.6431 85.9553C20.541 85.8871 20.448 85.806 20.3663 85.714V87.8941H19.7228V81.9873H20.3663V82.4385C20.445 82.3512 20.5354 82.2753 20.6347 82.2129C20.9306 82.0526 21.2636 81.9747 21.5994 81.9873L21.6521 81.9812ZM20.3651 83.6305L20.3291 84.0889L20.3651 84.5474C20.3579 84.6971 20.3828 84.8467 20.438 84.9859C20.4932 85.1252 20.5774 85.2508 20.6851 85.3545C20.9247 85.5757 21.2718 85.6858 21.7264 85.685H23.1644C23.651 85.685 24.0165 85.5946 24.2585 85.4148C24.5006 85.235 24.618 84.9431 24.618 84.5474V83.6305C24.618 83.2456 24.4982 82.9585 24.2442 82.7715C23.9901 82.5845 23.633 82.4916 23.1585 82.4916H21.7372C21.2794 82.4916 20.9367 82.5949 20.709 82.8016C20.5954 82.9063 20.5058 83.0347 20.4466 83.1779C20.3874 83.321 20.36 83.4755 20.3663 83.6305H20.3651ZM26.1735 86.1797V81.9812H26.817V83.5737H27.5145L29.8369 81.9812H30.8651L28.0789 83.8488L31.0999 86.1821H30.17L27.5061 84.0901H26.8182V86.1857L26.1735 86.1797ZM31.6248 81.9812H32.2731V85.6682H35.7136V81.9873H36.3475V85.6742H39.788V81.9873H40.4315V86.1857H31.626V81.9873L31.6248 81.9812ZM46.3502 83.6075C46.3581 83.4542 46.3344 83.3008 46.2806 83.1571C46.2268 83.0135 46.144 82.8825 46.0374 82.7727C45.9189 82.6656 45.7805 82.5833 45.63 82.5307C45.4796 82.4781 45.3203 82.4561 45.1614 82.4662H43.1434C42.993 82.4597 42.8428 82.4834 42.7017 82.536C42.5605 82.5886 42.4312 82.6691 42.3213 82.7727C42.2148 82.8825 42.132 83.0135 42.0781 83.1571C42.0243 83.3008 42.0006 83.4542 42.0085 83.6075H46.3502ZM42.0073 84.1191V84.5268C42.0073 84.9354 42.1236 85.2366 42.3561 85.4305C42.5582 85.601 42.8502 85.6858 43.2321 85.685H45.3352C45.6747 85.685 45.9296 85.6127 46.0997 85.4679C46.1808 85.4019 46.2458 85.3182 46.2899 85.223C46.3339 85.1279 46.3558 85.0239 46.3538 84.9189V84.8333H46.9973V84.9189C46.9997 85.0732 46.9717 85.2264 46.9149 85.3697C46.8581 85.513 46.7737 85.6435 46.6665 85.7538C46.3877 86.049 45.9739 86.1966 45.425 86.1966H43.2596C41.9966 86.1966 41.365 85.6686 41.365 84.6125V83.511C41.3637 83.3093 41.4058 83.1097 41.4886 82.9259C41.5713 82.7422 41.6927 82.5788 41.8444 82.4469C42.1951 82.1252 42.6596 81.9643 43.2381 81.9643H45.0955C45.7027 81.9643 46.1764 82.1119 46.5167 82.4071C46.6696 82.5324 46.7921 82.691 46.8751 82.871C46.9582 83.0509 46.9995 83.2475 46.9961 83.4459V84.1275L42.0073 84.1191ZM47.9404 86.1797V81.9812H48.5839V85.7019H48.79L52.427 81.9812H53.4983V86.1797H52.856V82.4638H52.6763L49.0405 86.1857L47.9404 86.1797ZM50.5588 81.1632H50.6391C51.14 81.1632 51.4691 81.115 51.6265 81.0185C51.7839 80.9219 51.8638 80.749 51.8662 80.4997H52.3839C52.3839 80.9075 52.2832 81.1922 52.0807 81.3502C51.8187 81.5553 51.3213 81.6579 50.5887 81.6579C49.8793 81.6579 49.3968 81.5586 49.1411 81.3599C48.9262 81.195 48.8188 80.9083 48.8188 80.4997H49.3377C49.3285 80.5993 49.3459 80.6995 49.388 80.79C49.4301 80.8806 49.4955 80.9582 49.5773 81.0149C49.7371 81.1138 50.0663 81.1632 50.5648 81.1632H50.5588ZM54.753 85.6682C54.995 85.5397 55.1802 85.3244 55.2719 85.0649C55.3867 84.7424 55.4411 84.4012 55.4325 84.0587V81.9873H60.3146V85.6742H60.8323V87.7867H60.2163V86.1857H55.0286V87.7867H54.4115V85.6742L54.753 85.6682ZM59.6771 85.6682V82.4976H56.0736V83.9924C56.0798 84.3066 56.0468 84.6203 55.9753 84.9262C55.8795 85.2954 55.7249 85.5439 55.5104 85.6742L59.6771 85.6682ZM66.5304 83.6075C66.5384 83.4542 66.5147 83.3008 66.4608 83.1571C66.407 83.0135 66.3242 82.8825 66.2177 82.7727C66.0993 82.6657 65.961 82.5835 65.8109 82.5309C65.6607 82.4783 65.5016 82.4563 65.3429 82.4662H63.3201C63.1697 82.4597 63.0195 82.4834 62.8783 82.536C62.7372 82.5886 62.6079 82.6691 62.498 82.7727C62.3914 82.8825 62.3086 83.0135 62.2548 83.1571C62.201 83.3008 62.1773 83.4542 62.1852 83.6075H66.5304ZM62.1876 84.1191V84.5268C62.1876 84.9354 62.3038 85.2366 62.5363 85.4305C62.7384 85.601 63.0304 85.6858 63.4123 85.685H65.5118C65.8522 85.685 66.111 85.6127 66.2764 85.4679C66.3575 85.4019 66.4225 85.3182 66.4665 85.223C66.5106 85.1279 66.5324 85.0239 66.5304 84.9189V84.8333H67.1739V84.9189C67.1763 85.0732 67.1483 85.2264 67.0915 85.3697C67.0348 85.513 66.9504 85.6435 66.8432 85.7538C66.5636 86.049 66.1498 86.1966 65.6017 86.1966H63.4363C62.1732 86.1966 61.5417 85.6686 61.5417 84.6125V83.511C61.5403 83.3093 61.5825 83.1097 61.6652 82.9259C61.748 82.7422 61.8694 82.5788 62.021 82.4469C62.3717 82.1252 62.8363 81.9643 63.4147 81.9643H65.2734C65.8813 81.9643 66.3551 82.1119 66.6946 82.4071C66.8474 82.5324 66.97 82.691 67.053 82.871C67.136 83.0509 67.1774 83.2475 67.1739 83.4459V84.1275L62.1876 84.1191ZM69.9973 81.9812H71.7313C72.3872 81.9812 72.8757 82.1453 73.1969 82.4735C73.4709 82.7566 73.6079 83.1422 73.6079 83.6305V84.5474C73.6079 85.0637 73.4617 85.4594 73.1705 85.7381C72.851 86.043 72.3716 86.1958 71.7325 86.1966H69.9949C69.6431 86.2089 69.2946 86.1255 68.9859 85.9553C68.8833 85.8877 68.7902 85.8065 68.709 85.714V87.8941H68.0655V81.9873H68.709V82.4385C68.7874 82.3513 68.8773 82.2753 68.9763 82.2129C69.2726 82.0526 69.606 81.9747 69.9421 81.9873L69.9973 81.9812ZM68.7114 83.6305L68.6755 84.0889L68.7114 84.5474C68.704 84.6971 68.7288 84.8468 68.784 84.986C68.8392 85.1253 68.9236 85.251 69.0314 85.3545C69.2711 85.5753 69.615 85.685 70.0728 85.685H71.5108C71.9985 85.685 72.3628 85.5946 72.6061 85.4148C72.8493 85.235 72.9656 84.9431 72.9656 84.5474V83.6305C72.9656 83.2456 72.8458 82.9585 72.5917 82.7715C72.3377 82.5845 71.9817 82.4916 71.506 82.4916H70.0788C69.6218 82.4916 69.2794 82.5949 69.0518 82.8016C68.9379 82.9061 68.8482 83.0345 68.789 83.1777C68.7298 83.3209 68.7025 83.4755 68.709 83.6305H68.7114ZM76.2167 82.4662C75.8356 82.4662 75.5408 82.5599 75.3323 82.7473C75.1238 82.9343 75.0196 83.2106 75.0196 83.5737V84.6294C75.0124 84.7753 75.0384 84.921 75.0957 85.0553C75.1531 85.1895 75.2401 85.3088 75.3503 85.4039C75.5811 85.5954 75.8735 85.6953 76.1724 85.685H78.1377C78.617 85.685 78.9597 85.5644 79.1659 85.3231C79.295 85.1747 79.365 84.9835 79.3624 84.7862V84.7018H80.0059V84.7693C80.0113 85.0648 79.9167 85.3533 79.7375 85.5873C79.4283 85.9951 78.8982 86.1994 78.1473 86.2002H76.1616C75.5592 86.2002 75.1106 86.0627 74.8158 85.7876C74.521 85.5125 74.3737 85.1277 74.3737 84.633V83.5774C74.3632 83.3648 74.3977 83.1524 74.4747 82.9542C74.5518 82.7561 74.6696 82.5766 74.8206 82.4276C75.1402 82.1155 75.6048 81.9595 76.2143 81.9595H78.1628C78.7285 81.9595 79.1679 82.0802 79.481 82.3214C79.644 82.438 79.7764 82.5927 79.8668 82.7721C79.9571 82.9516 80.0029 83.1505 79.9999 83.3518V83.4205H79.3564V83.3711C79.362 83.2419 79.3356 83.1134 79.2795 82.9972C79.2235 82.8809 79.1395 82.7805 79.0352 82.7051C78.8211 82.5442 78.5231 82.4638 78.1413 82.4638L76.2167 82.4662ZM80.9167 86.1797V81.9812H81.5602V83.5737H82.2576L84.5812 81.9812H85.6082L82.8184 83.8488L85.8395 86.1857H84.9108L82.2444 84.0901H81.5554V86.1857L80.9167 86.1797ZM86.4578 86.1797V81.9812H87.1014V85.7019H87.3063L90.9433 81.9812H92.0158V86.1797H91.3723V82.4638H91.1937L87.5567 86.1857L86.4578 86.1797ZM97.962 83.6075C97.97 83.4542 97.9463 83.3008 97.8924 83.1571C97.8386 83.0135 97.7558 82.8825 97.6493 82.7727C97.5306 82.6659 97.3921 82.5838 97.2417 82.5312C97.0913 82.4786 96.9321 82.4565 96.7733 82.4662H94.7564C94.606 82.4597 94.4559 82.4834 94.3147 82.536C94.1736 82.5886 94.0442 82.6691 93.9344 82.7727C93.8278 82.8825 93.745 83.0135 93.6912 83.1571C93.6374 83.3008 93.6137 83.4542 93.6216 83.6075H97.962ZM93.6192 84.1191V84.5268C93.6192 84.9354 93.7354 85.2366 93.9679 85.4305C94.17 85.601 94.4616 85.6858 94.8427 85.685H96.9434C97.2826 85.685 97.5426 85.6127 97.7068 85.4679C97.7882 85.4022 97.8536 85.3185 97.8978 85.2233C97.9421 85.1281 97.9641 85.024 97.962 84.9189V84.8333H98.6056V84.9189C98.6079 85.0732 98.5799 85.2264 98.5231 85.3697C98.4664 85.513 98.382 85.6435 98.2748 85.7538C97.9944 86.049 97.5802 86.1966 97.0321 86.1966H94.8751C93.612 86.1966 92.9805 85.6686 92.9805 84.6125V83.511C92.9788 83.3092 93.0208 83.1095 93.1036 82.9257C93.1864 82.742 93.3079 82.5786 93.4598 82.4469C93.8105 82.1252 94.2751 81.9643 94.8535 81.9643H96.7121C97.3193 81.9643 97.7927 82.1119 98.1322 82.4071C98.2851 82.5323 98.4078 82.6909 98.4908 82.8708C98.5739 83.0508 98.6152 83.2474 98.6115 83.4459V84.1275L93.6192 84.1191ZM104.27 81.9812H106.004C106.66 81.9812 107.149 82.1453 107.47 82.4735C107.743 82.7566 107.88 83.1422 107.881 83.6305V84.5474C107.881 85.0637 107.735 85.4594 107.442 85.7381C107.127 86.043 106.648 86.1958 106.004 86.1966H104.273C103.921 86.209 103.572 86.1257 103.264 85.9553C103.161 85.8874 103.067 85.8063 102.986 85.714V87.8941H102.343V81.9873H102.986V82.4385C103.065 82.3515 103.155 82.2756 103.254 82.2129C103.548 82.0536 103.879 81.9757 104.213 81.9873L104.27 81.9812ZM102.983 83.6305L102.948 84.0889L102.983 84.5474C102.976 84.6972 103.001 84.8469 103.056 84.9861C103.112 85.1254 103.196 85.251 103.304 85.3545C103.544 85.5753 103.888 85.685 104.344 85.685H105.782C106.269 85.685 106.635 85.5946 106.877 85.4148C107.119 85.235 107.242 84.9431 107.242 84.5474V83.6305C107.242 83.2456 107.116 82.9585 106.868 82.7715C106.62 82.5845 106.257 82.4916 105.782 82.4916H104.356C103.899 82.4916 103.556 82.5949 103.328 82.8016C103.215 82.9063 103.125 83.0347 103.066 83.1779C103.007 83.321 102.979 83.4755 102.986 83.6305H102.983ZM108.703 84.5956C108.696 84.4604 108.722 84.3256 108.778 84.2025C108.834 84.0795 108.919 83.9718 109.025 83.8886C109.265 83.7016 109.617 83.6075 110.083 83.6075H112.667C112.979 83.6075 113.205 83.6618 113.349 83.7692C113.403 83.8145 113.444 83.8731 113.469 83.9393V83.3662C113.473 83.2544 113.454 83.1428 113.413 83.0388C113.372 82.9348 113.309 82.8409 113.229 82.763C113.039 82.5881 112.759 82.5 112.39 82.5H110.684C110.23 82.5 109.91 82.5917 109.725 82.7727C109.656 82.8489 109.609 82.9435 109.591 83.0453V83.1985H108.929V83.0453C108.863 82.804 108.995 82.5567 109.322 82.313C109.609 82.0974 110.009 81.9897 110.521 81.9897H112.46C113.039 81.9897 113.465 82.1196 113.738 82.3794C113.995 82.6206 114.123 82.9826 114.122 83.4652V86.1845H113.479V85.8431C113.424 85.9079 113.361 85.9654 113.291 86.0144C113.113 86.1292 112.904 86.1883 112.692 86.1845H110.188C109.7 86.1845 109.331 86.0977 109.08 85.9239C108.829 85.7502 108.704 85.4791 108.705 85.1108V84.6004L108.703 84.5956ZM110.316 84.113C109.926 84.113 109.668 84.1589 109.539 84.253C109.471 84.3097 109.418 84.3826 109.384 84.4651C109.35 84.5476 109.337 84.6372 109.346 84.7259V85.0324C109.339 85.1161 109.352 85.2004 109.385 85.2777C109.418 85.355 109.469 85.4228 109.535 85.4751C109.69 85.5885 109.951 85.6452 110.316 85.6452H112.505C113.152 85.6452 113.475 85.3899 113.475 84.8791C113.484 84.7703 113.467 84.661 113.425 84.5602C113.383 84.4594 113.318 84.3702 113.235 84.3C113.074 84.1794 112.831 84.113 112.509 84.113H110.316ZM120.649 84.5208C120.649 85.0098 120.506 85.3987 120.22 85.6875C119.887 86.0229 119.387 86.1905 118.72 86.1905H116.952C116.313 86.1905 115.834 86.047 115.514 85.7599C115.195 85.4727 115.035 85.0625 115.035 84.5293V82.9319C115.035 82.3359 115.16 81.8505 115.41 81.4757C115.709 81.0277 116.156 80.8037 116.751 80.8037H118.708C119.149 80.8037 119.453 80.7627 119.623 80.6831C119.703 80.6489 119.77 80.591 119.816 80.5172C119.861 80.4434 119.883 80.3573 119.879 80.2705H120.388C120.388 80.6505 120.268 80.9207 120.017 81.08C119.765 81.2392 119.365 81.3213 118.8 81.3213H116.914C116.492 81.3213 116.173 81.4548 115.955 81.7218C115.765 81.9666 115.667 82.2714 115.678 82.582C115.783 82.3979 115.937 82.2473 116.123 82.1477C116.384 82.0196 116.672 81.9582 116.962 81.9692H118.728C119.414 81.9692 119.916 82.1336 120.236 82.4626C120.515 82.7457 120.655 83.1318 120.655 83.6208V84.5401L120.649 84.5208ZM120.006 83.6015C120.006 83.2323 119.886 82.95 119.662 82.757C119.438 82.5639 119.106 82.4626 118.678 82.4626H117C116.568 82.4626 116.237 82.5627 116.012 82.7606C115.896 82.8671 115.806 82.9982 115.747 83.1443C115.689 83.2904 115.663 83.4478 115.672 83.6051V84.5244C115.672 85.2966 116.115 85.6826 117 85.6826H118.678C119.094 85.6826 119.42 85.5885 119.653 85.3979C119.887 85.2073 120.006 84.9153 120.006 84.5244V83.6051V83.6015ZM121.401 83.6015C121.401 83.0912 121.546 82.6954 121.838 82.418C122.166 82.1059 122.663 81.9499 123.33 81.9499H125.1C125.784 81.9499 126.287 82.1143 126.61 82.4433C126.889 82.7264 127.028 83.1125 127.029 83.6015V84.5208C127.029 85.0098 126.886 85.3987 126.6 85.6875C126.267 86.0229 125.767 86.1905 125.1 86.1905H123.33C122.68 86.1905 122.196 86.0498 121.878 85.7683C121.559 85.4868 121.399 85.071 121.398 84.5208V83.6015H121.401ZM122.043 84.5208C122.043 85.2929 122.487 85.679 123.375 85.679H125.053C125.47 85.679 125.797 85.5849 126.032 85.3943C126.267 85.2037 126.385 84.9117 126.385 84.5208V83.6015C126.385 83.2323 126.271 82.95 126.041 82.757C125.811 82.5639 125.482 82.4626 125.053 82.4626H123.375C122.928 82.4626 122.594 82.5535 122.374 82.7353C122.153 82.917 122.043 83.2066 122.043 83.6039V84.5232V84.5208ZM130.702 86.1737H130.059V82.4976H127.646V81.9873H133.115V82.4976H130.702V86.1857V86.1737ZM139.352 84.5896C139.359 84.4545 139.333 84.3197 139.277 84.1967C139.221 84.0736 139.137 83.9659 139.031 83.8826C138.791 83.6956 138.44 83.6015 137.976 83.6015H134.544V81.9873H133.884V86.1857H137.868C138.357 86.1857 138.727 86.0989 138.977 85.9251C139.227 85.7514 139.352 85.4803 139.352 85.112V84.6016V84.5896ZM134.544 84.107H137.744C138.131 84.107 138.393 84.1581 138.53 84.2602C138.65 84.3447 138.708 84.5015 138.708 84.7199V85.0263C138.715 85.1111 138.702 85.1963 138.669 85.2748C138.637 85.3533 138.586 85.4228 138.521 85.4775C138.366 85.5982 138.104 85.6561 137.734 85.6561H134.544V84.1251V84.107ZM140.335 86.1676V81.9788H140.978V86.1857L140.335 86.1676Z" fill="white"/>
<path d="M144 76.6101H-0.899994V77.9662H144V76.6101Z" fill="white"/>
<path fill-rule="evenodd" clip-rule="evenodd" d="M71.103 72.5817C70.3253 72.5817 70.366 70.1592 71.103 70.1411H72.1264V60.6776C72.112 60.5178 72.1359 60.3569 72.1959 60.2083L73.2744 55.59C73.3463 55.3487 73.3391 55.3101 73.58 55.3101H75.3775C75.5501 55.3233 75.574 55.3861 75.5657 55.6913V73.7266C75.5594 73.8536 75.5037 73.973 75.4106 74.0588C75.3175 74.1446 75.1945 74.19 75.0683 74.1851H73.5812C73.3888 74.1722 73.207 74.0919 73.0671 73.9583L72.1168 72.5793L71.103 72.5817ZM71.3786 70.5042C71.1557 70.5042 70.9748 70.8854 70.9748 71.3548C70.9748 71.8241 71.1557 72.1993 71.3786 72.1993C71.6015 72.1993 71.7825 71.8192 71.7825 71.3548C71.7825 70.8903 71.6003 70.5042 71.3786 70.5042Z" fill="white"/>
<path fill-rule="evenodd" clip-rule="evenodd" d="M73.4195 51.1732H82.4071C84.7619 51.1442 87.2005 51.7052 87.1118 54.8613V55.9471L83.4389 55.958V55.0362C83.4281 54.6743 83.2615 54.5223 82.914 54.509H73.4279V51.7559L73.4195 51.1732Z" fill="white"/>
<path fill-rule="evenodd" clip-rule="evenodd" d="M81.2099 57.0871H81.4976L82.0272 56.666C82.0718 56.6197 82.1271 56.5851 82.1881 56.5653C82.2491 56.5455 82.3141 56.5412 82.3771 56.5526H83.319V57.0871H82.5641C82.2957 57.0871 82.1602 57.0811 82.171 57.4201V63.4367C82.1578 63.7793 82.2597 63.865 82.5617 63.865H87.0927V68.0586L83.7253 68.0381V64.5213L81.2147 64.543C80.9032 64.5358 80.7761 64.4417 80.7737 64.1449V62.6284H79.9589C80.618 61.1987 80.6563 59.6122 79.9361 57.9835H80.751L80.7749 57.4744C80.7606 57.1197 80.8732 57.0895 81.2099 57.0871Z" fill="white"/>
<path fill-rule="evenodd" clip-rule="evenodd" d="M86.0165 57.9861H87.095C88.14 59.47 87.995 61.4329 87.095 62.8674H86.0165V61.9288C87.0075 61.2266 87.0495 59.7801 86.0165 58.9126V57.9861Z" fill="white"/>
<path fill-rule="evenodd" clip-rule="evenodd" d="M87.6786 57.9883H87.9482C88.2804 58.7588 88.4509 59.5902 88.4488 60.4302C88.4467 61.2702 88.2722 62.1007 87.9363 62.8696H87.6702C88.305 61.3058 88.308 59.5543 87.6786 57.9883Z" fill="white"/>
<path fill-rule="evenodd" clip-rule="evenodd" d="M84.9176 58.7546C84.0344 58.7546 83.2399 59.5014 83.2663 60.4159C83.2652 60.6346 83.3072 60.8513 83.3897 61.0535C83.4723 61.2557 83.5939 61.4394 83.7475 61.594C83.901 61.7486 84.0835 61.871 84.2844 61.9542C84.4852 62.0373 84.7005 62.0795 84.9176 62.0784C84.0356 61.7913 83.6474 61.0566 83.6845 60.3435C83.7011 59.9827 83.8286 59.6359 84.0495 59.3512C84.2705 59.0666 84.5738 58.8581 84.9176 58.7546Z" fill="white"/>
<path fill-rule="evenodd" clip-rule="evenodd" d="M78.8827 67.8186H79.543C79.7252 67.8331 79.7707 67.9199 79.7959 68.0671L80.552 72.9907C80.5868 73.232 80.6719 73.419 80.9199 73.4286H87.0315C87.1669 73.4595 87.2861 73.5399 87.3659 73.6542L78.8779 73.6796L78.8827 67.8186Z" fill="white"/>
<path fill-rule="evenodd" clip-rule="evenodd" d="M83.6798 69.2906C83.6534 69.1048 83.7493 68.9938 83.8895 68.9853H86.8242C86.8605 68.9827 86.8969 68.9875 86.9313 68.9996C86.9656 69.0116 86.9972 69.0306 87.024 69.0553C87.0508 69.08 87.0723 69.11 87.0872 69.1434C87.1021 69.1768 87.1101 69.2129 87.1106 69.2495L87.4354 71.2559C87.4582 71.397 87.4222 71.5177 87.2712 71.5213H84.2969C84.1064 71.5213 84.0141 71.4646 83.9686 71.2511L83.6798 69.2906Z" fill="white"/>
<path fill-rule="evenodd" clip-rule="evenodd" d="M80.4754 68.4363H86.8194C87.2988 68.4496 87.4306 68.5811 87.5037 68.8815L88.1939 73.2887H87.9938L87.2988 68.9707C87.2556 68.7765 87.0855 68.6691 86.7991 68.6667H80.5329L80.4754 68.4363Z" fill="white"/>
<path fill-rule="evenodd" clip-rule="evenodd" d="M78.3531 73.3394H87.3731C87.5133 73.3394 87.6295 73.4117 87.6295 73.4998V74.1585C87.6295 74.2466 87.5097 74.319 87.3731 74.319H78.3531C78.2117 74.319 78.0966 74.2466 78.0966 74.1585V73.4998C78.0966 73.4117 78.2117 73.3394 78.3531 73.3394Z" fill="white"/>
<path fill-rule="evenodd" clip-rule="evenodd" d="M85.2879 59.2625C84.989 59.2722 84.7057 59.3985 84.4977 59.6148C84.2897 59.831 84.1734 60.1202 84.1734 60.4213C84.1734 60.7223 84.2897 61.0115 84.4977 61.2277C84.7057 61.444 84.989 61.5703 85.2879 61.5801C85.0295 61.5078 84.8033 61.3488 84.647 61.1293C84.4907 60.9099 84.4137 60.6432 84.4287 60.3736C84.4395 60.1215 84.5281 59.879 84.6821 59.6799C84.836 59.4808 85.0478 59.3349 85.2879 59.2625Z" fill="white"/>
<path fill-rule="evenodd" clip-rule="evenodd" d="M85.9482 60.0815C85.8936 60.0075 85.8236 59.9464 85.7431 59.9027C85.6625 59.8589 85.5734 59.8334 85.482 59.8281C85.3388 59.8299 85.2018 59.8875 85.0997 59.9887C84.9976 60.0898 84.9384 60.2269 84.9344 60.371C84.9403 61.0382 85.6414 61.1021 85.941 60.7064C85.3262 61.0527 85.077 60.6087 85.1021 60.3445C85.1249 59.9608 85.6822 59.8535 85.9482 60.0815Z" fill="white"/>
<path d="M85.6738 57.9861H82.5749V58.2418H85.6738V57.9861Z" fill="white"/>
<path fill-rule="evenodd" clip-rule="evenodd" d="M79.4939 57.9812C80.4873 59.3928 80.1614 61.6645 79.5011 62.6273C79.682 61.0838 79.6796 59.5241 79.4939 57.9812Z" fill="white"/>
<path fill-rule="evenodd" clip-rule="evenodd" d="M80.9475 68.8525C80.8529 68.8569 80.764 68.8986 80.6998 68.9687C80.6356 69.0387 80.6015 69.1313 80.6047 69.2265C80.604 69.3141 80.6332 69.3993 80.6874 69.4678C80.7166 69.5054 80.7535 69.5362 80.7955 69.5581C80.8376 69.58 80.8839 69.5926 80.9312 69.5948C80.9785 69.5971 81.0257 69.5891 81.0697 69.5714C81.1136 69.5536 81.1533 69.5265 81.1859 69.492C81.1133 69.5147 81.035 69.5102 80.9654 69.4794C80.8958 69.4486 80.8397 69.3935 80.8073 69.3243C80.7694 69.242 80.7628 69.1486 80.7886 69.0617C80.8144 68.9748 80.8709 68.9004 80.9475 68.8525Z" fill="white"/>
<path fill-rule="evenodd" clip-rule="evenodd" d="M81.0541 69.533C80.9596 69.5373 80.8706 69.5791 80.8064 69.6491C80.7423 69.7191 80.7081 69.8118 80.7114 69.907C80.7105 69.9946 80.7397 70.0798 80.7941 70.1483C80.8233 70.1858 80.8601 70.2166 80.9022 70.2385C80.9443 70.2605 80.9905 70.273 81.0378 70.2753C81.0852 70.2776 81.1324 70.2696 81.1764 70.2518C81.2203 70.2341 81.26 70.207 81.2926 70.1724C81.22 70.195 81.1417 70.1907 81.072 70.1601C81.0023 70.1296 80.9458 70.0748 80.9127 70.0059C80.8754 69.9232 80.8692 69.8297 80.8952 69.7427C80.9212 69.6557 80.9777 69.5812 81.0541 69.533Z" fill="white"/>
<path fill-rule="evenodd" clip-rule="evenodd" d="M81.162 70.2039C81.0675 70.2082 80.9785 70.25 80.9143 70.32C80.8501 70.39 80.816 70.4827 80.8192 70.5779C80.8182 70.6655 80.8474 70.7508 80.9019 70.8191C80.9311 70.8567 80.968 70.8875 81.0101 70.9094C81.0521 70.9313 81.0984 70.9439 81.1457 70.9462C81.193 70.9484 81.2403 70.9404 81.2842 70.9227C81.3282 70.9049 81.3678 70.8778 81.4005 70.8433C81.3278 70.8664 81.2494 70.8623 81.1795 70.8317C81.1097 70.8011 81.0532 70.7461 81.0206 70.6768C80.9833 70.5941 80.9771 70.5006 81.0031 70.4136C81.0291 70.3266 81.0855 70.2521 81.162 70.2039Z" fill="white"/>
<path fill-rule="evenodd" clip-rule="evenodd" d="M81.283 70.8733C81.1885 70.8777 81.0995 70.9194 81.0354 70.9894C80.9712 71.0594 80.9371 71.1521 80.9403 71.2473C80.9392 71.335 80.9685 71.4203 81.023 71.4886C81.0521 71.5262 81.0889 71.5571 81.1309 71.5792C81.1729 71.6012 81.2192 71.6138 81.2665 71.6162C81.3138 71.6186 81.3611 71.6107 81.4051 71.5931C81.4491 71.5754 81.4888 71.5484 81.5215 71.5139C81.4487 71.5367 81.3703 71.5323 81.3005 71.5015C81.2307 71.4707 81.1743 71.4156 81.1416 71.3462C81.1044 71.2635 81.0981 71.17 81.1242 71.083C81.1502 70.9961 81.2066 70.9215 81.283 70.8733Z" fill="white"/>
<path fill-rule="evenodd" clip-rule="evenodd" d="M81.772 68.8525C81.6776 68.8572 81.589 68.8991 81.5251 68.9691C81.4611 69.0391 81.4272 69.1315 81.4304 69.2265C81.4293 69.314 81.4581 69.3992 81.5119 69.4678C81.5411 69.5054 81.578 69.5362 81.62 69.5581C81.6621 69.58 81.7084 69.5926 81.7557 69.5948C81.803 69.5971 81.8502 69.5891 81.8942 69.5714C81.9382 69.5536 81.9778 69.5265 82.0104 69.492C81.9378 69.5147 81.8595 69.5102 81.7899 69.4794C81.7203 69.4486 81.6642 69.3935 81.6317 69.3243C81.5944 69.2419 81.5881 69.1486 81.6139 69.0619C81.6397 68.9751 81.6958 68.9008 81.772 68.8525Z" fill="white"/>
<path fill-rule="evenodd" clip-rule="evenodd" d="M81.881 69.533C81.7867 69.5377 81.698 69.5795 81.6341 69.6495C81.5702 69.7195 81.5362 69.812 81.5395 69.907C81.5381 69.9945 81.5669 70.0797 81.621 70.1483C81.6501 70.1858 81.687 70.2166 81.7291 70.2385C81.7712 70.2605 81.8174 70.273 81.8647 70.2753C81.9121 70.2776 81.9593 70.2696 82.0033 70.2518C82.0472 70.2341 82.0869 70.207 82.1195 70.1724C82.0471 70.1952 81.9688 70.1909 81.8993 70.1603C81.8297 70.1298 81.7734 70.0749 81.7408 70.0059C81.7029 69.9234 81.6962 69.8298 81.722 69.7427C81.7479 69.6556 81.8044 69.581 81.881 69.533Z" fill="white"/>
<path fill-rule="evenodd" clip-rule="evenodd" d="M81.9888 70.2039C81.8943 70.2082 81.8053 70.25 81.7412 70.32C81.677 70.39 81.6429 70.4827 81.6461 70.5779C81.645 70.6655 81.6743 70.7508 81.7288 70.8191C81.758 70.8567 81.7949 70.8875 81.8369 70.9094C81.879 70.9313 81.9252 70.9439 81.9726 70.9462C82.0199 70.9484 82.0671 70.9404 82.1111 70.9227C82.155 70.9049 82.1947 70.8778 82.2273 70.8433C82.1547 70.8664 82.0762 70.8623 82.0064 70.8317C81.9365 70.8011 81.8801 70.7461 81.8474 70.6768C81.8102 70.5941 81.8039 70.5006 81.8299 70.4136C81.8559 70.3266 81.9124 70.2521 81.9888 70.2039Z" fill="white"/>
<path fill-rule="evenodd" clip-rule="evenodd" d="M82.1099 70.8733C82.0154 70.8777 81.9264 70.9194 81.8622 70.9894C81.798 71.0594 81.7639 71.1521 81.7672 71.2473C81.7666 71.3349 81.7958 71.42 81.8498 71.4886C81.8789 71.5262 81.9157 71.5571 81.9578 71.5792C81.9998 71.6012 82.046 71.6138 82.0934 71.6162C82.1407 71.6186 82.1879 71.6107 82.232 71.5931C82.276 71.5754 82.3157 71.5484 82.3484 71.5139C82.2758 71.5367 82.1975 71.5322 82.1279 71.5014C82.0583 71.4706 82.0021 71.4155 81.9697 71.3462C81.9318 71.2637 81.9251 71.1702 81.9509 71.0831C81.9767 70.996 82.0333 70.9214 82.1099 70.8733Z" fill="white"/>
<path fill-rule="evenodd" clip-rule="evenodd" d="M82.5988 68.8525C82.5045 68.8572 82.4158 68.8991 82.3519 68.9691C82.288 69.0391 82.254 69.1315 82.2573 69.2265C82.2561 69.3142 82.2853 69.3996 82.34 69.4678C82.3691 69.5054 82.406 69.5362 82.4481 69.5581C82.4901 69.58 82.5364 69.5926 82.5837 69.5948C82.631 69.5971 82.6783 69.5891 82.7222 69.5714C82.7662 69.5536 82.8058 69.5265 82.8385 69.492C82.7657 69.5148 82.6872 69.5103 82.6174 69.4795C82.5476 69.4487 82.4912 69.3936 82.4586 69.3243C82.4213 69.2419 82.4149 69.1486 82.4407 69.0619C82.4665 68.9751 82.5227 68.9008 82.5988 68.8525Z" fill="white"/>
<path fill-rule="evenodd" clip-rule="evenodd" d="M82.7079 69.533C82.6136 69.5377 82.5249 69.5795 82.461 69.6495C82.3971 69.7195 82.3631 69.812 82.3663 69.907C82.3649 69.9947 82.3942 70.0801 82.449 70.1482C82.4781 70.1858 82.5149 70.2166 82.5568 70.2385C82.5988 70.2604 82.645 70.2729 82.6922 70.2752C82.7394 70.2775 82.7865 70.2695 82.8304 70.2517C82.8743 70.234 82.9138 70.2069 82.9463 70.1724C82.8739 70.1952 82.7957 70.1909 82.7261 70.1603C82.6565 70.1297 82.6003 70.0749 82.5677 70.0059C82.5303 69.9233 82.5239 69.8299 82.5496 69.7429C82.5754 69.656 82.6316 69.5814 82.7079 69.533Z" fill="white"/>
<path fill-rule="evenodd" clip-rule="evenodd" d="M82.8157 70.2039C82.7214 70.2086 82.6327 70.2504 82.5688 70.3204C82.5049 70.3904 82.4709 70.4829 82.4742 70.5779C82.4727 70.6654 82.5015 70.7507 82.5557 70.8191C82.5849 70.8567 82.6217 70.8875 82.6638 70.9094C82.7059 70.9313 82.7521 70.9439 82.7994 70.9462C82.8468 70.9484 82.894 70.9404 82.938 70.9227C82.9819 70.9049 83.0216 70.8778 83.0542 70.8433C82.9818 70.8666 82.9034 70.8626 82.8337 70.8319C82.764 70.8013 82.7077 70.7461 82.6755 70.6768C82.6381 70.5942 82.6317 70.5008 82.6575 70.4138C82.6833 70.3269 82.7395 70.2523 82.8157 70.2039Z" fill="white"/>
<path fill-rule="evenodd" clip-rule="evenodd" d="M82.9367 70.8733C82.8424 70.878 82.7538 70.9198 82.6899 70.9898C82.6259 71.0598 82.592 71.1523 82.5952 71.2473C82.5936 71.335 82.6229 71.4205 82.6779 71.4886C82.7069 71.5262 82.7436 71.5571 82.7855 71.5791C82.8274 71.6011 82.8736 71.6138 82.9208 71.6162C82.968 71.6186 83.0152 71.6107 83.0591 71.593C83.103 71.5754 83.1426 71.5484 83.1752 71.5139C83.1026 71.5367 83.0243 71.5322 82.9547 71.5014C82.8851 71.4706 82.829 71.4155 82.7965 71.3462C82.7591 71.2637 82.7528 71.1702 82.7785 71.0833C82.8043 70.9963 82.8605 70.9217 82.9367 70.8733Z" fill="white"/>
<path fill-rule="evenodd" clip-rule="evenodd" d="M82.1674 71.7771C82.0955 71.7812 82.028 71.8133 81.9792 71.8667C81.9304 71.9201 81.9042 71.9905 81.9062 72.063C81.905 72.1306 81.9275 72.1963 81.9697 72.2488C81.9918 72.2776 82.0198 72.3012 82.0519 72.3181C82.0839 72.3349 82.1192 72.3446 82.1552 72.3465C82.1913 72.3483 82.2274 72.3422 82.2609 72.3287C82.2945 72.3152 82.3247 72.2945 82.3496 72.2681C82.2942 72.2856 82.2345 72.2823 82.1813 72.2588C82.1282 72.2353 82.0854 72.1932 82.0608 72.1403C82.0315 72.077 82.0262 72.0052 82.0458 71.9384C82.0655 71.8715 82.1087 71.8141 82.1674 71.7771Z" fill="white"/>
<path fill-rule="evenodd" clip-rule="evenodd" d="M81.6378 72.1328C81.5658 72.1369 81.4983 72.169 81.4495 72.2224C81.4007 72.2758 81.3745 72.3462 81.3765 72.4187C81.3753 72.4863 81.3978 72.552 81.44 72.6045C81.4621 72.6333 81.4902 72.6569 81.5222 72.6738C81.5542 72.6906 81.5895 72.7003 81.6256 72.7021C81.6616 72.704 81.6977 72.6979 81.7312 72.6844C81.7648 72.6709 81.795 72.6502 81.8199 72.6238C81.7645 72.6413 81.7048 72.638 81.6517 72.6145C81.5985 72.591 81.5557 72.5489 81.5311 72.496C81.5018 72.4327 81.4965 72.3609 81.5162 72.2941C81.5358 72.2272 81.579 72.1698 81.6378 72.1328Z" fill="white"/>
<path fill-rule="evenodd" clip-rule="evenodd" d="M82.8193 72.134C82.7473 72.1378 82.6796 72.1698 82.6307 72.2233C82.5819 72.2767 82.5558 72.3474 82.5581 72.4199C82.5565 72.4873 82.5785 72.5531 82.6204 72.6057C82.6426 72.6345 82.6708 72.6582 82.7029 72.675C82.735 72.6919 82.7704 72.7016 82.8065 72.7034C82.8427 72.7052 82.8789 72.6992 82.9125 72.6857C82.9462 72.6721 82.9765 72.6515 83.0015 72.625C82.946 72.6429 82.8859 72.6397 82.8325 72.6162C82.7791 72.5926 82.7361 72.5503 82.7115 72.4972C82.6826 72.4338 82.6776 72.362 82.6974 72.2951C82.7173 72.2283 82.7606 72.171 82.8193 72.134Z" fill="white"/>
<path fill-rule="evenodd" clip-rule="evenodd" d="M82.2477 72.5396C82.1756 72.5433 82.1079 72.5754 82.0591 72.6288C82.0102 72.6823 81.9841 72.7529 81.9864 72.8255C81.9854 72.8928 82.0074 72.9584 82.0488 73.0113C82.0711 73.04 82.0993 73.0636 82.1314 73.0803C82.1636 73.0971 82.199 73.1066 82.2352 73.1083C82.2714 73.11 82.3075 73.1039 82.3411 73.0903C82.3747 73.0766 82.4049 73.0559 82.4298 73.0294C82.3743 73.0472 82.3143 73.044 82.2609 73.0205C82.2075 72.997 82.1645 72.9547 82.1398 72.9015C82.111 72.8383 82.1061 72.7667 82.1259 72.7C82.1458 72.6334 82.189 72.5764 82.2477 72.5396Z" fill="white"/>
<path fill-rule="evenodd" clip-rule="evenodd" d="M84.4466 72.2886C84.4441 72.3736 84.4088 72.4541 84.3481 72.5132C84.2875 72.5722 84.2063 72.6051 84.1219 72.6047C84.0433 72.6082 83.966 72.5834 83.9038 72.5347C83.8698 72.5093 83.8417 72.4768 83.8214 72.4394C83.8011 72.402 83.789 72.3607 83.786 72.3182C83.7831 72.2756 83.7893 72.233 83.8042 72.1931C83.8192 72.1532 83.8425 72.1171 83.8726 72.0872C83.8535 72.1529 83.8587 72.2234 83.8874 72.2856C83.916 72.3477 83.9662 72.3973 84.0284 72.425C84.1026 72.4578 84.1862 72.462 84.2633 72.4369C84.3404 72.4117 84.4056 72.359 84.4466 72.2886Z" fill="white"/>
<path fill-rule="evenodd" clip-rule="evenodd" d="M85.4809 72.2886C85.4784 72.3736 85.443 72.4541 85.3823 72.5132C85.3217 72.5722 85.2405 72.6051 85.1561 72.6047C85.0775 72.6082 85.0002 72.5834 84.938 72.5347C84.904 72.5094 84.8757 72.477 84.8553 72.4396C84.8349 72.4023 84.8227 72.361 84.8196 72.3184C84.8165 72.2759 84.8226 72.2332 84.8375 72.1933C84.8523 72.1534 84.8756 72.1172 84.9057 72.0872C84.8868 72.1531 84.8924 72.2236 84.9212 72.2857C84.9501 72.3478 85.0003 72.3973 85.0626 72.425C85.1369 72.4575 85.2204 72.4616 85.2974 72.4365C85.3744 72.4114 85.4397 72.3588 85.4809 72.2886Z" fill="white"/>
<path fill-rule="evenodd" clip-rule="evenodd" d="M86.515 72.2886C86.5125 72.3736 86.4772 72.4541 86.4165 72.5132C86.3558 72.5722 86.2746 72.6051 86.1903 72.6047C86.1116 72.6082 86.0343 72.5834 85.9722 72.5347C85.9379 72.5095 85.9095 72.4772 85.889 72.4398C85.8684 72.4025 85.8562 72.3611 85.8531 72.3185C85.85 72.2759 85.8562 72.2332 85.8712 72.1932C85.8861 72.1533 85.9095 72.1171 85.9398 72.0872C85.921 72.1531 85.9265 72.2236 85.9554 72.2857C85.9842 72.3478 86.0345 72.3973 86.0968 72.425C86.171 72.4575 86.2545 72.4616 86.3315 72.4365C86.4086 72.4114 86.4738 72.3588 86.515 72.2886Z" fill="white"/>
<path fill-rule="evenodd" clip-rule="evenodd" d="M87.5492 72.2886C87.5467 72.3736 87.5113 72.4541 87.4507 72.5132C87.39 72.5722 87.3088 72.6051 87.2244 72.6047C87.1458 72.6082 87.0685 72.5834 87.0063 72.5347C86.9721 72.5095 86.9437 72.4772 86.9232 72.4398C86.9026 72.4025 86.8904 72.3611 86.8873 72.3185C86.8842 72.2759 86.8904 72.2332 86.9054 72.1932C86.9203 72.1533 86.9437 72.1171 86.974 72.0872C86.9551 72.1529 86.9604 72.2233 86.9891 72.2854C87.0177 72.3475 87.0677 72.3971 87.1298 72.425C87.2042 72.4576 87.2879 72.4617 87.3651 72.4366C87.4423 72.4115 87.5078 72.3589 87.5492 72.2886Z" fill="white"/>
<path d="M85.6738 57.9861H82.5749V58.2418H85.6738V57.9861Z" fill="white"/>
<path d="M85.6738 62.6055H82.5749V62.8612H85.6738V62.6055Z" fill="white"/>
<path fill-rule="evenodd" clip-rule="evenodd" d="M83.083 64.3984H83.3957L83.3909 68.6259H83.077L83.083 64.3984Z" fill="white"/>
<path fill-rule="evenodd" clip-rule="evenodd" d="M24.0065 71.5431H21.3174V66.5459H17.243V71.5431H14.5587V61.8612C14.5587 60.2228 14.8691 58.9979 15.4898 58.1863C16.1106 57.3748 16.9986 56.9686 18.1538 56.9678H20.3252C21.51 56.9678 22.4199 57.374 23.055 58.1863C23.6902 58.9987 24.0073 60.2236 24.0065 61.8612V71.5431ZM21.3174 62.4029C21.3174 61.9203 21.2279 61.5628 21.049 61.3304C20.8692 61.1011 20.5804 60.9865 20.1802 60.9865H18.3395C17.6085 60.9865 17.243 61.4587 17.243 62.4029V63.4224H21.3174V62.4029ZM35.3382 62.5899C35.3382 63.7425 35.0693 64.6345 34.5317 65.2658C33.994 65.8972 33.0773 66.2129 31.7814 66.2129H28.5974V71.5431H25.9083V62.2147H32.0547C32.3303 62.2147 32.5064 62.1737 32.5819 62.0941C32.6574 62.0144 32.6958 61.8528 32.6958 61.6115C32.7114 61.437 32.6715 61.2621 32.5819 61.112C32.5064 61.0143 32.3303 60.966 32.0547 60.966H25.9083V56.9678H31.7802C32.357 56.9544 32.9324 57.0317 33.4855 57.197C33.9077 57.3236 34.2871 57.5649 34.582 57.8944C34.8617 58.229 35.06 58.6247 35.1608 59.0502C35.2851 59.5683 35.3443 60.1001 35.337 60.633V62.5899H35.3382ZM46.2156 67.8778C46.2233 68.4107 46.1645 68.9425 46.0406 69.4607C45.9399 69.8864 45.7412 70.2823 45.4606 70.6165C45.1658 70.9455 44.787 71.1867 44.3653 71.3138C43.8122 71.479 43.2369 71.5564 42.6601 71.5431H36.7882V67.5448H42.9297C43.2065 67.5448 43.3815 67.4966 43.4582 67.3989C43.5473 67.2486 43.5867 67.0737 43.5708 66.8994C43.5708 66.6581 43.5337 66.5037 43.4582 66.4168C43.3827 66.3299 43.2065 66.2962 42.9297 66.2962H36.787V56.9678H39.4749V62.2979H42.6601C43.9567 62.2979 44.8734 62.614 45.4103 63.2462C45.9472 63.8784 46.216 64.77 46.2168 65.921V67.8778H46.2156ZM47.6632 60.966V56.9678H57.1002V60.9865L47.6692 60.966H47.6632ZM47.6632 71.5431V62.1737H55.854V66.1707H50.3535V67.5448H57.1002V71.5431H47.6632ZM68.1994 62.5899C68.1994 63.7425 67.9306 64.6345 67.3929 65.2658C66.8552 65.8972 65.9409 66.2129 64.6499 66.2129H61.4586V71.5431H58.7707V62.2147H64.9123C65.1879 62.2147 65.3641 62.1737 65.4396 62.0941C65.5151 62.0144 65.5534 61.8528 65.5534 61.6115C65.5696 61.437 65.5297 61.2619 65.4396 61.112C65.3641 61.0143 65.1879 60.966 64.9123 60.966H58.7707V56.9678H64.6427C65.2199 56.9544 65.7956 57.0317 66.3491 57.197C66.7707 57.3241 67.1496 57.5654 67.4444 57.8944C67.725 58.2286 67.9236 58.6245 68.0244 59.0502C68.1477 59.5684 68.2065 60.1001 68.1994 60.633V62.5899Z" fill="white"/>
<path fill-rule="evenodd" clip-rule="evenodd" d="M99.631 62.6394C99.631 63.775 99.3594 64.6533 98.8161 65.2743C98.2728 65.8952 97.3453 66.2065 96.0335 66.2081H92.8112V71.4586H90.0921V62.2702H96.3056C96.5848 62.2702 96.7621 62.2292 96.8388 62.1495C96.9155 62.0699 96.9587 61.9082 96.9587 61.6778C96.973 61.505 96.9309 61.3321 96.8388 61.1856C96.7621 61.0903 96.5848 61.042 96.3056 61.042H90.0921V57.1017H96.0335C96.6168 57.0878 97.1987 57.1639 97.7592 57.3273C98.1835 57.4509 98.5666 57.6882 98.8676 58.0138C99.1499 58.3413 99.3507 58.7317 99.4536 59.1527C99.5789 59.6625 99.6385 60.1863 99.631 60.7114V62.6418V62.6394ZM104.526 71.4586C103.383 71.4586 102.497 71.1746 101.87 70.6068C101.242 70.039 100.928 69.1333 100.929 67.8899V60.7114C100.929 59.5355 101.232 58.6399 101.838 58.0246C102.445 57.4094 103.341 57.1017 104.526 57.1017H106.891C108.076 57.1017 108.972 57.4094 109.578 58.0246C110.185 58.6399 110.488 59.5355 110.489 60.7114V67.8899C110.489 69.1333 110.175 70.039 109.547 70.6068C108.919 71.1746 108.034 71.4586 106.891 71.4586H104.526ZM106.891 67.5207C107.25 67.5207 107.49 67.4519 107.592 67.3156C107.693 67.1793 107.749 66.9536 107.749 66.6388V61.942C107.749 61.6139 107.675 61.3846 107.528 61.2543C107.346 61.1133 107.12 61.0442 106.891 61.0601H104.526C104.297 61.0444 104.071 61.1135 103.889 61.2543C103.743 61.3846 103.669 61.6139 103.669 61.942V66.6388C103.669 66.9536 103.721 67.1793 103.826 67.3156C103.932 67.4519 104.164 67.5207 104.526 67.5207H106.891Z" fill="white"/>
<path fill-rule="evenodd" clip-rule="evenodd" d="M-0.899994 51.1694H2.83767V71.4114H-0.899994V51.1694ZM4.62561 53.8779L6.8893 51.1694H12.5994L4.7059 59.6521L12.935 71.4114H6.70355L4.62561 68.1648V53.8779Z" fill="white"/>
<path fill-rule="evenodd" clip-rule="evenodd" d="M112.234 60.9648V56.9678H121.663V60.9865L112.234 60.9648ZM112.234 71.5406V62.1724H120.422V66.1694H114.922V67.5436H121.663V71.543L112.234 71.5406Z" fill="white"/>
<path fill-rule="evenodd" clip-rule="evenodd" d="M123.249 56.9678H125.937V61.3822V69.6465V71.543H123.249V56.9678ZM127.342 58.6568L128.97 56.9678H133.125L127.342 63.0628V58.6556V58.6568ZM127.342 63.0676L133.333 71.5418H128.846L127.343 69.3099L127.342 63.0676Z" fill="white"/>
<path fill-rule="evenodd" clip-rule="evenodd" d="M144 60.9863H134.533V56.9688H144V60.9863ZM140.625 62.2144V71.5428H137.916V62.2168L140.625 62.2144Z" fill="white"/>
<path fill-rule="evenodd" clip-rule="evenodd" d="M101.309 16.5176C100.236 15.7045 100.361 16.1678 100.014 17.0002C99.7856 17.5516 98.1894 16.9906 98.2696 18.0981C98.3559 19.2937 96.4062 18.0522 96.4062 19.0633C96.4062 20.2323 97.3098 19.278 97.021 19.839C96.9598 19.9597 95.9185 19.6243 96.302 20.3216C96.3427 20.394 96.8724 20.4109 95.7879 20.7632C94.8627 21.0636 93.7111 20.6558 93.8082 21.9696C93.8178 22.0999 95.1024 21.8586 95.5242 21.8586C96.2708 21.8586 96.1845 21.7899 96.9263 21.8285C96.9347 21.8285 97.3158 20.5701 98.1989 21.51C98.7142 22.0577 97.5878 23.1097 99.359 23.1097C100.523 23.1097 102.433 21.6825 103.535 21.0865C104.808 20.3988 105.993 17.3549 104.134 17.3308C103.793 17.3308 102.816 17.2101 102.478 17.0762L101.309 16.5176Z" fill="white"/>
</svg>
