<svg width="130" height="34" viewBox="0 0 130 34" fill="none" xmlns="http://www.w3.org/2000/svg">
<path fill-rule="evenodd" clip-rule="evenodd" d="M11.9051 26.1494H10.6698L7.8637 30.688L5.04257 26.1494H3.80725V31.4686H4.38889V26.5777H4.71143L7.70996 31.4686H8.0067L11.0042 26.5777H11.3267V31.4686H11.904V26.1494H11.9051ZM12.7652 30.045C12.7594 29.9235 12.7826 29.8023 12.833 29.6918C12.8833 29.5812 12.9592 29.4844 13.0544 29.4097C13.2694 29.2416 13.5855 29.157 14.0038 29.157H16.3228C16.6023 29.157 16.8055 29.2058 16.9346 29.3023C16.9849 29.3424 17.0238 29.3951 17.0474 29.4552V28.9348C17.0518 28.8342 17.0349 28.7338 16.9978 28.6404C16.9607 28.5469 16.9044 28.4624 16.8324 28.3927C16.6618 28.2351 16.411 28.1563 16.0798 28.1563H14.5456C14.1381 28.1563 13.8511 28.2387 13.6855 28.4013C13.6231 28.4698 13.5814 28.5548 13.5651 28.6464V28.7841H12.9716V28.6464C12.9136 28.4295 13.0308 28.2073 13.3243 27.9882C13.5816 27.7945 13.94 27.6977 14.3994 27.6977H16.139C16.6572 27.6977 17.0392 27.8144 17.285 28.0479C17.5151 28.2647 17.6302 28.59 17.6302 29.0237V31.4675H17.0528V31.1607C17.0031 31.2189 16.9464 31.2706 16.884 31.3147C16.7236 31.4178 16.5366 31.471 16.3465 31.4675H14.1016C13.6629 31.4675 13.3314 31.3895 13.1071 31.2333C12.8828 31.0772 12.772 30.834 12.7749 30.5036V30.045H12.7652ZM14.2123 29.6113C13.8629 29.6113 13.6307 29.6525 13.5156 29.7371C13.4543 29.7881 13.4064 29.8536 13.3762 29.9277C13.3461 30.0019 13.3345 30.0824 13.3426 30.1621V30.4375C13.3357 30.5129 13.3476 30.5888 13.3773 30.6583C13.407 30.7278 13.4534 30.7887 13.5124 30.8354C13.6515 30.9373 13.8848 30.9883 14.2123 30.9883H16.1766C16.7564 30.9883 17.0464 30.7588 17.0464 30.2998C17.0546 30.202 17.0394 30.1037 17.002 30.0131C16.9646 29.9225 16.906 29.8423 16.8313 29.7794C16.6873 29.671 16.469 29.6113 16.1798 29.6113H14.2123ZM20.233 27.6901H21.7887C22.3758 27.6901 22.8137 27.8375 23.1026 28.1324C23.3491 28.3869 23.472 28.7335 23.4713 29.1722V29.9962C23.4713 30.4603 23.3412 30.8159 23.0789 31.0664C22.7961 31.3407 22.365 31.4784 21.7887 31.4784H20.2341C19.9182 31.4894 19.6051 31.4145 19.3278 31.2615C19.2362 31.2002 19.1527 31.1273 19.0794 31.0447V33.0039H18.5021V27.6955H19.0794V28.101C19.1501 28.0226 19.2311 27.9543 19.3203 27.8982C19.5857 27.7542 19.8845 27.6842 20.1857 27.6955L20.233 27.6901ZM19.0784 29.1722L19.0461 29.5842L19.0784 29.9962C19.0719 30.1308 19.0942 30.2652 19.1438 30.3904C19.1933 30.5155 19.2689 30.6284 19.3654 30.7216C19.5804 30.9204 19.8919 31.0194 20.2997 31.0187H21.5898C22.0264 31.0187 22.3543 30.9373 22.5714 30.7758C22.7886 30.6142 22.894 30.3519 22.894 29.9962V29.1722C22.894 28.8263 22.7865 28.5683 22.5585 28.4002C22.3306 28.2322 22.0102 28.1487 21.5845 28.1487H20.3094C19.8987 28.1487 19.5912 28.2416 19.3869 28.4274C19.2849 28.5214 19.2046 28.6368 19.1515 28.7655C19.0983 28.8941 19.0738 29.033 19.0794 29.1722H19.0784ZM24.2895 31.4632V27.6901H24.8668V29.1213H25.4926L27.5762 27.6901H28.4986L25.9989 29.3685L28.7093 31.4654H27.875L25.485 29.5853H24.8679V31.4686L24.2895 31.4632ZM29.1802 27.6901H29.7619V31.0035H32.8486V27.6955H33.4173V31.0089H36.504V27.6955H37.0813V31.4686H29.1813V27.6955L29.1802 27.6901ZM42.3914 29.1516C42.3985 29.0138 42.3773 28.876 42.329 28.7469C42.2807 28.6177 42.2064 28.5001 42.1108 28.4013C42.0045 28.3051 41.8803 28.2311 41.7453 28.1839C41.6104 28.1366 41.4674 28.1169 41.3249 28.1259H39.5144C39.3794 28.12 39.2447 28.1414 39.1181 28.1887C38.9914 28.236 38.8754 28.3083 38.7768 28.4013C38.6812 28.5001 38.6069 28.6177 38.5587 28.7469C38.5104 28.876 38.4891 29.0138 38.4962 29.1516H42.3914ZM38.4951 29.6113V29.9778C38.4951 30.345 38.5994 30.6157 38.808 30.7899C38.9893 30.9431 39.2513 31.0194 39.5939 31.0187H41.4808C41.7854 31.0187 42.014 30.9536 42.1667 30.8235C42.2394 30.7642 42.2978 30.6889 42.3373 30.6035C42.3768 30.518 42.3964 30.4245 42.3946 30.3302V30.2532H42.972V30.3302C42.9741 30.4688 42.949 30.6065 42.898 30.7353C42.8471 30.864 42.7714 30.9814 42.6752 31.0805C42.4251 31.3457 42.0538 31.4784 41.5614 31.4784H39.6187C38.4855 31.4784 37.9189 31.0038 37.9189 30.0548V29.0649C37.9176 28.8836 37.9555 28.7042 38.0297 28.5391C38.104 28.374 38.2129 28.2271 38.3489 28.1086C38.6636 27.8195 39.0804 27.6749 39.5993 27.6749H41.2657C41.8105 27.6749 42.2355 27.8075 42.5408 28.0728C42.6779 28.1854 42.7879 28.328 42.8624 28.4897C42.9369 28.6514 42.974 28.828 42.9709 29.0063V29.6189L38.4951 29.6113ZM43.8181 31.4632V27.6901H44.3954V31.0338H44.5804L47.8434 27.6901H48.8045V31.4632H48.2283V28.1238H48.067L44.8051 31.4686L43.8181 31.4632ZM46.1672 26.955H46.2393C46.6887 26.955 46.984 26.9116 47.1252 26.8249C47.2664 26.7381 47.3381 26.5827 47.3402 26.3586H47.8047C47.8047 26.7251 47.7144 26.981 47.5327 27.123C47.2976 27.3073 46.8514 27.3995 46.1941 27.3995C45.5577 27.3995 45.1247 27.3102 44.8954 27.1317C44.7026 26.9835 44.6062 26.7258 44.6062 26.3586H45.0717C45.0635 26.4481 45.0791 26.5382 45.1169 26.6196C45.1547 26.701 45.2133 26.7707 45.2867 26.8216C45.4301 26.9105 45.7254 26.955 46.1726 26.955H46.1672ZM49.9302 31.0035C50.1473 30.8881 50.3135 30.6946 50.3957 30.4614C50.4987 30.1715 50.5475 29.8649 50.5398 29.5571V27.6955H54.9199V31.0089H55.3843V32.9074H54.8317V31.4686H50.1775V32.9074H49.6238V31.0089L49.9302 31.0035ZM54.3479 31.0035V28.1541H51.115V29.4975C51.1206 29.7798 51.0909 30.0618 51.0268 30.3367C50.9408 30.6685 50.8021 30.8918 50.6097 31.0089L54.3479 31.0035ZM60.4965 29.1516C60.5036 29.0138 60.4824 28.876 60.4341 28.7469C60.3858 28.6177 60.3115 28.5001 60.2159 28.4013C60.1098 28.3052 59.9857 28.2314 59.851 28.1841C59.7162 28.1368 59.5735 28.117 59.4311 28.1259H57.6163C57.4814 28.12 57.3466 28.1414 57.22 28.1887C57.0933 28.236 56.9773 28.3083 56.8787 28.4013C56.7831 28.5001 56.7089 28.6177 56.6606 28.7469C56.6123 28.876 56.591 29.0138 56.5981 29.1516H60.4965ZM56.6003 29.6113V29.9778C56.6003 30.345 56.7046 30.6157 56.9131 30.7899C57.0945 30.9431 57.3564 31.0194 57.6991 31.0187H59.5827C59.888 31.0187 60.1202 30.9536 60.2686 30.8235C60.3414 30.7642 60.3997 30.6889 60.4392 30.6035C60.4787 30.518 60.4983 30.4245 60.4965 30.3302V30.2532H61.0739V30.3302C61.076 30.4688 61.0509 30.6065 60.9999 30.7353C60.949 30.864 60.8733 30.9814 60.7771 31.0805C60.5263 31.3457 60.155 31.4784 59.6633 31.4784H57.7206C56.5874 31.4784 56.0208 31.0038 56.0208 30.0548V29.0649C56.0196 28.8836 56.0574 28.7042 56.1316 28.5391C56.2059 28.374 56.3148 28.2271 56.4508 28.1086C56.7655 27.8195 57.1823 27.6749 57.7012 27.6749H59.3687C59.9142 27.6749 60.3392 27.8075 60.6438 28.0728C60.7809 28.1854 60.8909 28.328 60.9654 28.4897C61.0399 28.6514 61.077 28.828 61.0739 29.0063V29.6189L56.6003 29.6113ZM63.6069 27.6901H65.1626C65.751 27.6901 66.1893 27.8375 66.4775 28.1324C66.7233 28.3869 66.8462 28.7335 66.8462 29.1722V29.9962C66.8462 30.4603 66.7151 30.8159 66.4538 31.0664C66.1671 31.3403 65.7371 31.4777 65.1637 31.4784H63.6047C63.2891 31.4894 62.9764 31.4145 62.6995 31.2615C62.6074 31.2008 62.5239 31.1278 62.4511 31.0447V33.0039H61.8738V27.6955H62.4511V28.101C62.5214 28.0226 62.6021 27.9544 62.6909 27.8982C62.9567 27.7542 63.2558 27.6842 63.5574 27.6955L63.6069 27.6901ZM62.4533 29.1722L62.421 29.5842L62.4533 29.9962C62.4466 30.1308 62.4688 30.2653 62.5184 30.3905C62.5679 30.5156 62.6436 30.6286 62.7403 30.7216C62.9553 30.92 63.2639 31.0187 63.6746 31.0187H64.9648C65.4023 31.0187 65.7292 30.9373 65.9474 30.7758C66.1657 30.6142 66.27 30.3519 66.27 29.9962V29.1722C66.27 28.8263 66.1625 28.5683 65.9345 28.4002C65.7066 28.2322 65.3873 28.1487 64.9605 28.1487H63.68C63.27 28.1487 62.9629 28.2416 62.7586 28.4274C62.6564 28.5213 62.576 28.6367 62.5228 28.7654C62.4697 28.8941 62.4452 29.0329 62.4511 29.1722H62.4533ZM69.1868 28.1259C68.8449 28.1259 68.5804 28.2101 68.3933 28.3786C68.2063 28.5466 68.1127 28.7949 68.1127 29.1213V30.07C68.1063 30.2011 68.1297 30.332 68.1811 30.4527C68.2325 30.5733 68.3106 30.6805 68.4095 30.766C68.6166 30.9381 68.8788 31.0279 69.147 31.0187H70.9102C71.3403 31.0187 71.6478 30.9102 71.8327 30.6934C71.9485 30.56 72.0113 30.3882 72.009 30.2109V30.135H72.5863V30.1957C72.5912 30.4612 72.5063 30.7205 72.3455 30.9308C72.0681 31.2973 71.5926 31.4809 70.9188 31.4816H69.1373C68.5969 31.4816 68.1944 31.358 67.93 31.1108C67.6655 30.8636 67.5332 30.5177 67.5332 30.0732V29.1245C67.5239 28.9335 67.5548 28.7426 67.6239 28.5645C67.693 28.3864 67.7988 28.2251 67.9343 28.0912C68.221 27.8108 68.6377 27.6706 69.1846 27.6706H70.9328C71.4403 27.6706 71.8345 27.779 72.1154 27.9958C72.2616 28.1006 72.3804 28.2396 72.4615 28.4009C72.5426 28.5622 72.5836 28.7409 72.581 28.9218V28.9836H72.0036V28.9391C72.0087 28.8231 71.9849 28.7076 71.9346 28.6031C71.8843 28.4986 71.809 28.4084 71.7155 28.3406C71.5234 28.1961 71.256 28.1238 70.9134 28.1238L69.1868 28.1259ZM73.4034 31.4632V27.6901H73.9808V29.1213H74.6065L76.6912 27.6901H77.6126L75.1096 29.3685L77.8201 31.4686H76.9868L74.5947 29.5853H73.9765V31.4686L73.4034 31.4632ZM78.3748 31.4632V27.6901H78.9522V31.0338H79.136L82.399 27.6901H83.3613V31.4632H82.7839V28.1238H82.6237L79.3607 31.4686L78.3748 31.4632ZM88.696 29.1516C88.7031 29.0138 88.6819 28.876 88.6336 28.7469C88.5853 28.6177 88.511 28.5001 88.4154 28.4013C88.3089 28.3054 88.1847 28.2316 88.0498 28.1844C87.9149 28.1371 87.772 28.1172 87.6295 28.1259H85.8201C85.6852 28.12 85.5504 28.1414 85.4238 28.1887C85.2971 28.236 85.1811 28.3083 85.0825 28.4013C84.9869 28.5001 84.9127 28.6177 84.8644 28.7469C84.8161 28.876 84.7948 29.0138 84.8019 29.1516H88.696ZM84.7998 29.6113V29.9778C84.7998 30.345 84.9041 30.6157 85.1126 30.7899C85.294 30.9431 85.5556 31.0194 85.8975 31.0187H87.7822C88.0864 31.0187 88.3197 30.9536 88.467 30.8235C88.5401 30.7644 88.5987 30.6892 88.6384 30.6037C88.6781 30.5182 88.6978 30.4246 88.696 30.3302V30.2532H89.2734V30.3302C89.2755 30.4688 89.2504 30.6065 89.1994 30.7353C89.1485 30.864 89.0728 30.9814 88.9766 31.0805C88.7251 31.3457 88.3534 31.4784 87.8617 31.4784H85.9265C84.7933 31.4784 84.2267 31.0038 84.2267 30.0548V29.0649C84.2252 28.8835 84.2629 28.7041 84.3372 28.5389C84.4114 28.3737 84.5205 28.2269 84.6568 28.1086C84.9714 27.8195 85.3882 27.6749 85.9072 27.6749H87.5747C88.1194 27.6749 88.5441 27.8075 88.8487 28.0728C88.9859 28.1853 89.0959 28.3278 89.1705 28.4896C89.245 28.6513 89.282 28.828 89.2788 29.0063V29.6189L84.7998 29.6113ZM94.3555 27.6901H95.9112C96.4997 27.6901 96.938 27.8375 97.2261 28.1324C97.4712 28.3869 97.5941 28.7335 97.5949 29.1722V29.9962C97.5949 30.4603 97.4637 30.8159 97.2014 31.0664C96.919 31.3403 96.4889 31.4777 95.9112 31.4784H94.3577C94.0421 31.4896 93.7293 31.4147 93.4524 31.2615C93.3602 31.2005 93.2764 31.1276 93.203 31.0447V33.0039H92.6267V27.6955H93.203V28.101C93.2739 28.0228 93.3549 27.9546 93.4438 27.8982C93.7077 27.7551 94.0045 27.6852 94.3039 27.6955L94.3555 27.6901ZM93.2008 29.1722L93.1696 29.5842L93.2008 29.9962C93.1944 30.1309 93.2168 30.2654 93.2665 30.3906C93.3162 30.5157 93.3921 30.6286 93.4889 30.7216C93.704 30.92 94.0125 31.0187 94.4222 31.0187H95.7123C96.1488 31.0187 96.4767 30.9373 96.6939 30.7758C96.9111 30.6142 97.0218 30.3519 97.0218 29.9962V29.1722C97.0218 28.8263 96.9089 28.5683 96.6864 28.4002C96.4638 28.2322 96.1381 28.1487 95.7123 28.1487H94.4329C94.0222 28.1487 93.7147 28.2416 93.5105 28.4274C93.4085 28.5214 93.3281 28.6368 93.275 28.7655C93.2219 28.8941 93.1973 29.033 93.203 29.1722H93.2008ZM98.3324 30.0396C98.3266 29.9181 98.3498 29.7969 98.4001 29.6863C98.4505 29.5758 98.5264 29.479 98.6216 29.4042C98.8366 29.2362 99.1527 29.1516 99.5709 29.1516H101.889C102.168 29.1516 102.372 29.2004 102.501 29.2969C102.549 29.3376 102.586 29.3903 102.608 29.4498V28.9348C102.612 28.8342 102.595 28.7339 102.558 28.6405C102.521 28.5471 102.465 28.4626 102.393 28.3927C102.222 28.2354 101.972 28.1563 101.641 28.1563H100.11C99.7021 28.1563 99.415 28.2387 99.2495 28.4013C99.1871 28.4698 99.1453 28.5548 99.1291 28.6464V28.7841H98.5356V28.6464C98.4765 28.4295 98.5947 28.2073 98.8882 27.9882C99.1456 27.7945 99.5039 27.6977 99.9634 27.6977H101.703C102.223 27.6977 102.605 27.8144 102.85 28.0479C103.08 28.2647 103.195 28.59 103.194 29.0237V31.4675H102.618V31.1607C102.568 31.2189 102.511 31.2706 102.449 31.3147C102.289 31.4178 102.102 31.471 101.911 31.4675H99.6645C99.2273 31.4675 98.8961 31.3895 98.6711 31.2333C98.446 31.0772 98.3338 30.8336 98.3345 30.5026V30.0439L98.3324 30.0396ZM99.7795 29.6059C99.4301 29.6059 99.1979 29.6471 99.0828 29.7317C99.0215 29.7827 98.9736 29.8482 98.9434 29.9223C98.9132 29.9964 98.9017 30.077 98.9097 30.1567V30.4321C98.9029 30.5073 98.9148 30.5831 98.9443 30.6526C98.9737 30.722 99.0199 30.783 99.0785 30.83C99.2183 30.9319 99.452 30.9829 99.7795 30.9829H101.744C102.324 30.9829 102.614 30.7534 102.614 30.2944C102.622 30.1966 102.606 30.0983 102.569 30.0078C102.532 29.9172 102.473 29.837 102.399 29.774C102.254 29.6655 102.036 29.6059 101.747 29.6059H99.7795ZM109.05 29.9724C109.05 30.4119 108.922 30.7613 108.665 31.0208C108.367 31.3222 107.918 31.473 107.319 31.473H105.734C105.16 31.473 104.73 31.3439 104.443 31.0859C104.157 30.8278 104.013 30.4592 104.013 29.98V28.5445C104.013 28.0088 104.126 27.5726 104.35 27.2358C104.618 26.8332 105.019 26.6319 105.553 26.6319H107.309C107.704 26.6319 107.977 26.595 108.13 26.5234C108.201 26.4927 108.261 26.4407 108.302 26.3743C108.343 26.308 108.363 26.2307 108.359 26.1526H108.816C108.816 26.4942 108.708 26.737 108.483 26.8802C108.257 27.0233 107.898 27.097 107.391 27.097H105.699C105.321 27.097 105.034 27.217 104.839 27.457C104.668 27.6769 104.58 27.9508 104.591 28.23C104.684 28.0646 104.823 27.9292 104.99 27.8397C105.224 27.7245 105.482 27.6694 105.742 27.6792H107.327C107.942 27.6792 108.393 27.8271 108.679 28.1227C108.93 28.3771 109.056 28.7241 109.056 29.1635V29.9897L109.05 29.9724ZM108.473 29.1462C108.473 28.8144 108.365 28.5607 108.164 28.3872C107.963 28.2138 107.666 28.1227 107.282 28.1227H105.777C105.388 28.1227 105.092 28.2127 104.89 28.3905C104.786 28.4862 104.705 28.604 104.652 28.7353C104.6 28.8666 104.577 29.0081 104.585 29.1494V29.9756C104.585 30.6695 104.982 31.0165 105.777 31.0165H107.282C107.655 31.0165 107.947 30.9319 108.157 30.7606C108.367 30.5893 108.473 30.3269 108.473 29.9756V29.1494V29.1462ZM109.724 29.1462C109.724 28.6876 109.855 28.3319 110.117 28.0826C110.411 27.8021 110.857 27.6619 111.455 27.6619H113.043C113.657 27.6619 114.108 27.8097 114.398 28.1053C114.648 28.3598 114.774 28.7067 114.774 29.1462V29.9724C114.774 30.4119 114.646 30.7613 114.389 31.0208C114.091 31.3222 113.642 31.473 113.043 31.473H111.455C110.873 31.473 110.438 31.3465 110.152 31.0935C109.866 30.8405 109.723 30.4668 109.722 29.9724V29.1462H109.724ZM110.301 29.9724C110.301 30.6663 110.699 31.0132 111.496 31.0132H113.001C113.376 31.0132 113.669 30.9287 113.88 30.7574C114.091 30.5861 114.196 30.3237 114.196 29.9724V29.1462C114.196 28.8144 114.094 28.5607 113.887 28.3872C113.681 28.2138 113.386 28.1227 113.001 28.1227H111.496C111.095 28.1227 110.795 28.2044 110.597 28.3677C110.4 28.5311 110.301 28.7913 110.301 29.1484V29.9746V29.9724ZM118.07 31.4578H117.492V28.1541H115.328V27.6955H120.234V28.1541H118.07V31.4686V31.4578ZM125.83 30.0342C125.836 29.9127 125.813 29.7916 125.763 29.6811C125.712 29.5705 125.637 29.4737 125.542 29.3988C125.327 29.2308 125.012 29.1462 124.596 29.1462H121.516V27.6955H120.924V31.4686H124.499C124.938 31.4686 125.269 31.3906 125.493 31.2344C125.718 31.0783 125.83 30.8347 125.83 30.5036V30.045V30.0342ZM121.516 29.6005H124.387C124.735 29.6005 124.97 29.6464 125.092 29.7382C125.2 29.8141 125.253 29.955 125.253 30.1513V30.4267C125.259 30.5029 125.247 30.5794 125.217 30.65C125.188 30.7205 125.143 30.783 125.085 30.8322C124.945 30.9406 124.711 30.9926 124.378 30.9926H121.516V29.6168V29.6005ZM126.711 31.4524V27.6879H127.289V31.4686L126.711 31.4524Z" fill="white"/>
<path d="M130 22.8631H0V24.0818H130V22.8631Z" fill="white"/>
<path fill-rule="evenodd" clip-rule="evenodd" d="M64.5989 19.2429C63.9012 19.2429 63.9377 17.0657 64.5989 17.0495H65.5171V8.54482C65.5042 8.40123 65.5256 8.25661 65.5794 8.12305L66.547 3.97264C66.6116 3.75579 66.6051 3.7211 66.8212 3.7211H68.4339C68.5887 3.73303 68.6102 3.7894 68.6027 4.06371V20.2718C68.5971 20.3859 68.5471 20.4932 68.4636 20.5703C68.38 20.6474 68.2697 20.6882 68.1565 20.6838H66.8223C66.6497 20.6722 66.4865 20.6001 66.3611 20.48L65.5085 19.2407L64.5989 19.2429ZM64.8462 17.3758C64.6462 17.3758 64.4839 17.7185 64.4839 18.1402C64.4839 18.562 64.6462 18.8992 64.8462 18.8992C65.0462 18.8992 65.2085 18.5576 65.2085 18.1402C65.2085 17.7228 65.0451 17.3758 64.8462 17.3758Z" fill="#C84141"/>
<path fill-rule="evenodd" clip-rule="evenodd" d="M66.6772 0.00325209H74.7407C76.8533 -0.0227693 79.0412 0.481396 78.9616 3.31772V4.29353L75.6664 4.30328V3.47494C75.6567 3.14967 75.5073 3.01306 75.1955 3.00113H66.6848V0.526931L66.6772 0.00325209Z" fill="#C84141"/>
<path fill-rule="evenodd" clip-rule="evenodd" d="M73.6667 5.31811H73.9247L74.3999 4.93971C74.4399 4.89805 74.4895 4.86696 74.5442 4.84919C74.599 4.83141 74.6572 4.8275 74.7138 4.83779H75.5589V5.31811H74.8816C74.6407 5.31811 74.5192 5.31269 74.5289 5.61735V11.0244C74.5171 11.3323 74.6085 11.4093 74.8794 11.4093H78.9445V15.1781L75.9234 15.1596V11.9991L73.671 12.0186C73.3914 12.0121 73.2775 11.9276 73.2753 11.6608V10.298H72.5442C73.1356 9.01315 73.17 7.58739 72.5238 6.12369H73.2549L73.2764 5.66614C73.2635 5.34738 73.3646 5.32027 73.6667 5.31811Z" fill="#C84141"/>
<path fill-rule="evenodd" clip-rule="evenodd" d="M77.9789 6.12589H78.9465C79.884 7.45948 79.7539 9.22351 78.9465 10.5127H77.9789V9.66913C78.868 9.03811 78.9056 7.73813 77.9789 6.95857V6.12589Z" fill="white"/>
<path fill-rule="evenodd" clip-rule="evenodd" d="M79.4702 6.12805H79.7121C80.0101 6.82053 80.163 7.56767 80.1612 8.32257C80.1593 9.07747 80.0028 9.82384 79.7013 10.5148H79.4626C80.0322 9.10948 80.0349 7.53537 79.4702 6.12805Z" fill="white"/>
<path fill-rule="evenodd" clip-rule="evenodd" d="M76.993 6.81653C76.2006 6.81653 75.4878 7.48767 75.5114 8.30951C75.5104 8.506 75.5481 8.70073 75.6222 8.88246C75.6963 9.06418 75.8054 9.22929 75.9431 9.36822C76.0809 9.50716 76.2446 9.61718 76.4248 9.69191C76.605 9.76663 76.7981 9.80459 76.993 9.80358C76.2017 9.54554 75.8533 8.88524 75.8867 8.24446C75.9015 7.92015 76.0159 7.60851 76.2141 7.35268C76.4123 7.09685 76.6845 6.90949 76.993 6.81653Z" fill="white"/>
<path fill-rule="evenodd" clip-rule="evenodd" d="M71.5786 14.9623H72.171C72.3345 14.9754 72.3753 15.0534 72.3979 15.1857L73.0763 19.6104C73.1075 19.8273 73.1838 19.9953 73.4064 20.004H78.8895C79.0109 20.0317 79.1179 20.104 79.1894 20.2068L71.5743 20.2295L71.5786 14.9623Z" fill="white"/>
<path fill-rule="evenodd" clip-rule="evenodd" d="M75.8825 16.2851C75.8588 16.1181 75.9448 16.0184 76.0706 16.0108H78.7036C78.7361 16.0084 78.7688 16.0128 78.7996 16.0236C78.8304 16.0344 78.8587 16.0515 78.8828 16.0737C78.9069 16.0959 78.9262 16.1229 78.9395 16.1529C78.9529 16.1829 78.9601 16.2153 78.9606 16.2482L79.2519 18.0513C79.2723 18.1782 79.2401 18.2866 79.1046 18.2898H76.4362C76.2652 18.2898 76.1824 18.2389 76.1416 18.047L75.8825 16.2851Z" fill="white"/>
<path fill-rule="evenodd" clip-rule="evenodd" d="M73.0076 15.5175H78.6993C79.1293 15.5294 79.2476 15.6476 79.3132 15.9175L79.9325 19.8782H79.7529L79.1293 15.9978C79.0906 15.8232 78.938 15.7267 78.681 15.7245H73.0592L73.0076 15.5175Z" fill="white"/>
<path fill-rule="evenodd" clip-rule="evenodd" d="M71.1035 19.9238H79.196C79.3218 19.9238 79.426 19.9888 79.426 20.068V20.66C79.426 20.7391 79.3185 20.8042 79.196 20.8042H71.1035C70.9766 20.8042 70.8734 20.7391 70.8734 20.66V20.068C70.8734 19.9888 70.9766 19.9238 71.1035 19.9238Z" fill="white"/>
<path fill-rule="evenodd" clip-rule="evenodd" d="M77.3252 7.27301C77.0571 7.28174 76.8028 7.39528 76.6162 7.58963C76.4296 7.78397 76.3253 8.04389 76.3253 8.31441C76.3253 8.58493 76.4296 8.84485 76.6162 9.0392C76.8028 9.23355 77.0571 9.34709 77.3252 9.35582C77.0933 9.29089 76.8905 9.14795 76.7502 8.95074C76.61 8.75352 76.5409 8.51388 76.5543 8.27159C76.5641 8.04502 76.6435 7.82713 76.7817 7.64818C76.9198 7.46923 77.1098 7.33811 77.3252 7.27301Z" fill="white"/>
<path fill-rule="evenodd" clip-rule="evenodd" d="M77.9176 8.00918C77.8687 7.94268 77.8059 7.88783 77.7336 7.84849C77.6613 7.80915 77.5814 7.78628 77.4994 7.78149C77.3709 7.78312 77.248 7.83482 77.1564 7.92576C77.0648 8.0167 77.0117 8.13983 77.0081 8.2694C77.0134 8.86897 77.6424 8.92644 77.9112 8.57081C77.3596 8.88198 77.136 8.48299 77.1586 8.24554C77.179 7.90076 77.6789 7.80426 77.9176 8.00918Z" fill="white"/>
<path d="M77.6714 6.12589H74.8911V6.35479H77.6714V6.12589Z" fill="white"/>
<path fill-rule="evenodd" clip-rule="evenodd" d="M72.127 6.12155C73.0182 7.39009 72.7258 9.43168 72.1334 10.2969C72.2958 8.9098 72.2936 7.50813 72.127 6.12155Z" fill="white"/>
<path fill-rule="evenodd" clip-rule="evenodd" d="M73.4311 15.8915C73.3463 15.8955 73.2665 15.9329 73.2089 15.9959C73.1513 16.0588 73.1207 16.1421 73.1236 16.2276C73.123 16.3063 73.1492 16.3829 73.1978 16.4445C73.224 16.4782 73.2571 16.5059 73.2948 16.5256C73.3325 16.5453 73.374 16.5565 73.4165 16.5586C73.4589 16.5607 73.5013 16.5535 73.5408 16.5375C73.5802 16.5216 73.6158 16.4972 73.645 16.4661C73.5799 16.4866 73.5096 16.4826 73.4472 16.4549C73.3848 16.4272 73.3344 16.3777 73.3053 16.3154C73.2714 16.2415 73.2654 16.1575 73.2886 16.0794C73.3117 16.0014 73.3624 15.9345 73.4311 15.8915Z" fill="white"/>
<path fill-rule="evenodd" clip-rule="evenodd" d="M73.5268 16.503C73.442 16.507 73.3622 16.5445 73.3046 16.6074C73.247 16.6703 73.2164 16.7536 73.2193 16.8391C73.2185 16.9179 73.2447 16.9945 73.2935 17.056C73.3197 17.0897 73.3528 17.1174 73.3905 17.1371C73.4282 17.1568 73.4698 17.1681 73.5122 17.1701C73.5546 17.1722 73.597 17.165 73.6365 17.149C73.6759 17.1331 73.7115 17.1087 73.7408 17.0777C73.6756 17.098 73.6054 17.0941 73.5428 17.0666C73.4803 17.0392 73.4296 16.99 73.3999 16.928C73.3665 16.8537 73.3609 16.7697 73.3842 16.6915C73.4076 16.6134 73.4582 16.5464 73.5268 16.503Z" fill="white"/>
<path fill-rule="evenodd" clip-rule="evenodd" d="M73.6236 17.1058C73.5388 17.1098 73.459 17.1473 73.4014 17.2102C73.3438 17.2731 73.3132 17.3564 73.3161 17.4419C73.3151 17.5207 73.3414 17.5974 73.3903 17.6588C73.4165 17.6926 73.4496 17.7202 73.4873 17.7399C73.525 17.7596 73.5665 17.7709 73.609 17.7729C73.6514 17.775 73.6938 17.7678 73.7333 17.7518C73.7727 17.7359 73.8083 17.7115 73.8375 17.6805C73.7724 17.7013 73.702 17.6976 73.6393 17.6701C73.5767 17.6426 73.526 17.5931 73.4967 17.5309C73.4633 17.4565 73.4577 17.3725 73.481 17.2943C73.5044 17.2162 73.555 17.1492 73.6236 17.1058Z" fill="white"/>
<path fill-rule="evenodd" clip-rule="evenodd" d="M73.7321 17.7076C73.6473 17.7115 73.5675 17.749 73.5099 17.8119C73.4524 17.8749 73.4217 17.9581 73.4246 18.0437C73.4236 18.1225 73.4499 18.1991 73.4988 18.2605C73.5249 18.2944 73.5579 18.3221 73.5956 18.3419C73.6333 18.3617 73.6748 18.3731 73.7173 18.3752C73.7597 18.3774 73.8021 18.3703 73.8416 18.3544C73.8811 18.3386 73.9167 18.3143 73.9461 18.2833C73.8808 18.3038 73.8104 18.2998 73.7477 18.2721C73.6851 18.2444 73.6345 18.1949 73.6052 18.1326C73.5718 18.0583 73.5662 17.9742 73.5896 17.8961C73.6129 17.8179 73.6635 17.7509 73.7321 17.7076Z" fill="white"/>
<path fill-rule="evenodd" clip-rule="evenodd" d="M74.1709 15.8915C74.0863 15.8957 74.0067 15.9333 73.9494 15.9962C73.892 16.0591 73.8615 16.1422 73.8645 16.2276C73.8634 16.3062 73.8892 16.3828 73.9376 16.4445C73.9637 16.4782 73.9968 16.5059 74.0346 16.5256C74.0723 16.5453 74.1138 16.5565 74.1563 16.5586C74.1987 16.5607 74.2411 16.5535 74.2805 16.5375C74.32 16.5216 74.3555 16.4972 74.3848 16.4661C74.3197 16.4866 74.2494 16.4826 74.187 16.4549C74.1246 16.4272 74.0742 16.3777 74.0451 16.3154C74.0116 16.2414 74.0059 16.1576 74.029 16.0797C74.0522 16.0017 74.1026 15.9348 74.1709 15.8915Z" fill="white"/>
<path fill-rule="evenodd" clip-rule="evenodd" d="M74.2687 16.503C74.184 16.5072 74.1045 16.5449 74.0471 16.6078C73.9898 16.6706 73.9593 16.7537 73.9622 16.8391C73.961 16.9178 73.9869 16.9944 74.0353 17.056C74.0615 17.0897 74.0946 17.1174 74.1324 17.1371C74.1701 17.1568 74.2116 17.1681 74.2541 17.1701C74.2965 17.1722 74.3389 17.165 74.3783 17.149C74.4178 17.1331 74.4533 17.1087 74.4826 17.0777C74.4176 17.0982 74.3474 17.0943 74.285 17.0668C74.2226 17.0393 74.1721 16.9901 74.1429 16.928C74.1088 16.8539 74.1029 16.7698 74.126 16.6915C74.1492 16.6133 74.1999 16.5462 74.2687 16.503Z" fill="white"/>
<path fill-rule="evenodd" clip-rule="evenodd" d="M74.3654 17.1058C74.2806 17.1098 74.2008 17.1473 74.1432 17.2102C74.0857 17.2731 74.055 17.3564 74.0579 17.4419C74.057 17.5207 74.0832 17.5974 74.1321 17.6588C74.1583 17.6926 74.1914 17.7202 74.2291 17.7399C74.2669 17.7596 74.3084 17.7709 74.3508 17.7729C74.3932 17.775 74.4356 17.7678 74.4751 17.7518C74.5145 17.7359 74.5501 17.7115 74.5793 17.6805C74.5142 17.7013 74.4438 17.6976 74.3811 17.6701C74.3185 17.6426 74.2678 17.5931 74.2385 17.5309C74.2051 17.4565 74.1995 17.3725 74.2229 17.2943C74.2462 17.2162 74.2968 17.1492 74.3654 17.1058Z" fill="white"/>
<path fill-rule="evenodd" clip-rule="evenodd" d="M74.474 17.7076C74.3892 17.7115 74.3093 17.749 74.2517 17.8119C74.1942 17.8749 74.1635 17.9581 74.1665 18.0437C74.166 18.1224 74.1922 18.1989 74.2406 18.2605C74.2667 18.2944 74.2998 18.3221 74.3375 18.3419C74.3752 18.3617 74.4167 18.3731 74.4591 18.3752C74.5016 18.3774 74.544 18.3703 74.5835 18.3544C74.6229 18.3386 74.6586 18.3143 74.6879 18.2833C74.6228 18.3037 74.5525 18.2997 74.4901 18.272C74.4276 18.2443 74.3772 18.1948 74.3482 18.1326C74.3141 18.0585 74.3082 17.9744 74.3313 17.8961C74.3545 17.8178 74.4052 17.7508 74.474 17.7076Z" fill="white"/>
<path fill-rule="evenodd" clip-rule="evenodd" d="M74.9127 15.8915C74.8281 15.8957 74.7485 15.9333 74.6912 15.9962C74.6338 16.0591 74.6033 16.1422 74.6063 16.2276C74.6052 16.3064 74.6314 16.3831 74.6805 16.4445C74.7066 16.4782 74.7397 16.5059 74.7775 16.5256C74.8152 16.5453 74.8567 16.5565 74.8992 16.5586C74.9416 16.5607 74.984 16.5535 75.0234 16.5375C75.0629 16.5216 75.0984 16.4972 75.1277 16.4661C75.0624 16.4866 74.992 16.4827 74.9294 16.455C74.8668 16.4273 74.8162 16.3777 74.7869 16.3154C74.7534 16.2414 74.7477 16.1576 74.7708 16.0797C74.794 16.0017 74.8444 15.9348 74.9127 15.8915Z" fill="white"/>
<path fill-rule="evenodd" clip-rule="evenodd" d="M75.0105 16.503C74.9259 16.5072 74.8463 16.5449 74.789 16.6078C74.7316 16.6706 74.7011 16.7537 74.7041 16.8391C74.7028 16.9179 74.7291 16.9947 74.7782 17.056C74.8043 17.0897 74.8373 17.1174 74.875 17.1371C74.9126 17.1567 74.954 17.168 74.9964 17.1701C75.0388 17.1721 75.0811 17.1649 75.1204 17.149C75.1598 17.133 75.1953 17.1087 75.2244 17.0777C75.1594 17.0982 75.0893 17.0943 75.0268 17.0668C74.9644 17.0393 74.9139 16.9901 74.8847 16.928C74.8511 16.8538 74.8454 16.7699 74.8685 16.6917C74.8916 16.6136 74.9421 16.5465 75.0105 16.503Z" fill="white"/>
<path fill-rule="evenodd" clip-rule="evenodd" d="M75.1073 17.1058C75.0226 17.1101 74.9431 17.1477 74.8858 17.2106C74.8284 17.2735 74.7979 17.3566 74.8009 17.4419C74.7995 17.5206 74.8253 17.5973 74.874 17.6588C74.9001 17.6926 74.9332 17.7202 74.971 17.7399C75.0087 17.7596 75.0502 17.7709 75.0927 17.7729C75.1351 17.775 75.1775 17.7678 75.2169 17.7518C75.2564 17.7359 75.2919 17.7115 75.3212 17.6805C75.2562 17.7015 75.1859 17.6978 75.1233 17.6703C75.0608 17.6428 75.0104 17.5932 74.9815 17.5309C74.9479 17.4566 74.9422 17.3727 74.9653 17.2946C74.9884 17.2164 75.0389 17.1494 75.1073 17.1058Z" fill="white"/>
<path fill-rule="evenodd" clip-rule="evenodd" d="M75.2159 17.7076C75.1313 17.7118 75.0517 17.7494 74.9944 17.8123C74.9371 17.8752 74.9066 17.9583 74.9095 18.0437C74.9081 18.1225 74.9343 18.1994 74.9837 18.2605C75.0097 18.2943 75.0426 18.3221 75.0802 18.3419C75.1178 18.3617 75.1592 18.373 75.2016 18.3752C75.2439 18.3774 75.2863 18.3703 75.3257 18.3544C75.3651 18.3385 75.4006 18.3143 75.4298 18.2833C75.3647 18.3037 75.2944 18.2997 75.232 18.272C75.1696 18.2443 75.1192 18.1948 75.0901 18.1326C75.0566 18.0584 75.0508 17.9744 75.074 17.8963C75.0971 17.8181 75.1475 17.7511 75.2159 17.7076Z" fill="white"/>
<path fill-rule="evenodd" clip-rule="evenodd" d="M74.5256 18.5197C74.4611 18.5233 74.4005 18.5522 74.3567 18.6002C74.3129 18.6481 74.2895 18.7114 74.2912 18.7766C74.2902 18.8373 74.3103 18.8964 74.3482 18.9436C74.368 18.9694 74.3932 18.9907 74.4219 19.0058C74.4507 19.021 74.4823 19.0297 74.5147 19.0313C74.547 19.033 74.5794 19.0275 74.6095 19.0154C74.6396 19.0032 74.6667 18.9847 74.689 18.9609C74.6394 18.9767 74.5857 18.9737 74.5381 18.9525C74.4904 18.9314 74.452 18.8935 74.4299 18.846C74.4037 18.7892 74.3989 18.7247 74.4165 18.6646C74.4341 18.6045 74.4729 18.5529 74.5256 18.5197Z" fill="white"/>
<path fill-rule="evenodd" clip-rule="evenodd" d="M74.0504 18.8395C73.9858 18.8432 73.9253 18.8721 73.8815 18.92C73.8377 18.968 73.8142 19.0313 73.816 19.0965C73.8149 19.1572 73.8351 19.2163 73.873 19.2635C73.8928 19.2893 73.918 19.3106 73.9467 19.3257C73.9754 19.3409 74.0071 19.3496 74.0394 19.3512C74.0718 19.3528 74.1042 19.3474 74.1343 19.3353C74.1644 19.3231 74.1915 19.3045 74.2138 19.2808C74.1642 19.2965 74.1105 19.2936 74.0629 19.2724C74.0152 19.2513 73.9768 19.2134 73.9547 19.1659C73.9284 19.1091 73.9237 19.0446 73.9413 18.9845C73.9589 18.9243 73.9977 18.8728 74.0504 18.8395Z" fill="white"/>
<path fill-rule="evenodd" clip-rule="evenodd" d="M75.1105 18.8406C75.0458 18.844 74.9851 18.8728 74.9413 18.9208C74.8974 18.9689 74.874 19.0323 74.8761 19.0976C74.8746 19.1582 74.8944 19.2173 74.932 19.2646C74.9519 19.2904 74.9772 19.3117 75.006 19.3268C75.0348 19.342 75.0665 19.3507 75.099 19.3523C75.1315 19.354 75.1639 19.3485 75.1941 19.3364C75.2243 19.3242 75.2515 19.3056 75.2739 19.2819C75.2241 19.2979 75.1702 19.2951 75.1223 19.2739C75.0744 19.2528 75.0358 19.2148 75.0137 19.167C74.9878 19.11 74.9833 19.0455 75.0011 18.9854C75.0189 18.9254 75.0578 18.8739 75.1105 18.8406Z" fill="white"/>
<path fill-rule="evenodd" clip-rule="evenodd" d="M74.5977 19.2049C74.533 19.2083 74.4723 19.2371 74.4284 19.2851C74.3846 19.3332 74.3612 19.3966 74.3633 19.4619C74.3624 19.5224 74.3821 19.5813 74.4192 19.6289C74.4392 19.6547 74.4645 19.6758 74.4934 19.6909C74.5222 19.7059 74.554 19.7145 74.5864 19.7161C74.6189 19.7176 74.6513 19.7121 74.6814 19.6998C74.7116 19.6876 74.7387 19.6689 74.7611 19.6451C74.7113 19.6611 74.6574 19.6583 74.6095 19.6371C74.5616 19.616 74.523 19.578 74.5009 19.5302C74.475 19.4734 74.4706 19.409 74.4884 19.3491C74.5062 19.2893 74.5451 19.238 74.5977 19.2049Z" fill="white"/>
<path fill-rule="evenodd" clip-rule="evenodd" d="M76.5705 18.9794C76.5683 19.0557 76.5365 19.1281 76.4821 19.1812C76.4277 19.2343 76.3548 19.2638 76.2791 19.2635C76.2086 19.2666 76.1392 19.2443 76.0835 19.2006C76.053 19.1777 76.0278 19.1485 76.0095 19.1149C75.9913 19.0813 75.9805 19.0442 75.9778 19.0059C75.9752 18.9677 75.9807 18.9294 75.9941 18.8936C76.0076 18.8577 76.0285 18.8252 76.0555 18.7983C76.0383 18.8574 76.043 18.9208 76.0687 18.9767C76.0944 19.0325 76.1394 19.0771 76.1953 19.1019C76.2619 19.1314 76.3368 19.1352 76.406 19.1126C76.4752 19.09 76.5337 19.0426 76.5705 18.9794Z" fill="white"/>
<path fill-rule="evenodd" clip-rule="evenodd" d="M77.4984 18.9794C77.4961 19.0557 77.4644 19.1281 77.41 19.1812C77.3555 19.2343 77.2827 19.2638 77.207 19.2635C77.1365 19.2666 77.0671 19.2443 77.0113 19.2006C76.9808 19.1778 76.9555 19.1487 76.9371 19.1151C76.9188 19.0816 76.9079 19.0444 76.9051 19.0062C76.9024 18.968 76.9078 18.9296 76.9212 18.8937C76.9345 18.8579 76.9553 18.8253 76.9823 18.7983C76.9654 18.8576 76.9704 18.921 76.9963 18.9768C77.0222 19.0326 77.0672 19.0771 77.1232 19.1019C77.1897 19.1312 77.2646 19.1348 77.3338 19.1123C77.4029 19.0897 77.4614 19.0425 77.4984 18.9794Z" fill="white"/>
<path fill-rule="evenodd" clip-rule="evenodd" d="M78.4262 18.9794C78.424 19.0557 78.3922 19.1281 78.3378 19.1812C78.2834 19.2343 78.2105 19.2638 78.1348 19.2635C78.0643 19.2666 77.9949 19.2443 77.9392 19.2006C77.9084 19.1779 77.883 19.1488 77.8645 19.1153C77.8461 19.0817 77.8351 19.0445 77.8324 19.0062C77.8296 18.968 77.8351 18.9296 77.8485 18.8937C77.862 18.8578 77.883 18.8252 77.9101 18.7983C77.8932 18.8576 77.8982 18.921 77.9241 18.9768C77.95 19.0326 77.9951 19.0771 78.051 19.1019C78.1176 19.1312 78.1925 19.1348 78.2616 19.1123C78.3307 19.0897 78.3892 19.0425 78.4262 18.9794Z" fill="white"/>
<path fill-rule="evenodd" clip-rule="evenodd" d="M79.354 18.9794C79.3518 19.0557 79.3201 19.1281 79.2657 19.1812C79.2112 19.2343 79.1384 19.2638 79.0627 19.2635C78.9921 19.2666 78.9228 19.2443 78.867 19.2006C78.8363 19.1779 78.8108 19.1488 78.7924 19.1153C78.774 19.0817 78.763 19.0445 78.7602 19.0062C78.7575 18.968 78.763 18.9296 78.7764 18.8937C78.7898 18.8578 78.8108 18.8252 78.838 18.7983C78.821 18.8574 78.8258 18.9207 78.8515 18.9765C78.8772 19.0323 78.922 19.0769 78.9778 19.1019C79.0445 19.1312 79.1196 19.1349 79.1889 19.1124C79.2581 19.0898 79.3169 19.0425 79.354 18.9794Z" fill="white"/>
<path d="M77.6714 6.12589H74.8911V6.35479H77.6714V6.12589Z" fill="white"/>
<path d="M77.6714 10.2774H74.8911V10.5063H77.6714V10.2774Z" fill="white"/>
<path fill-rule="evenodd" clip-rule="evenodd" d="M75.347 11.8886H75.6276L75.6233 15.6877H75.3417L75.347 11.8886Z" fill="white"/>
<path fill-rule="evenodd" clip-rule="evenodd" d="M22.3454 18.3094H19.9329V13.8185H16.2774V18.3094H13.8691V9.60844C13.8691 8.13606 14.1476 7.03521 14.7045 6.30589C15.2614 5.57656 16.0581 5.21154 17.0945 5.21081H19.0426C20.1056 5.21081 20.922 5.57584 21.4918 6.30589C22.0616 7.03593 22.3462 8.13678 22.3454 9.60844V18.3094ZM19.9329 10.0953C19.9329 9.66157 19.8526 9.34028 19.692 9.13138C19.5308 8.92538 19.2717 8.82238 18.9126 8.82238H17.2612C16.6053 8.82238 16.2774 9.24667 16.2774 10.0953V11.0114H19.9329V10.0953ZM32.5118 10.2633C32.5118 11.2991 32.2707 12.1007 31.7883 12.6681C31.3059 13.2355 30.4834 13.5193 29.3209 13.5193H26.4642V18.3094H24.0517V9.92612H29.566C29.8133 9.92612 29.9713 9.88926 30.039 9.8177C30.1068 9.74614 30.1412 9.60085 30.1412 9.38401C30.1552 9.22725 30.1194 9.07007 30.039 8.93514C29.9713 8.84732 29.8133 8.80395 29.566 8.80395H24.0517V5.21081H29.3198C29.8373 5.19874 30.3535 5.26824 30.8497 5.41682C31.2285 5.53057 31.5689 5.7474 31.8334 6.0435C32.0844 6.34419 32.2623 6.69989 32.3527 7.08219C32.4643 7.54782 32.5174 8.02573 32.5108 8.5047V10.2633H32.5118ZM42.2708 15.0155C42.2777 15.4944 42.2249 15.9723 42.1138 16.438C42.0234 16.8205 41.8451 17.1763 41.5934 17.4767C41.3289 17.7724 40.989 17.9891 40.6108 18.1034C40.1145 18.2518 39.5983 18.3213 39.0809 18.3094H33.8127V14.7162H39.3228C39.5711 14.7162 39.7281 14.6729 39.7969 14.5851C39.8768 14.45 39.9122 14.2928 39.898 14.1362C39.898 13.9193 39.8646 13.7806 39.7969 13.7025C39.7292 13.6244 39.5711 13.5941 39.3228 13.5941H33.8117V5.21081H36.2232V10.0009H39.0809C40.2441 10.0009 41.0666 10.285 41.5483 10.8531C42.0299 11.4213 42.2711 12.2225 42.2718 13.2569V15.0155H42.2708ZM43.5695 8.80395V5.21081H52.0361V8.82238L43.5749 8.80395H43.5695ZM43.5695 18.3094V9.88926H50.918V13.4813H45.9832V14.7162H52.0361V18.3094H43.5695ZM61.994 10.2633C61.994 11.2991 61.7528 12.1007 61.2704 12.6681C60.788 13.2355 59.9677 13.5193 58.8094 13.5193H55.9464V18.3094H53.5349V9.92612H59.0449C59.2922 9.92612 59.4502 9.88926 59.5179 9.8177C59.5857 9.74614 59.6201 9.60085 59.6201 9.38401C59.6346 9.22721 59.5988 9.06987 59.5179 8.93514C59.4502 8.84732 59.2922 8.80395 59.0449 8.80395H53.5349V5.21081H58.803C59.3208 5.19875 59.8374 5.26825 60.334 5.41682C60.7122 5.53105 61.0521 5.74783 61.3166 6.0435C61.5683 6.34386 61.7466 6.69965 61.837 7.08219C61.9476 7.54796 62.0003 8.0258 61.994 8.5047V10.2633Z" fill="white"/>
<path fill-rule="evenodd" clip-rule="evenodd" d="M90.1934 10.3078C90.1934 11.3284 89.9497 12.1177 89.4623 12.6757C88.9749 13.2337 88.1428 13.5135 86.9658 13.5149H84.0748V18.2334H81.6354V9.97598H87.2099C87.4604 9.97598 87.6195 9.93912 87.6883 9.86756C87.7571 9.796 87.7958 9.65071 87.7958 9.44363C87.8087 9.2883 87.771 9.13297 87.6883 9.00126C87.6195 8.91561 87.4604 8.87224 87.2099 8.87224H81.6354V5.33116H86.9658C87.4891 5.31868 88.0112 5.38706 88.514 5.53391C88.8948 5.64501 89.2385 5.85822 89.5085 6.15083C89.7617 6.44515 89.9419 6.79597 90.0343 7.17434C90.1467 7.63246 90.2002 8.10327 90.1934 8.57516V10.3099V10.3078ZM94.5853 18.2334C93.5596 18.2334 92.7651 17.9783 92.2017 17.468C91.6383 16.9577 91.357 16.1438 91.3577 15.0263V8.57516C91.3577 7.5184 91.6297 6.71355 92.1738 6.16059C92.7178 5.60764 93.5216 5.33116 94.5853 5.33116H96.7065C97.7701 5.33116 98.574 5.60764 99.118 6.16059C99.662 6.71355 99.9344 7.5184 99.9351 8.57516V15.0263C99.9351 16.1438 99.6534 16.9577 99.09 17.468C98.5267 17.9783 97.7322 18.2334 96.7065 18.2334H94.5853ZM96.7065 14.6945C97.029 14.6945 97.2441 14.6327 97.3354 14.5102C97.4268 14.3877 97.4763 14.1849 97.4763 13.902V9.68107C97.4763 9.38616 97.4103 9.18016 97.2785 9.06306C97.1154 8.9363 96.9119 8.87419 96.7065 8.8885H94.5853C94.3799 8.87439 94.1765 8.93648 94.0133 9.06306C93.8821 9.18016 93.8165 9.38616 93.8165 9.68107V13.902C93.8165 14.1849 93.8628 14.3877 93.9574 14.5102C94.052 14.6327 94.2606 14.6945 94.5853 14.6945H96.7065Z" fill="white"/>
<path fill-rule="evenodd" clip-rule="evenodd" d="M0 0H3.35332V18.1912H0V0ZM4.95741 2.43409L6.98832 0H12.1113L5.02944 7.6232L12.4123 18.1912H6.82168L4.95741 15.2735V2.43409Z" fill="#C84141"/>
<path fill-rule="evenodd" clip-rule="evenodd" d="M101.5 8.80286V5.21082H109.96V8.82238L101.5 8.80286ZM101.5 18.3072V9.88817H108.847V13.4802H103.912V14.7151H109.96V18.3094L101.5 18.3072Z" fill="white"/>
<path fill-rule="evenodd" clip-rule="evenodd" d="M111.383 5.21082H113.795V9.178V16.605V18.3094H111.383V5.21082ZM115.055 6.72873L116.516 5.21082H120.243L115.055 10.6883V6.72765V6.72873ZM115.055 10.6927L120.43 18.3083H116.404L115.056 16.3025L115.055 10.6927Z" fill="white"/>
<path fill-rule="evenodd" clip-rule="evenodd" d="M130 8.82236H121.506V5.21188H130V8.82236ZM126.972 9.9261V18.3093H124.542V9.92827L126.972 9.9261Z" fill="white"/>
</svg>
