<svg xmlns="http://www.w3.org/2000/svg">
<defs>
<symbol id="theodolite" width="50" height="50" viewBox="0 0 50 50" fill="none">
<path d="M25.036 9.16626C23.1952 9.16626 21.7029 10.6589 21.7029 12.4997C21.7029 14.3405 23.1952 15.8328 25.036 15.8328C26.8771 15.8328 28.3695 14.3405 28.3695 12.4997C28.3695 10.6589 26.8771 9.16626 25.036 9.16626ZM25.036 14.1663C24.1156 14.1663 23.3694 13.4201 23.3694 12.4997C23.3694 11.579 24.1156 10.8328 25.036 10.8328C25.9567 10.8328 26.7029 11.579 26.7029 12.4997C26.7029 13.4201 25.9567 14.1663 25.036 14.1663Z" fill="#C84141"/>
<path d="M44.7673 45.2241C44.7603 45.0956 44.7227 44.9705 44.6583 44.8585L33.2194 24.9997H35.0361C35.496 24.9997 35.8696 24.6265 35.8696 24.166V19.1663C35.8696 18.7061 35.496 18.3332 35.0361 18.3332H30.8692V5.83314C30.8692 5.37294 30.4963 5.00001 30.0361 5.00001H28.3695V0.833437C28.3695 0.372926 27.9963 0 27.5361 0H22.5361C22.0759 0 21.703 0.372926 21.703 0.833437V5.00001H20.0364C19.5759 5.00001 19.2027 5.37294 19.2027 5.83345V18.3332H15.0364C14.5762 18.3332 14.2032 18.7061 14.2032 19.1663V24.166C14.2032 24.6265 14.5762 24.9997 15.0364 24.9997H16.8528L5.41416 44.8582C5.34977 44.9705 5.31223 45.0956 5.30491 45.2241L5.07999 48.9485C5.04947 49.4071 5.39707 49.8045 5.85636 49.835C6.03824 49.8472 6.21952 49.799 6.3715 49.6983L9.48064 47.6399C9.58806 47.5682 9.67778 47.4729 9.74217 47.3606L22.5361 25.142V45.8326C22.5361 45.9617 22.5663 46.0893 22.6237 46.2052L24.2906 49.5384C24.4956 49.9501 24.9961 50.1176 25.4078 49.9122C25.5699 49.8313 25.7011 49.7001 25.782 49.5384L27.4485 46.2052C27.5062 46.0893 27.5364 45.9617 27.5361 45.8326V25.142L40.33 47.3564C40.3947 47.4687 40.4841 47.5639 40.5919 47.6356L43.7007 49.694C43.8374 49.784 43.9973 49.8326 44.1609 49.8323C44.6208 49.8335 44.9947 49.4612 44.9956 49.0007C44.9956 48.983 44.9953 48.9659 44.994 48.9485L44.7673 45.2241ZM23.3695 1.66657H26.703V5.00001H23.3695V1.66657ZM20.8695 6.66658H29.2027V18.3332H20.8695V6.66658ZM15.8698 19.9997H34.2027V23.3329H15.8698V19.9997ZM8.39573 46.3551L6.84391 47.3817L6.95652 45.5201L18.7763 24.9997H20.6928L8.39573 46.3551ZM25.8698 45.6361L25.0361 47.3023L24.2027 45.6361V24.9997H25.8692L25.8698 45.6361ZM41.6768 46.3551L29.3778 24.9997H31.2944L43.119 45.5201L43.2316 47.3817L41.6768 46.3551Z" fill="#303030"/>
</symbol>

<symbol id="helmet" width="50" height="50" viewBox="0 0 50 50" fill="none">
<path d="M47.5 22.5H47.4667C47.1506 13.2613 41.1901 5.16625 32.4617 2.12167C32.2754 0.904792 31.231 0.0046875 30 0H20C18.769 0.0046875 17.7246 0.904792 17.5383 2.12167C8.80989 5.16625 2.84938 13.2613 2.53333 22.5H2.5C1.11927 22.5 0 23.6193 0 25V26.6667C0 28.0474 1.11927 29.1667 2.5 29.1667H47.5C48.8807 29.1667 50 28.0474 50 26.6667V25C50 23.6193 48.8807 22.5 47.5 22.5ZM17.5 3.90917V18.3333C17.5 18.7935 17.8731 19.1667 18.3333 19.1667C18.7935 19.1667 19.1667 18.7935 19.1667 18.3333V2.5C19.1667 2.03979 19.5398 1.66667 20 1.66667H24.1667V20C24.1667 20.4602 24.5398 20.8333 25 20.8333C25.4602 20.8333 25.8333 20.4602 25.8333 20V1.66667H30C30.4602 1.66667 30.8333 2.03979 30.8333 2.5V18.3333C30.8333 18.7935 31.2065 19.1667 31.6667 19.1667C32.1269 19.1667 32.5 18.7935 32.5 18.3333V3.90917C40.2575 6.88188 45.4916 14.1981 45.8 22.5H4.2C4.50844 14.1981 9.7425 6.88188 17.5 3.90917ZM48.3333 26.6667C48.3333 27.1269 47.9602 27.5 47.5 27.5H2.5C2.03979 27.5 1.66667 27.1269 1.66667 26.6667V25C1.66667 24.5398 2.03979 24.1667 2.5 24.1667H47.5C47.9602 24.1667 48.3333 24.5398 48.3333 25V26.6667Z" fill="#C84141"/>
<path d="M20.8333 36.6667H10C8.61927 36.6667 7.5 37.786 7.5 39.1667V42.5001C7.5 42.9603 7.87312 43.3334 8.33333 43.3334C8.79354 43.3334 9.16667 42.9603 9.16667 42.5001V39.1667C9.16667 38.7065 9.53979 38.3334 10 38.3334H20.8333C21.2935 38.3334 21.6667 37.9603 21.6667 37.5001C21.6667 37.0399 21.2935 36.6667 20.8333 36.6667Z" fill="#C84141"/>
<path d="M49.1667 36.6666H45.75C45.3514 34.7279 43.6459 33.3358 41.6667 33.3333H8.33333C6.03333 33.336 4.16937 35.1999 4.16667 37.4999H0.833333C0.373125 37.4999 0 37.873 0 38.3333V44.9999C0 45.4601 0.373125 45.8333 0.833333 45.8333H4.41667C5.1551 48.3015 7.42365 49.9944 10 49.9999H15C18.8133 49.9891 22.3432 47.9848 24.3067 44.7158C24.5458 44.3328 25.0502 44.2164 25.4331 44.4555C25.5385 44.5214 25.6275 44.6103 25.6933 44.7158C27.6568 47.9848 31.1867 49.9891 35 49.9999H40C42.8972 49.9965 45.3528 47.8673 45.7667 44.9999H49.1667C49.6269 44.9999 50 44.6268 50 44.1666V37.4999C50 37.0397 49.6269 36.6666 49.1667 36.6666ZM4.16667 44.1666H1.66667V41.6666H4.16667V44.1666ZM4.16667 39.9999H1.66667V39.1666H4.16667V39.9999ZM44.1667 44.1666C44.164 46.4666 42.3 48.3305 40 48.3332H35C31.7726 48.3238 28.7851 46.6274 27.1233 43.8607C26.4136 42.6871 24.8869 42.3111 23.7133 43.0208C23.3695 43.2287 23.0812 43.5169 22.8733 43.8607C21.2122 46.6264 18.2261 48.3226 15 48.3332H10C7.7 48.3305 5.83604 46.4666 5.83333 44.1666V37.4999C5.83333 36.1192 6.9526 34.9999 8.33333 34.9999H41.6667C43.0474 34.9999 44.1667 36.1192 44.1667 37.4999V44.1666ZM48.3333 43.3333H45.8333V40.8333H48.3333V43.3333ZM48.3333 39.1666H45.8333V38.3333H48.3333V39.1666Z" fill="#303030"/>
<path d="M25.8334 36.6667H24.1667C23.7065 36.6667 23.3334 37.0399 23.3334 37.5001C23.3334 37.9603 23.7065 38.3334 24.1667 38.3334H25.8334C26.2936 38.3334 26.6667 37.9603 26.6667 37.5001C26.6667 37.0399 26.2936 36.6667 25.8334 36.6667Z" fill="#C84141"/>
</symbol>

<symbol id="diploma" width="50" height="50" viewBox="0 0 50 50" fill="none">
<g clip-path="url(#clip0)">
<path d="M47.2881 2.24609H2.71187C1.21651 2.24609 0 3.4626 0 4.95796V14.777C0 15.1852 0.331116 15.5167 0.73967 15.5167C1.14822 15.5167 1.47934 15.1852 1.47934 14.777V4.95796C1.47934 4.27856 2.03247 3.72543 2.71187 3.72543H47.2881C47.9679 3.72543 48.5207 4.27856 48.5207 4.95796V34.544C48.5207 35.2238 47.9675 35.7765 47.2881 35.7765H31.9748C32.0248 35.4385 32.0511 35.0929 32.0511 34.7408C32.0511 34.3891 32.0248 34.0435 31.9748 33.7055H41.568C41.9765 33.7055 42.3077 33.3744 42.3077 32.9659C42.3077 31.0898 43.8339 29.5635 45.71 29.5635C46.1185 29.5635 46.4497 29.2324 46.4497 28.8239V16.2418C46.4497 15.8333 46.1185 15.5022 45.71 15.5022C45.3014 15.5022 44.9703 15.8333 44.9703 16.2418V28.1403C42.8696 28.4611 41.2048 30.1254 40.8844 32.2262H31.5861C30.571 29.5769 28.0022 27.6897 25 27.6897C21.9978 27.6897 19.429 29.5769 18.4139 32.2262H9.1156C8.79517 30.1254 7.13043 28.4611 5.02968 28.1403V11.3617C7.13043 11.0409 8.79517 9.37653 9.1156 7.27577H40.8844C41.2052 9.37653 42.8696 11.0409 44.9703 11.3617V12.7922C44.9703 13.2008 45.3018 13.5319 45.71 13.5319C46.1185 13.5319 46.4497 13.2008 46.4497 12.7922V10.6781C46.4497 10.2695 46.1185 9.93843 45.71 9.93843C43.8339 9.93843 42.3077 8.41217 42.3077 6.5361C42.3077 6.12755 41.9765 5.79643 41.568 5.79643H8.43201C8.02345 5.79643 7.69234 6.12755 7.69234 6.5361C7.69234 8.41217 6.16608 9.93843 4.29001 9.93843C3.88145 9.93843 3.55034 10.2695 3.55034 10.6781V28.8239C3.55034 29.2324 3.88145 29.5635 4.29001 29.5635C6.16608 29.5635 7.69234 31.0898 7.69234 32.9659C7.69234 33.3744 8.02345 33.7055 8.43201 33.7055H18.0252C17.9752 34.0439 17.9489 34.3895 17.9489 34.7412C17.9489 35.0929 17.9752 35.4385 18.0252 35.7769H2.71187C2.03209 35.7769 1.47934 35.2238 1.47934 34.544V18.2163C1.47934 17.8078 1.14822 17.4767 0.73967 17.4767C0.331116 17.4767 0 17.8078 0 18.2163V34.544C0 36.0394 1.21651 37.2559 2.71187 37.2559H18.4139C18.6634 37.9074 19.0071 38.5124 19.4279 39.0549V46.97C19.4279 47.2164 19.5507 47.4464 19.7552 47.5838C19.9596 47.7211 20.219 47.7478 20.4472 47.6547L25 45.7962L29.5528 47.6547C29.6429 47.6913 29.7379 47.7097 29.8321 47.7097C29.977 47.7097 30.1212 47.6669 30.2448 47.5838C30.4493 47.4464 30.5721 47.2164 30.5721 46.97V44.8544C30.5721 44.4458 30.2406 44.1147 29.8325 44.1147C29.4239 44.1147 29.0928 44.4458 29.0928 44.8544V45.8691L25.2796 44.3127C25.1003 44.2398 24.8997 44.2398 24.7204 44.3127L20.9072 45.8691V40.4778C22.0623 41.304 23.4749 41.7923 25 41.7923C26.5251 41.7923 27.9377 41.304 29.0928 40.4778V41.3979C29.0928 41.8064 29.4239 42.1375 29.8325 42.1375C30.2406 42.1375 30.5721 41.8064 30.5721 41.3979V39.0549C30.9929 38.5124 31.3366 37.9074 31.5861 37.2559H47.2881C48.7835 37.2559 50 36.0394 50 34.544V4.95796C50 3.4626 48.7835 2.24609 47.2881 2.24609V2.24609ZM25 40.313C21.9276 40.313 19.4279 37.8136 19.4279 34.7412C19.4279 31.6689 21.9276 29.1691 25 29.1691C28.0724 29.1691 30.5721 31.6689 30.5721 34.7412C30.5721 37.8136 28.0724 40.313 25 40.313Z" fill="#303030"/>
<path d="M31.509 12.0094C31.9176 12.0094 32.2487 11.6783 32.2487 11.2697C32.2487 10.8611 31.9176 10.53 31.509 10.53H18.491C18.0825 10.53 17.7513 10.8611 17.7513 11.2697C17.7513 11.6783 18.0825 12.0094 18.491 12.0094H31.509Z" fill="#C84141"/>
<path d="M36.4399 14.4749H13.5601C13.1516 14.4749 12.8204 14.806 12.8204 15.2145C12.8204 15.6231 13.1516 15.9542 13.5601 15.9542H36.4399C36.8484 15.9542 37.1796 15.6231 37.1796 15.2145C37.1796 14.806 36.8484 14.4749 36.4399 14.4749Z" fill="#C84141"/>
<path d="M36.4399 18.4197H13.5601C13.1516 18.4197 12.8204 18.7508 12.8204 19.1593C12.8204 19.5679 13.1516 19.899 13.5601 19.899H36.4399C36.8484 19.899 37.1796 19.5679 37.1796 19.1593C37.1796 18.7508 36.8484 18.4197 36.4399 18.4197Z" fill="#C84141"/>
<path d="M36.4399 22.9561H32.8896C32.481 22.9561 32.1499 23.2872 32.1499 23.6957C32.1499 24.1043 32.481 24.4354 32.8896 24.4354H36.4399C36.8485 24.4354 37.1796 24.1043 37.1796 23.6957C37.1796 23.2872 36.8485 22.9561 36.4399 22.9561Z" fill="#C84141"/>
<path d="M13.5601 22.9561C13.1516 22.9561 12.8204 23.2872 12.8204 23.6957C12.8204 24.1043 13.1516 24.4354 13.5601 24.4354H17.1104C17.519 24.4354 17.8501 24.1043 17.8501 23.6957C17.8501 23.2872 17.519 22.9561 17.1104 22.9561H13.5601Z" fill="#C84141"/>
<path d="M25.0001 30.8457C22.852 30.8457 21.1045 32.5932 21.1045 34.7413C21.1045 36.8893 22.852 38.6368 25.0001 38.6368C27.1481 38.6368 28.8956 36.8893 28.8956 34.7413C28.8956 32.5932 27.1481 30.8457 25.0001 30.8457ZM25.0001 37.1575C23.6676 37.1575 22.5838 36.0734 22.5838 34.7413C22.5838 33.4088 23.6676 32.325 25.0001 32.325C26.3325 32.325 27.4163 33.4088 27.4163 34.7413C27.4163 36.0734 26.3325 37.1575 25.0001 37.1575Z" fill="#C84141"/>
<path d="M22.4854 23.6958C22.4854 25.0824 23.6134 26.2104 25 26.2104C26.3866 26.2104 27.5146 25.0824 27.5146 23.6958C27.5146 22.3092 26.3866 21.1812 25 21.1812C23.6134 21.1812 22.4854 22.3092 22.4854 23.6958ZM26.0357 23.6958C26.0357 24.2669 25.5711 24.7315 25 24.7315C24.4289 24.7315 23.9643 24.2669 23.9643 23.6958C23.9643 23.1247 24.4289 22.6601 25 22.6601C25.5711 22.6601 26.0357 23.1247 26.0357 23.6958Z" fill="#C84141"/>
</g>
<defs>
<clipPath id="clip0">
<rect width="50" height="50" fill="white"/>
</clipPath>
</defs>
</symbol>

<symbol id="wallet" width="50" height="50" viewBox="0 0 50 50" fill="none" xmlns="http://www.w3.org/2000/svg">
<g clip-path="url(#clip0)">
<path d="M47.6162 29.2865H46.8679V22.5468C46.8679 21.4798 46.3369 20.535 45.5258 19.961V19.0433C45.5258 17.7122 44.4429 16.6293 43.1118 16.6293H42.5531L44.6907 13.4926C45.4072 12.4412 45.1347 11.0028 44.0834 10.2862L29.5784 0.40144C29.0691 0.054272 28.4552 -0.073853 27.8494 0.0410884C27.2438 0.155835 26.7191 0.499487 26.372 1.00886L13.8524 19.3802H10.3685L11.209 10.8715C11.2185 10.7756 11.2808 10.6925 11.3677 10.6597C12.4506 10.2514 13.3891 9.48894 14.0102 8.51277C14.0591 8.43591 14.1514 8.39197 14.2469 8.40164L19.7113 8.94148C20.1031 8.97947 20.4516 8.69412 20.4903 8.30251C20.529 7.91091 20.2429 7.56218 19.8513 7.52351L14.387 6.98367C13.7527 6.92156 13.1478 7.21384 12.808 7.74783C12.3513 8.4656 11.6613 9.02615 10.8651 9.32634C10.2658 9.55232 9.85425 10.0906 9.79097 10.7313L8.93667 19.3801H8.02817L9.35747 5.92273C9.40532 5.43835 9.83765 5.08249 10.3226 5.13103L21.365 6.22185C21.7566 6.25964 22.1053 5.97449 22.144 5.58289C22.1827 5.19128 21.8966 4.84255 21.505 4.80388L10.4626 3.71306C9.19663 3.58816 8.0645 4.51638 7.9394 5.78259L6.86792 16.6293H5.04321C3.71216 16.6293 2.62915 17.7122 2.62915 19.0433V19.6693C1.54019 20.1707 0.781982 21.2715 0.781982 22.5468V46.8334C0.781982 48.5795 2.20249 50 3.94868 50H43.7013C45.4474 50 46.8679 48.5795 46.8679 46.8334V40.0937H47.6162C48.4994 40.0937 49.2178 39.3753 49.2178 38.4922V30.8882C49.2179 30.005 48.4994 29.2865 47.6162 29.2865ZM43.1118 18.0543C43.6573 18.0542 44.1009 18.4979 44.1009 19.0434V19.4064C43.9699 19.3898 43.8368 19.3803 43.7013 19.3803H40.6784L41.582 18.0543H43.1118ZM27.5495 1.81121C27.6823 1.61638 27.883 1.48494 28.1146 1.44099C28.17 1.43054 28.2255 1.42527 28.2807 1.42527C28.4562 1.42527 28.6277 1.47781 28.7759 1.57878L43.2809 11.4635C43.6831 11.7377 43.7874 12.2879 43.5133 12.69L38.9542 19.3801H37.86L40.0953 16.1001C40.4578 15.5681 40.4877 14.8912 40.173 14.3333C39.7548 13.5921 39.5853 12.7193 39.6957 11.8757C39.7777 11.248 39.5015 10.6353 38.975 10.2765L31.4556 5.15232C30.929 4.79343 30.2577 4.76052 29.7036 5.06648C28.9589 5.47761 28.0846 5.63904 27.2418 5.52107C26.6168 5.43337 25.983 5.7156 25.6258 6.23953L16.6709 19.3801H15.5767L27.5495 1.81121ZM27.8632 13.9099C24.7606 13.9099 22.2137 16.3292 22.0062 19.3801H18.395L26.8031 7.04197C26.8508 6.97175 26.9301 6.92996 27.0115 6.92996C27.0223 6.92996 27.0332 6.93074 27.044 6.9322C28.1903 7.09255 29.3793 6.87322 30.3921 6.31394C30.4718 6.2698 30.5742 6.27615 30.6531 6.32986L38.1725 11.4542C38.2512 11.5079 38.2945 11.6009 38.2828 11.6911C38.1327 12.8385 38.3633 14.0254 38.932 15.0334C38.9776 15.1143 38.972 15.218 38.9179 15.2976L36.1359 19.3801H33.7206C33.5128 16.3292 30.9661 13.9099 27.8632 13.9099ZM32.2917 19.3802H23.4348C23.6389 17.1157 25.5465 15.3349 27.8632 15.3349C30.18 15.3348 32.0877 17.1157 32.2917 19.3802ZM4.05405 19.0433C4.05405 18.4978 4.49771 18.0541 5.04321 18.0541H6.7272L6.59624 19.3801H4.05405V19.0433ZM2.20688 22.5468C2.20688 21.5864 2.98823 20.8051 3.94868 20.8051H43.7013C44.6618 20.8051 45.443 21.5864 45.443 22.5468V24.5237H2.20688V22.5468ZM45.443 46.8334C45.443 47.7937 44.6618 48.5751 43.7013 48.5751H3.94868C2.98823 48.5751 2.20688 47.7937 2.20688 46.8334V44.8564H6.04888C6.44243 44.8564 6.76128 44.5375 6.76128 44.144C6.76128 43.7506 6.44233 43.4316 6.04888 43.4316H2.20688V25.9486H45.443V29.2865H38.669C36.5346 29.2865 34.6857 30.5306 33.8083 32.3315C33.8053 32.3376 33.802 32.3434 33.799 32.3495C33.7916 32.3648 33.7851 32.3807 33.7779 32.3962C33.6734 32.6181 33.5826 32.8479 33.5086 33.085L33.5081 33.087C33.3503 33.5937 33.2653 34.1321 33.2653 34.6901C33.2653 37.6697 35.6893 40.0937 38.6688 40.0937H45.4429V43.4316H10.6108C10.2172 43.4316 9.89839 43.7506 9.89839 44.144C9.89839 44.5375 10.2173 44.8564 10.6108 44.8564H45.443V46.8334ZM47.793 38.4921C47.793 38.5895 47.7137 38.6688 47.6162 38.6688H38.6691C37.1608 38.6688 35.8458 37.8252 35.1712 36.585C35.1406 36.5287 35.1113 36.4715 35.0833 36.4136C35.0273 36.2976 34.9768 36.1786 34.9322 36.0567C34.7757 35.6303 34.6904 35.17 34.6904 34.6901C34.6904 34.2102 34.7758 33.7499 34.9322 33.3235C34.9769 33.2017 35.0274 33.0827 35.0833 32.9667C35.1113 32.9088 35.1406 32.8515 35.1712 32.7952C35.8458 31.5551 37.1608 30.7114 38.6691 30.7114H47.6162C47.7136 30.7114 47.793 30.7907 47.793 30.8882V38.4921Z" fill="#303030"/>
<path d="M38.8361 31.7996C37.2421 31.7996 35.9454 33.0963 35.9454 34.6902C35.9454 36.284 37.2421 37.5807 38.8361 37.5807C40.43 37.5807 41.7267 36.284 41.7267 34.6902C41.7267 33.0963 40.43 31.7996 38.8361 31.7996ZM38.8361 36.1558C38.0279 36.1558 37.3703 35.4983 37.3703 34.6902C37.3703 33.8821 38.0279 33.2245 38.8361 33.2245C39.6443 33.2245 40.3018 33.882 40.3018 34.6902C40.3018 35.4984 39.6443 36.1558 38.8361 36.1558Z" fill="#C84141"/>
</g>
<defs>
<clipPath id="clip0">
<rect width="50" height="50" fill="white"/>
</clipPath>
</defs>
</symbol>

</defs>


<defs xmlns="http://www.w3.org/2000/svg">

<symbol id="telegram" width="25" height="25" viewBox="0 0 25 25" fill="currentColor">
<g clip-path="url(#clip0)">
<path fill="currentColor" d="M20.1257 23.6812C19.9304 23.6812 19.7365 23.6234 19.5701 23.5106L13.2841 19.2466L9.91265 21.6726C9.64823 21.8627 9.30742 21.9106 9.00038 21.8008C8.69374 21.6908 8.46086 21.4368 8.37773 21.1218L6.68488 14.7064L0.636129 12.3936C0.255336 12.2479 0.00279387 11.8836 2.30254e-05 11.4759C-0.00274782 11.0682 0.244781 10.7004 0.623727 10.5496L23.6233 1.39793C23.7277 1.35359 23.8381 1.328 23.9495 1.32113C23.9893 1.31876 24.0293 1.31876 24.069 1.321C24.2997 1.33472 24.5262 1.42867 24.703 1.60204C24.7214 1.61999 24.7388 1.63833 24.7553 1.65746C24.9017 1.82477 24.9822 2.02875 24.9974 2.23657C25.0011 2.28882 25.0008 2.34173 24.9962 2.39464C24.993 2.43237 24.9876 2.46998 24.98 2.50732L21.0977 22.8768C21.0353 23.2041 20.8126 23.478 20.5049 23.6056C20.3829 23.6562 20.254 23.6812 20.1257 23.6812ZM13.836 17.2295L19.4354 21.0275L22.4561 5.17775L11.546 15.6761L13.8096 17.2117C13.8187 17.2173 13.8275 17.2234 13.836 17.2295ZM9.17481 16.3849L9.92452 19.2257L11.5398 18.0634L9.42472 16.6286C9.32642 16.5621 9.24224 16.4792 9.17481 16.3849ZM3.71242 11.4507L7.86579 13.0386C8.16332 13.1524 8.38789 13.4025 8.46917 13.7105L8.9959 15.7067C9.02004 15.4764 9.12441 15.2598 9.29396 15.0966L19.6898 5.09331L3.71242 11.4507Z"/>
</g>
<defs>
<clipPath id="clip0">
<rect width="25" height="25" fill="white"/>
</clipPath>
</defs>
</symbol>

<symbol id="viber" width="25" height="25" viewBox="0 0 25 25" fill="currentColor">
<g clip-path="url(#clip0)">
<path d="M21.9811 2.79682C20.0049 0.859403 16.81 -0.0793438 12.4835 0.00524592C8.12096 0.0910472 5.20482 0.85676 3.30629 2.41506C1.47065 3.92159 0.615723 6.1261 0.615723 9.35274V12.6458C0.615723 16.455 2.65689 20.6427 6.55804 21.2764C7.00841 21.35 7.43268 21.0438 7.50582 20.5934C7.57895 20.1431 7.2732 19.7187 6.82282 19.6456C3.86427 19.165 2.26786 15.6804 2.26786 12.6458V9.35274C2.26786 4.72608 3.98224 1.82481 12.5159 1.65695C16.3847 1.58029 19.177 2.36131 20.8243 3.97645C22.108 5.23527 22.7321 6.99381 22.7321 9.35274V12.6458C22.7321 17.6324 20.4939 19.8318 14.7532 20.4795H10.6826C10.4635 20.4795 10.2533 20.5665 10.0985 20.7215L7.23024 23.5897C6.90763 23.9123 6.90763 24.4354 7.23024 24.758C7.39149 24.9192 7.60296 25 7.81433 25C8.02569 25 8.23717 24.9193 8.39841 24.758L11.0248 22.1316H14.7994C14.8298 22.1316 14.8603 22.13 14.8906 22.1266C18.1759 21.7616 20.4257 20.9066 21.9704 19.4355C23.5947 17.8887 24.3843 15.6678 24.3843 12.6457V9.35274C24.3843 6.56623 23.5758 4.36051 21.9811 2.79682Z"/>
<path d="M13.0156 5.39568C13.0157 5.39568 13.0157 5.39568 13.016 5.39568C14.347 5.39568 15.5985 5.91413 16.5398 6.85541C17.4812 7.7968 17.9996 9.04846 17.9995 10.3798C17.9995 10.836 18.3692 11.2058 18.8254 11.2058C18.8256 11.2058 18.8256 11.2058 18.8256 11.2058C19.2818 11.2058 19.6516 10.8361 19.6516 10.3799C19.6517 8.60723 18.9615 6.94066 17.708 5.68723C16.4547 4.43381 14.7885 3.74365 13.016 3.74365C13.0159 3.74365 13.0155 3.74365 13.0154 3.74365C12.5592 3.74365 12.1895 4.11351 12.1895 4.56972C12.1896 5.02582 12.5594 5.39568 13.0156 5.39568Z" fill="currentColor"/>
<path d="M13.0154 8.30058C14.1618 8.3008 15.0946 9.23349 15.0947 10.3797C15.0948 10.836 15.4645 11.2058 15.9209 11.2057C16.3772 11.2057 16.7469 10.8357 16.7468 10.3795C16.7465 8.3225 15.0728 6.64877 13.0156 6.64844H13.0155C12.5593 6.64844 12.1896 7.01819 12.1895 7.4744C12.1895 7.93061 12.5592 8.30058 13.0154 8.30058Z"/>
<path d="M9.31131 9.71606C8.93473 9.97357 8.83814 10.4876 9.09554 10.8642C9.35295 11.2408 9.86709 11.3372 10.2437 11.0798C10.5398 10.8774 11.2335 10.4031 11.1848 9.45502C11.154 8.88756 10.6422 8.07735 10.2182 7.49756C9.59812 6.64924 9.06371 6.13829 8.63316 5.9799C8.23114 5.83022 7.81072 5.82702 7.38271 5.97065C6.49617 6.26936 5.8525 6.80917 5.52141 7.5317C5.19902 8.23508 5.20618 9.04341 5.54222 9.86982C6.33591 11.8169 7.44703 13.5216 8.85213 14.9438C10.2669 16.3414 11.9715 17.4525 13.9194 18.2466C14.3409 18.4181 14.7579 18.5039 15.1587 18.5039C15.5431 18.5039 15.9126 18.4251 16.2569 18.2672C16.9795 17.936 17.5192 17.2925 17.8182 16.4048C17.9614 15.9778 17.9582 15.5576 17.8097 15.1583C17.6502 14.7247 17.1392 14.1904 16.291 13.5703C15.7111 13.1463 14.9008 12.6345 14.3312 12.6036C13.3851 12.556 12.9112 13.2484 12.7088 13.5446C12.4513 13.9212 12.5476 14.4352 12.9242 14.6929C13.3009 14.9505 13.8148 14.854 14.0725 14.4774C14.1623 14.346 14.2137 14.2863 14.2431 14.2602C14.7068 14.4088 16.029 15.3803 16.2671 15.7525C16.2729 15.7763 16.2742 15.8126 16.2522 15.8785C16.148 16.1879 15.9448 16.5929 15.5686 16.7654C15.2163 16.9267 14.8159 16.8278 14.5425 16.7166C12.7971 16.005 11.2733 15.0132 10.0203 13.7755C8.77558 12.5156 7.78374 10.9917 7.07255 9.24696C6.96108 8.97292 6.86206 8.57233 7.02342 8.22032C7.1958 7.84418 7.6009 7.64086 7.9093 7.53688C7.97517 7.51485 8.0114 7.51606 8.03652 7.52212C8.40891 7.76058 9.37982 9.08207 9.52851 9.54589C9.5023 9.57485 9.44271 9.62629 9.31131 9.71606Z"/>
</g>
<defs>
</defs>
</symbol>

<symbol id="what"  width="25" height="25" viewBox="0 0 25 25">
<path d="M12.4996 0C5.74388 0 0.247925 5.49618 0.247925 12.2518C0.247925 14.8958 1.32108 17.2698 1.78257 18.1678C1.99743 18.586 2.5108 18.7506 2.92882 18.5359C3.34696 18.321 3.51177 17.8078 3.29691 17.3896C2.89216 16.6018 1.95056 14.5241 1.95056 12.2517C1.95044 6.43495 6.68276 1.70252 12.4996 1.70252C18.317 1.70252 23.0496 6.43495 23.0496 12.2518C23.0496 18.0688 18.317 22.8013 12.4996 22.8013C10.2246 22.8013 8.41683 22.0136 7.74513 21.6748C7.54594 21.5742 7.31519 21.556 7.10272 21.624L1.74069 23.3375C1.29293 23.4807 1.04584 23.9596 1.18896 24.4075C1.30451 24.7693 1.63934 24.9999 1.99959 24.9999C2.08551 24.9999 2.17279 24.9868 2.25894 24.9593L7.29737 23.3491C8.35146 23.8384 10.2067 24.5038 12.4996 24.5038C19.2556 24.5038 24.7522 19.0076 24.7522 12.2518C24.7522 5.49618 19.2556 0 12.4996 0Z" />
<path d="M10.0842 10.1628C9.7113 10.4491 9.64127 10.9835 9.92752 11.3565C10.2139 11.7293 10.7481 11.7995 11.1212 11.5131C11.3822 11.3126 12.0753 10.7803 11.9738 9.82816C11.9113 9.26213 11.359 8.48544 10.9067 7.93371C10.2449 7.12626 9.68463 6.64808 9.2447 6.51347C8.83246 6.38567 8.41001 6.40587 7.9887 6.57362C7.122 6.92003 6.51034 7.49389 6.21978 8.23324C5.93682 8.95329 5.98824 9.75904 6.36881 10.5642C7.25718 12.4395 8.44452 14.059 9.8979 15.3781C9.90357 15.3835 9.90936 15.3887 9.91515 15.3939C11.3892 16.6969 13.1331 17.7008 15.0993 18.3782C15.4724 18.5064 15.8386 18.5703 16.1902 18.5703C16.6319 18.5703 17.0509 18.4695 17.4319 18.2686C18.1346 17.8981 18.6374 17.227 18.8863 16.326C19.0061 15.8892 18.9794 15.4675 18.8081 15.0748C18.6243 14.6497 18.0873 14.1459 17.2118 13.5773C16.6138 13.1889 15.7816 12.7261 15.2096 12.7261C15.2093 12.7261 15.2088 12.7261 15.2084 12.7261C14.2543 12.7299 13.8013 13.4776 13.6308 13.7592C13.3873 14.1613 13.5157 14.6848 13.9179 14.9283C14.3198 15.1719 14.8434 15.0435 15.0871 14.6413C15.1544 14.5301 15.197 14.471 15.2238 14.4402C15.7046 14.5798 16.9907 15.421 17.2543 15.7751C17.2586 15.7939 17.2591 15.8224 17.2449 15.8743C17.1611 16.1779 16.9875 16.5784 16.6378 16.7627C16.3111 16.9348 15.9214 16.8607 15.653 16.7685C13.9036 16.1658 12.3554 15.2769 11.0513 14.1263C11.051 14.126 11.0505 14.1257 11.0502 14.1252C9.75886 12.9552 8.70148 11.5121 7.90754 9.83622C7.78598 9.5788 7.66919 9.19982 7.80426 8.85625C7.94886 8.48828 8.32784 8.27172 8.61953 8.15515C8.66959 8.13517 8.69785 8.13211 8.71839 8.13483C9.09953 8.35786 10.0769 9.54248 10.2688 10.005C10.2411 10.0348 10.1871 10.0837 10.0842 10.1628Z"/>

</symbol>

</defs>




</svg>




