<svg width="50" height="50" viewBox="0 0 50 50" fill="none" xmlns="http://www.w3.org/2000/svg">
<path d="M25.036 9.16626C23.1952 9.16626 21.7029 10.6589 21.7029 12.4997C21.7029 14.3405 23.1952 15.8328 25.036 15.8328C26.8771 15.8328 28.3695 14.3405 28.3695 12.4997C28.3695 10.6589 26.8771 9.16626 25.036 9.16626ZM25.036 14.1663C24.1156 14.1663 23.3694 13.4201 23.3694 12.4997C23.3694 11.579 24.1156 10.8328 25.036 10.8328C25.9567 10.8328 26.7029 11.579 26.7029 12.4997C26.7029 13.4201 25.9567 14.1663 25.036 14.1663Z" fill="#C84141"/>
<path d="M44.7673 45.2241C44.7603 45.0956 44.7227 44.9705 44.6583 44.8585L33.2194 24.9997H35.0361C35.496 24.9997 35.8696 24.6265 35.8696 24.166V19.1663C35.8696 18.7061 35.496 18.3332 35.0361 18.3332H30.8692V5.83314C30.8692 5.37294 30.4963 5.00001 30.0361 5.00001H28.3695V0.833437C28.3695 0.372926 27.9963 0 27.5361 0H22.5361C22.0759 0 21.703 0.372926 21.703 0.833437V5.00001H20.0364C19.5759 5.00001 19.2027 5.37294 19.2027 5.83345V18.3332H15.0364C14.5762 18.3332 14.2032 18.7061 14.2032 19.1663V24.166C14.2032 24.6265 14.5762 24.9997 15.0364 24.9997H16.8528L5.41416 44.8582C5.34977 44.9705 5.31223 45.0956 5.30491 45.2241L5.07999 48.9485C5.04947 49.4071 5.39707 49.8045 5.85636 49.835C6.03824 49.8472 6.21952 49.799 6.3715 49.6983L9.48064 47.6399C9.58806 47.5682 9.67778 47.4729 9.74217 47.3606L22.5361 25.142V45.8326C22.5361 45.9617 22.5663 46.0893 22.6237 46.2052L24.2906 49.5384C24.4956 49.9501 24.9961 50.1176 25.4078 49.9122C25.5699 49.8313 25.7011 49.7001 25.782 49.5384L27.4485 46.2052C27.5062 46.0893 27.5364 45.9617 27.5361 45.8326V25.142L40.33 47.3564C40.3947 47.4687 40.4841 47.5639 40.5919 47.6356L43.7007 49.694C43.8374 49.784 43.9973 49.8326 44.1609 49.8323C44.6208 49.8335 44.9947 49.4612 44.9956 49.0007C44.9956 48.983 44.9953 48.9659 44.994 48.9485L44.7673 45.2241ZM23.3695 1.66657H26.703V5.00001H23.3695V1.66657ZM20.8695 6.66658H29.2027V18.3332H20.8695V6.66658ZM15.8698 19.9997H34.2027V23.3329H15.8698V19.9997ZM8.39573 46.3551L6.84391 47.3817L6.95652 45.5201L18.7763 24.9997H20.6928L8.39573 46.3551ZM25.8698 45.6361L25.0361 47.3023L24.2027 45.6361V24.9997H25.8692L25.8698 45.6361ZM41.6768 46.3551L29.3778 24.9997H31.2944L43.119 45.5201L43.2316 47.3817L41.6768 46.3551Z" fill="#303030"/>
</svg>
