<?xml version="1.0" encoding="UTF-8" standalone="no"?>
<svg
   xmlns:dc="http://purl.org/dc/elements/1.1/"
   xmlns:cc="http://creativecommons.org/ns#"
   xmlns:rdf="http://www.w3.org/1999/02/22-rdf-syntax-ns#"
   xmlns:svg="http://www.w3.org/2000/svg"
   xmlns="http://www.w3.org/2000/svg"
   xmlns:sodipodi="http://sodipodi.sourceforge.net/DTD/sodipodi-0.dtd"
   xmlns:inkscape="http://www.inkscape.org/namespaces/inkscape"
   width="25"
   height="25"
   viewBox="0 0 25 25"
   fill="none"
   version="1.1"
   id="svg17"
   sodipodi:docname="viber-logo-red.svg"
   inkscape:version="0.92.4 (5da689c313, 2019-01-14)">
  <metadata
     id="metadata21">
    <rdf:RDF>
      <cc:Work
         rdf:about="">
        <dc:format>image/svg+xml</dc:format>
        <dc:type
           rdf:resource="http://purl.org/dc/dcmitype/StillImage" />
        <dc:title></dc:title>
      </cc:Work>
    </rdf:RDF>
  </metadata>
  <sodipodi:namedview
     pagecolor="#ffffff"
     bordercolor="#666666"
     borderopacity="1"
     objecttolerance="10"
     gridtolerance="10"
     guidetolerance="10"
     inkscape:pageopacity="0"
     inkscape:pageshadow="2"
     inkscape:window-width="1211"
     inkscape:window-height="731"
     id="namedview19"
     showgrid="false"
     inkscape:zoom="9.44"
     inkscape:cx="-0.68855932"
     inkscape:cy="12.5"
     inkscape:window-x="0"
     inkscape:window-y="0"
     inkscape:window-maximized="0"
     inkscape:current-layer="svg17" />
  <g
     clip-path="url(#clip0)"
     id="g10"
     style="fill:#c84141;fill-opacity:1">
    <path
       d="M 21.9811,2.79682 C 20.0049,0.859403 16.81,-0.0793438 12.4835,0.00524592 8.12096,0.0910472 5.20482,0.85676 3.30629,2.41506 1.47065,3.92159 0.615723,6.1261 0.615723,9.35274 v 3.29306 c 0,3.8092 2.041167,7.9969 5.942317,8.6306 C 7.00841,21.35 7.43268,21.0438 7.50582,20.5934 7.57895,20.1431 7.2732,19.7187 6.82282,19.6456 3.86427,19.165 2.26786,15.6804 2.26786,12.6458 V 9.35274 c 0,-4.62666 1.71438,-7.52793 10.24804,-7.69579 3.8688,-0.07666 6.6611,0.70436 8.3084,2.3195 1.2837,1.25882 1.9078,3.01736 1.9078,5.37629 v 3.29306 c 0,4.9866 -2.2382,7.186 -7.9789,7.8337 h -4.0706 c -0.2191,0 -0.4293,0.087 -0.5841,0.242 l -2.86826,2.8682 c -0.32261,0.3226 -0.32261,0.8457 0,1.1683 C 7.39149,24.9192 7.60296,25 7.81433,25 8.02569,25 8.23717,24.9193 8.39841,24.758 l 2.62639,-2.6264 h 3.7746 c 0.0304,0 0.0609,-0.0016 0.0912,-0.005 3.2853,-0.365 5.5351,-1.22 7.0798,-2.6911 1.6243,-1.5468 2.4139,-3.7677 2.4139,-6.7898 V 9.35274 c 0,-2.78651 -0.8085,-4.99223 -2.4032,-6.55592 z"
       id="path2"
       inkscape:connector-curvature="0"
       style="fill:#c84141;fill-opacity:1" />
    <path
       d="m 13.0156,5.39568 c 1e-4,0 1e-4,0 4e-4,0 1.331,0 2.5825,0.51845 3.5238,1.45973 0.9414,0.94139 1.4598,2.19305 1.4597,3.52439 0,0.4562 0.3697,0.826 0.8259,0.826 2e-4,0 2e-4,0 2e-4,0 0.4562,0 0.826,-0.3697 0.826,-0.8259 1e-4,-1.77267 -0.6901,-3.43924 -1.9436,-4.69267 -1.2533,-1.25342 -2.9195,-1.94358 -4.692,-1.94358 -10e-5,0 -5e-4,0 -6e-4,0 -0.4562,0 -0.8259,0.36986 -0.8259,0.82607 10e-5,0.4561 0.3699,0.82596 0.8261,0.82596 z"
       id="path4"
       inkscape:connector-curvature="0"
       style="fill:#c84141;fill-opacity:1" />
    <path
       d="m 13.0154,8.30058 c 1.1464,2.2e-4 2.0792,0.93291 2.0793,2.07912 10e-5,0.4563 0.3698,0.8261 0.8262,0.826 0.4563,0 0.826,-0.37 0.8259,-0.8262 -3e-4,-2.057 -1.674,-3.73073 -3.7312,-3.73106 h -10e-5 c -0.4562,0 -0.8259,0.36975 -0.826,0.82596 0,0.45621 0.3697,0.82618 0.8259,0.82618 z"
       id="path6"
       inkscape:connector-curvature="0"
       style="fill:#c84141;fill-opacity:1" />
    <path
       d="M 9.31131,9.71606 C 8.93473,9.97357 8.83814,10.4876 9.09554,10.8642 c 0.25741,0.3766 0.77155,0.473 1.14816,0.2156 0.2961,-0.2024 0.9898,-0.6767 0.9411,-1.62478 C 11.154,8.88756 10.6422,8.07735 10.2182,7.49756 9.59812,6.64924 9.06371,6.13829 8.63316,5.9799 8.23114,5.83022 7.81072,5.82702 7.38271,5.97065 6.49617,6.26936 5.8525,6.80917 5.52141,7.5317 5.19902,8.23508 5.20618,9.04341 5.54222,9.86982 c 0.79369,1.94708 1.90481,3.65178 3.30991,5.07398 1.41477,1.3976 3.11937,2.5087 5.06727,3.3028 0.4215,0.1715 0.8385,0.2573 1.2393,0.2573 0.3844,0 0.7539,-0.0788 1.0982,-0.2367 0.7226,-0.3312 1.2623,-0.9747 1.5613,-1.8624 0.1432,-0.427 0.14,-0.8472 -0.0085,-1.2465 -0.1595,-0.4336 -0.6705,-0.9679 -1.5187,-1.588 -0.5799,-0.424 -1.3902,-0.9358 -1.9598,-0.9667 -0.9461,-0.0476 -1.42,0.6448 -1.6224,0.941 -0.2575,0.3766 -0.1612,0.8906 0.2154,1.1483 0.3767,0.2576 0.8906,0.1611 1.1483,-0.2155 0.0898,-0.1314 0.1412,-0.1911 0.1706,-0.2172 0.4637,0.1486 1.7859,1.1201 2.024,1.4923 0.0058,0.0238 0.0071,0.0601 -0.0149,0.126 -0.1042,0.3094 -0.3074,0.7144 -0.6836,0.8869 -0.3523,0.1613 -0.7527,0.0624 -1.0261,-0.0488 C 12.7971,16.005 11.2733,15.0132 10.0203,13.7755 8.77558,12.5156 7.78374,10.9917 7.07255,9.24696 6.96108,8.97292 6.86206,8.57233 7.02342,8.22032 7.1958,7.84418 7.6009,7.64086 7.9093,7.53688 7.97517,7.51485 8.0114,7.51606 8.03652,7.52212 8.40891,7.76058 9.37982,9.08207 9.52851,9.54589 9.5023,9.57485 9.44271,9.62629 9.31131,9.71606 Z"
       id="path8"
       inkscape:connector-curvature="0"
       style="fill:#c84141;fill-opacity:1" />
  </g>
  <defs
     id="defs15">
    <clipPath
       id="clip0">
      <rect
         width="25"
         height="25"
         fill="white"
         id="rect12" />
    </clipPath>
  </defs>
</svg>
