<svg width="50" height="50" viewBox="0 0 50 50" fill="none" xmlns="http://www.w3.org/2000/svg">
<g clip-path="url(#clip0)">
<path d="M47.6162 29.2865H46.8679V22.5468C46.8679 21.4798 46.3369 20.535 45.5258 19.961V19.0433C45.5258 17.7122 44.4429 16.6293 43.1118 16.6293H42.5531L44.6907 13.4926C45.4072 12.4412 45.1347 11.0028 44.0834 10.2862L29.5784 0.40144C29.0691 0.054272 28.4552 -0.073853 27.8494 0.0410884C27.2438 0.155835 26.7191 0.499487 26.372 1.00886L13.8524 19.3802H10.3685L11.209 10.8715C11.2185 10.7756 11.2808 10.6925 11.3677 10.6597C12.4506 10.2514 13.3891 9.48894 14.0102 8.51277C14.0591 8.43591 14.1514 8.39197 14.2469 8.40164L19.7113 8.94148C20.1031 8.97947 20.4516 8.69412 20.4903 8.30251C20.529 7.91091 20.2429 7.56218 19.8513 7.52351L14.387 6.98367C13.7527 6.92156 13.1478 7.21384 12.808 7.74783C12.3513 8.4656 11.6613 9.02615 10.8651 9.32634C10.2658 9.55232 9.85425 10.0906 9.79097 10.7313L8.93667 19.3801H8.02817L9.35747 5.92273C9.40532 5.43835 9.83765 5.08249 10.3226 5.13103L21.365 6.22185C21.7566 6.25964 22.1053 5.97449 22.144 5.58289C22.1827 5.19128 21.8966 4.84255 21.505 4.80388L10.4626 3.71306C9.19663 3.58816 8.0645 4.51638 7.9394 5.78259L6.86792 16.6293H5.04321C3.71216 16.6293 2.62915 17.7122 2.62915 19.0433V19.6693C1.54019 20.1707 0.781982 21.2715 0.781982 22.5468V46.8334C0.781982 48.5795 2.20249 50 3.94868 50H43.7013C45.4474 50 46.8679 48.5795 46.8679 46.8334V40.0937H47.6162C48.4994 40.0937 49.2178 39.3753 49.2178 38.4922V30.8882C49.2179 30.005 48.4994 29.2865 47.6162 29.2865ZM43.1118 18.0543C43.6573 18.0542 44.1009 18.4979 44.1009 19.0434V19.4064C43.9699 19.3898 43.8368 19.3803 43.7013 19.3803H40.6784L41.582 18.0543H43.1118ZM27.5495 1.81121C27.6823 1.61638 27.883 1.48494 28.1146 1.44099C28.17 1.43054 28.2255 1.42527 28.2807 1.42527C28.4562 1.42527 28.6277 1.47781 28.7759 1.57878L43.2809 11.4635C43.6831 11.7377 43.7874 12.2879 43.5133 12.69L38.9542 19.3801H37.86L40.0953 16.1001C40.4578 15.5681 40.4877 14.8912 40.173 14.3333C39.7548 13.5921 39.5853 12.7193 39.6957 11.8757C39.7777 11.248 39.5015 10.6353 38.975 10.2765L31.4556 5.15232C30.929 4.79343 30.2577 4.76052 29.7036 5.06648C28.9589 5.47761 28.0846 5.63904 27.2418 5.52107C26.6168 5.43337 25.983 5.7156 25.6258 6.23953L16.6709 19.3801H15.5767L27.5495 1.81121ZM27.8632 13.9099C24.7606 13.9099 22.2137 16.3292 22.0062 19.3801H18.395L26.8031 7.04197C26.8508 6.97175 26.9301 6.92996 27.0115 6.92996C27.0223 6.92996 27.0332 6.93074 27.044 6.9322C28.1903 7.09255 29.3793 6.87322 30.3921 6.31394C30.4718 6.2698 30.5742 6.27615 30.6531 6.32986L38.1725 11.4542C38.2512 11.5079 38.2945 11.6009 38.2828 11.6911C38.1327 12.8385 38.3633 14.0254 38.932 15.0334C38.9776 15.1143 38.972 15.218 38.9179 15.2976L36.1359 19.3801H33.7206C33.5128 16.3292 30.9661 13.9099 27.8632 13.9099ZM32.2917 19.3802H23.4348C23.6389 17.1157 25.5465 15.3349 27.8632 15.3349C30.18 15.3348 32.0877 17.1157 32.2917 19.3802ZM4.05405 19.0433C4.05405 18.4978 4.49771 18.0541 5.04321 18.0541H6.7272L6.59624 19.3801H4.05405V19.0433ZM2.20688 22.5468C2.20688 21.5864 2.98823 20.8051 3.94868 20.8051H43.7013C44.6618 20.8051 45.443 21.5864 45.443 22.5468V24.5237H2.20688V22.5468ZM45.443 46.8334C45.443 47.7937 44.6618 48.5751 43.7013 48.5751H3.94868C2.98823 48.5751 2.20688 47.7937 2.20688 46.8334V44.8564H6.04888C6.44243 44.8564 6.76128 44.5375 6.76128 44.144C6.76128 43.7506 6.44233 43.4316 6.04888 43.4316H2.20688V25.9486H45.443V29.2865H38.669C36.5346 29.2865 34.6857 30.5306 33.8083 32.3315C33.8053 32.3376 33.802 32.3434 33.799 32.3495C33.7916 32.3648 33.7851 32.3807 33.7779 32.3962C33.6734 32.6181 33.5826 32.8479 33.5086 33.085L33.5081 33.087C33.3503 33.5937 33.2653 34.1321 33.2653 34.6901C33.2653 37.6697 35.6893 40.0937 38.6688 40.0937H45.4429V43.4316H10.6108C10.2172 43.4316 9.89839 43.7506 9.89839 44.144C9.89839 44.5375 10.2173 44.8564 10.6108 44.8564H45.443V46.8334ZM47.793 38.4921C47.793 38.5895 47.7137 38.6688 47.6162 38.6688H38.6691C37.1608 38.6688 35.8458 37.8252 35.1712 36.585C35.1406 36.5287 35.1113 36.4715 35.0833 36.4136C35.0273 36.2976 34.9768 36.1786 34.9322 36.0567C34.7757 35.6303 34.6904 35.17 34.6904 34.6901C34.6904 34.2102 34.7758 33.7499 34.9322 33.3235C34.9769 33.2017 35.0274 33.0827 35.0833 32.9667C35.1113 32.9088 35.1406 32.8515 35.1712 32.7952C35.8458 31.5551 37.1608 30.7114 38.6691 30.7114H47.6162C47.7136 30.7114 47.793 30.7907 47.793 30.8882V38.4921Z" fill="#303030"/>
<path d="M38.8361 31.7996C37.2421 31.7996 35.9454 33.0963 35.9454 34.6902C35.9454 36.284 37.2421 37.5807 38.8361 37.5807C40.43 37.5807 41.7267 36.284 41.7267 34.6902C41.7267 33.0963 40.43 31.7996 38.8361 31.7996ZM38.8361 36.1558C38.0279 36.1558 37.3703 35.4983 37.3703 34.6902C37.3703 33.8821 38.0279 33.2245 38.8361 33.2245C39.6443 33.2245 40.3018 33.882 40.3018 34.6902C40.3018 35.4984 39.6443 36.1558 38.8361 36.1558Z" fill="#C84141"/>
</g>
<defs>
<clipPath id="clip0">
<rect width="50" height="50" fill="white"/>
</clipPath>
</defs>
</svg>
